{
.appVersion = "113";
DisplayStrings = (
"/uniF7EC",
"/uniF018",
"",
"/uniF850",
"/uniF850",
"/uniF850",
""
);
copyright = "Copyright (c) Font Awesome";
date = "2020-02-05 00:05:37 +0000";
familyName = Symbols;
featurePrefixes = (
{
automatic = 1;
code = "languagesystem DFLT dflt;\012";
name = Languagesystems;
}
);
fontMaster = (
{
alignmentZones = (
"{433, 0}",
"{421, 4}",
"{314, 6}",
"{52, 4}",
"{-55, -3}"
);
ascender = 448;
capHeight = 421;
custom = Black;
descender = -64;
id = "8CF30A56-F91F-4EB2-A618-934C961D83D1";
weightValue = 900;
widthValue = 5;
xHeight = 314;
}
);
glyphs = (
{
glyphname = A;
layers = (
{
layerId = "8CF30A56-F91F-4EB2-A618-934C961D83D1";
paths = (
{
closed = 1;
nodes = (
"206 421 LINE",
"169 421 LINE",
"9 56 LINE",
"53 56 LINE",
"93 150 LINE",
"284 150 LINE",
"324 56 LINE",
"367 56 LINE"
);
},
{
closed = 1;
nodes = (
"269 185 LINE",
"108 185 LINE",
"188 372 LINE"
);
}
);
width = 376;
}
);
note = A;
unicode = 0041;
},
{
glyphname = B;
layers = (
{
layerId = "8CF30A56-F91F-4EB2-A618-934C961D83D1";
paths = (
{
closed = 1;
nodes = (
"318 200 OFFCURVE",
"293 232 OFFCURVE",
"252 243 CURVE",
"288 257 OFFCURVE",
"309 286 OFFCURVE",
"309 325 CURVE SMOOTH",
"309 386 OFFCURVE",
"266 421 OFFCURVE",
"191 421 CURVE SMOOTH",
"45 421 LINE",
"45 56 LINE",
"197 56 LINE SMOOTH",
"274 56 OFFCURVE",
"318 92 OFFCURVE",
"318 155 CURVE SMOOTH"
);
},
{
closed = 1;
nodes = (
"185 386 LINE SMOOTH",
"240 386 OFFCURVE",
"268 365 OFFCURVE",
"268 323 CURVE SMOOTH",
"268 281 OFFCURVE",
"240 259 OFFCURVE",
"185 259 CURVE SMOOTH",
"87 259 LINE",
"87 386 LINE"
);
},
{
closed = 1;
nodes = (
"276 112 OFFCURVE",
"250 91 OFFCURVE",
"193 91 CURVE SMOOTH",
"87 91 LINE",
"87 223 LINE",
"193 223 LINE SMOOTH",
"249 223 OFFCURVE",
"276 201 OFFCURVE",
"276 156 CURVE SMOOTH"
);
}
);
width = 363;
}
);
note = B;
unicode = 0042;
},
{
glyphname = C;
layers = (
{
layerId = "8CF30A56-F91F-4EB2-A618-934C961D83D1";
paths = (
{
closed = 1;
nodes = (
"32 124 OFFCURVE",
"97 52 OFFCURVE",
"201 52 CURVE SMOOTH",
"251 52 OFFCURVE",
"294 67 OFFCURVE",
"325 98 CURVE",
"309 130 LINE",
"274 100 OFFCURVE",
"242 88 OFFCURVE",
"201 88 CURVE SMOOTH",
"121 88 OFFCURVE",
"75 143 OFFCURVE",
"75 239 CURVE SMOOTH",
"75 335 OFFCURVE",
"121 388 OFFCURVE",
"201 388 CURVE SMOOTH",
"242 388 OFFCURVE",
"274 377 OFFCURVE",
"309 346 CURVE",
"325 379 LINE",
"294 409 OFFCURVE",
"251 425 OFFCURVE",
"201 425 CURVE SMOOTH",
"97 425 OFFCURVE",
"32 353 OFFCURVE",
"32 239 CURVE SMOOTH"
);
}
);
width = 357;
}
);
note = C;
unicode = 0043;
},
{
glyphname = D;
layers = (
{
layerId = "8CF30A56-F91F-4EB2-A618-934C961D83D1";
paths = (
{
closed = 1;
nodes = (
"167 56 LINE SMOOTH",
"284 56 OFFCURVE",
"351 122 OFFCURVE",
"351 239 CURVE SMOOTH",
"351 355 OFFCURVE",
"284 421 OFFCURVE",
"167 421 CURVE SMOOTH",
"45 421 LINE",
"45 56 LINE"
);
},
{
closed = 1;
nodes = (
"87 385 LINE",
"165 385 LINE SMOOTH",
"260 385 OFFCURVE",
"307 336 OFFCURVE",
"307 239 CURVE SMOOTH",
"307 141 OFFCURVE",
"259 92 OFFCURVE",
"165 92 CURVE SMOOTH",
"87 92 LINE"
);
}
);
width = 396;
}
);
note = D;
unicode = 0044;
},
{
glyphname = E;
layers = (
{
layerId = "8CF30A56-F91F-4EB2-A618-934C961D83D1";
paths = (
{
closed = 1;
nodes = (
"275 91 LINE",
"87 91 LINE",
"87 223 LINE",
"265 223 LINE",
"265 259 LINE",
"87 259 LINE",
"87 386 LINE",
"275 386 LINE",
"275 421 LINE",
"45 421 LINE",
"45 56 LINE",
"275 56 LINE"
);
}
);
width = 320;
}
);
note = E;
unicode = 0045;
},
{
glyphname = F;
layers = (
{
layerId = "8CF30A56-F91F-4EB2-A618-934C961D83D1";
paths = (
{
closed = 1;
nodes = (
"87 223 LINE",
"260 223 LINE",
"260 259 LINE",
"87 259 LINE",
"87 385 LINE",
"270 385 LINE",
"270 421 LINE",
"45 421 LINE",
"45 56 LINE",
"87 56 LINE"
);
}
);
width = 315;
}
);
note = F;
unicode = 0046;
},
{
glyphname = G;
layers = (
{
layerId = "8CF30A56-F91F-4EB2-A618-934C961D83D1";
paths = (
{
closed = 1;
nodes = (
"204 213 LINE",
"295 213 LINE",
"295 102 LINE",
"267 92 OFFCURVE",
"238 87 OFFCURVE",
"207 87 CURVE SMOOTH",
"121 87 OFFCURVE",
"75 140 OFFCURVE",
"75 239 CURVE SMOOTH",
"75 336 OFFCURVE",
"121 389 OFFCURVE",
"203 389 CURVE SMOOTH",
"246 389 OFFCURVE",
"277 377 OFFCURVE",
"312 346 CURVE",
"329 379 LINE",
"298 409 OFFCURVE",
"254 425 OFFCURVE",
"203 425 CURVE SMOOTH",
"97 425 OFFCURVE",
"32 354 OFFCURVE",
"32 239 CURVE SMOOTH",
"32 122 OFFCURVE",
"97 52 OFFCURVE",
"206 52 CURVE SMOOTH",
"254 52 OFFCURVE",
"305 62 OFFCURVE",
"333 77 CURVE",
"333 246 LINE",
"204 246 LINE"
);
}
);
width = 365;
}
);
note = G;
unicode = 0047;
},
{
glyphname = H;
layers = (
{
layerId = "8CF30A56-F91F-4EB2-A618-934C961D83D1";
paths = (
{
closed = 1;
nodes = (
"87 259 LINE",
"87 421 LINE",
"45 421 LINE",
"45 56 LINE",
"87 56 LINE",
"87 223 LINE",
"305 223 LINE",
"305 56 LINE",
"347 56 LINE",
"347 421 LINE",
"305 421 LINE",
"305 259 LINE"
);
}
);
width = 392;
}
);
note = H;
unicode = 0048;
},
{
glyphname = I;
layers = (
{
layerId = "8CF30A56-F91F-4EB2-A618-934C961D83D1";
paths = (
{
closed = 1;
nodes = (
"87 421 LINE",
"45 421 LINE",
"45 56 LINE",
"87 56 LINE"
);
}
);
width = 132;
}
);
note = I;
unicode = 0049;
},
{
glyphname = J;
layers = (
{
layerId = "8CF30A56-F91F-4EB2-A618-934C961D83D1";
paths = (
{
closed = 1;
nodes = (
"-3 -35 LINE",
"15 -38 OFFCURVE",
"29 -39 OFFCURVE",
"41 -39 CURVE SMOOTH",
"100 -39 OFFCURVE",
"123 -10 OFFCURVE",
"123 61 CURVE SMOOTH",
"123 421 LINE",
"81 421 LINE",
"81 62 LINE SMOOTH",
"81 15 OFFCURVE",
"69 -3 OFFCURVE",
"34 -3 CURVE SMOOTH",
"25 -3 OFFCURVE",
"13 -1 OFFCURVE",
"-3 1 CURVE"
);
}
);
width = 126;
}
);
note = J;
unicode = 004A;
},
{
glyphname = K;
layers = (
{
layerId = "8CF30A56-F91F-4EB2-A618-934C961D83D1";
paths = (
{
closed = 1;
nodes = (
"320 421 LINE",
"266 421 LINE",
"87 253 LINE",
"87 421 LINE",
"45 421 LINE",
"45 56 LINE",
"87 56 LINE",
"87 230 LINE",
"275 56 LINE",
"330 56 LINE",
"130 243 LINE"
);
}
);
width = 375;
}
);
note = K;
unicode = 004B;
},
{
glyphname = L;
layers = (
{
layerId = "8CF30A56-F91F-4EB2-A618-934C961D83D1";
paths = (
{
closed = 1;
nodes = (
"270 92 LINE",
"87 92 LINE",
"87 421 LINE",
"45 421 LINE",
"45 56 LINE",
"270 56 LINE"
);
}
);
width = 315;
}
);
note = L;
unicode = 004C;
},
{
glyphname = M;
layers = (
{
layerId = "8CF30A56-F91F-4EB2-A618-934C961D83D1";
paths = (
{
closed = 1;
nodes = (
"80 421 LINE",
"45 421 LINE",
"45 56 LINE",
"84 56 LINE",
"83 325 LINE",
"203 56 LINE",
"232 56 LINE",
"351 327 LINE",
"351 56 LINE",
"390 56 LINE",
"390 421 LINE",
"355 421 LINE",
"218 106 LINE"
);
}
);
width = 435;
}
);
note = M;
unicode = 004D;
},
{
glyphname = N;
layers = (
{
layerId = "8CF30A56-F91F-4EB2-A618-934C961D83D1";
paths = (
{
closed = 1;
nodes = (
"77 421 LINE",
"45 421 LINE",
"45 56 LINE",
"84 56 LINE",
"84 349 LINE",
"305 56 LINE",
"337 56 LINE",
"337 421 LINE",
"297 421 LINE",
"297 127 LINE"
);
}
);
width = 382;
}
);
note = N;
unicode = 004E;
},
{
glyphname = O;
layers = (
{
layerId = "8CF30A56-F91F-4EB2-A618-934C961D83D1";
paths = (
{
closed = 1;
nodes = (
"32 124 OFFCURVE",
"96 52 OFFCURVE",
"198 52 CURVE SMOOTH",
"299 52 OFFCURVE",
"364 124 OFFCURVE",
"364 239 CURVE SMOOTH",
"364 353 OFFCURVE",
"301 425 OFFCURVE",
"198 425 CURVE SMOOTH",
"95 425 OFFCURVE",
"32 353 OFFCURVE",
"32 238 CURVE SMOOTH"
);
},
{
closed = 1;
nodes = (
"320 143 OFFCURVE",
"275 88 OFFCURVE",
"198 88 CURVE SMOOTH",
"120 88 OFFCURVE",
"75 143 OFFCURVE",
"75 239 CURVE SMOOTH",
"75 335 OFFCURVE",
"120 389 OFFCURVE",
"198 389 CURVE SMOOTH",
"275 389 OFFCURVE",
"320 335 OFFCURVE",
"320 239 CURVE SMOOTH"
);
}
);
width = 396;
}
);
note = O;
unicode = 004F;
},
{
glyphname = P;
layers = (
{
layerId = "8CF30A56-F91F-4EB2-A618-934C961D83D1";
paths = (
{
closed = 1;
nodes = (
"87 56 LINE",
"87 216 LINE",
"190 216 LINE SMOOTH",
"265 216 OFFCURVE",
"310 255 OFFCURVE",
"310 319 CURVE SMOOTH",
"310 382 OFFCURVE",
"266 421 OFFCURVE",
"190 421 CURVE SMOOTH",
"45 421 LINE",
"45 56 LINE"
);
},
{
closed = 1;
nodes = (
"87 386 LINE",
"187 386 LINE SMOOTH",
"241 386 OFFCURVE",
"268 362 OFFCURVE",
"268 319 CURVE SMOOTH",
"268 275 OFFCURVE",
"241 251 OFFCURVE",
"187 251 CURVE SMOOTH",
"87 251 LINE"
);
}
);
width = 355;
}
);
note = P;
unicode = 0050;
},
{
glyphname = Q;
layers = (
{
layerId = "8CF30A56-F91F-4EB2-A618-934C961D83D1";
paths = (
{
closed = 1;
nodes = (
"325 -15 LINE",
"296 9 OFFCURVE",
"274 35 OFFCURVE",
"259 62 CURVE",
"325 86 OFFCURVE",
"364 149 OFFCURVE",
"364 239 CURVE SMOOTH",
"364 353 OFFCURVE",
"301 425 OFFCURVE",
"198 425 CURVE SMOOTH",
"95 425 OFFCURVE",
"32 353 OFFCURVE",
"32 238 CURVE SMOOTH",
"32 124 OFFCURVE",
"96 52 OFFCURVE",
"198 52 CURVE SMOOTH",
"202 52 OFFCURVE",
"208 52 OFFCURVE",
"216 53 CURVE",
"237 16 OFFCURVE",
"267 -20 OFFCURVE",
"296 -42 CURVE"
);
},
{
closed = 1;
nodes = (
"120 88 OFFCURVE",
"75 143 OFFCURVE",
"75 239 CURVE SMOOTH",
"75 335 OFFCURVE",
"120 389 OFFCURVE",
"198 389 CURVE SMOOTH",
"275 389 OFFCURVE",
"320 335 OFFCURVE",
"320 239 CURVE SMOOTH",
"320 143 OFFCURVE",
"275 88 OFFCURVE",
"198 88 CURVE SMOOTH"
);
}
);
width = 396;
}
);
note = Q;
unicode = 0051;
},
{
glyphname = R;
layers = (
{
layerId = "8CF30A56-F91F-4EB2-A618-934C961D83D1";
paths = (
{
closed = 1;
nodes = (
"285 179 LINE SMOOTH",
"275 207 OFFCURVE",
"260 221 OFFCURVE",
"239 224 CURVE",
"286 238 OFFCURVE",
"312 272 OFFCURVE",
"312 319 CURVE SMOOTH",
"312 385 OFFCURVE",
"268 421 OFFCURVE",
"190 421 CURVE SMOOTH",
"45 421 LINE",
"45 56 LINE",
"87 56 LINE",
"87 215 LINE",
"178 215 LINE SMOOTH",
"213 215 OFFCURVE",
"231 207 OFFCURVE",
"242 177 CURVE SMOOTH",
"287 56 LINE",
"331 56 LINE"
);
},
{
closed = 1;
nodes = (
"87 386 LINE",
"186 386 LINE SMOOTH",
"244 386 OFFCURVE",
"270 364 OFFCURVE",
"270 319 CURVE SMOOTH",
"270 273 OFFCURVE",
"242 250 OFFCURVE",
"186 250 CURVE SMOOTH",
"87 250 LINE"
);
}
);
width = 376;
}
);
note = R;
unicode = 0052;
},
{
glyphname = S;
layers = (
{
layerId = "8CF30A56-F91F-4EB2-A618-934C961D83D1";
paths = (
{
closed = 1;
nodes = (
"25 98 LINE",
"58 67 OFFCURVE",
"104 52 OFFCURVE",
"161 52 CURVE SMOOTH",
"243 52 OFFCURVE",
"295 93 OFFCURVE",
"295 155 CURVE SMOOTH",
"295 197 OFFCURVE",
"269 222 OFFCURVE",
"232 234 CURVE SMOOTH",
"214 240 OFFCURVE",
"190 248 OFFCURVE",
"159 255 CURVE SMOOTH",
"101 269 OFFCURVE",
"73 284 OFFCURVE",
"73 321 CURVE SMOOTH",
"73 363 OFFCURVE",
"107 389 OFFCURVE",
"164 389 CURVE SMOOTH",
"205 389 OFFCURVE",
"239 375 OFFCURVE",
"273 346 CURVE",
"290 379 LINE",
"260 409 OFFCURVE",
"215 425 OFFCURVE",
"164 425 CURVE SMOOTH",
"84 425 OFFCURVE",
"31 382 OFFCURVE",
"31 319 CURVE SMOOTH",
"31 276 OFFCURVE",
"56 250 OFFCURVE",
"92 235 CURVE SMOOTH",
"110 228 OFFCURVE",
"133 222 OFFCURVE",
"161 215 CURVE SMOOTH",
"221 201 OFFCURVE",
"252 192 OFFCURVE",
"253 153 CURVE SMOOTH",
"254 112 OFFCURVE",
"220 88 OFFCURVE",
"161 88 CURVE SMOOTH",
"112 88 OFFCURVE",
"77 100 OFFCURVE",
"40 130 CURVE"
);
}
);
width = 320;
}
);
note = S;
unicode = 0053;
},
{
glyphname = T;
layers = (
{
layerId = "8CF30A56-F91F-4EB2-A618-934C961D83D1";
paths = (
{
closed = 1;
nodes = (
"176 385 LINE",
"303 385 LINE",
"303 421 LINE",
"6 421 LINE",
"6 385 LINE",
"133 385 LINE",
"133 56 LINE",
"176 56 LINE"
);
}
);
width = 309;
}
);
note = T;
unicode = 0054;
},
{
glyphname = U;
layers = (
{
layerId = "8CF30A56-F91F-4EB2-A618-934C961D83D1";
paths = (
{
closed = 1;
nodes = (
"42 199 LINE SMOOTH",
"42 102 OFFCURVE",
"92 52 OFFCURVE",
"187 52 CURVE SMOOTH",
"282 52 OFFCURVE",
"332 103 OFFCURVE",
"332 199 CURVE SMOOTH",
"332 421 LINE",
"290 421 LINE",
"290 195 LINE SMOOTH",
"290 124 OFFCURVE",
"255 88 OFFCURVE",
"187 88 CURVE SMOOTH",
"119 88 OFFCURVE",
"84 124 OFFCURVE",
"84 195 CURVE SMOOTH",
"84 421 LINE",
"42 421 LINE"
);
}
);
width = 374;
}
);
note = U;
unicode = 0055;
},
{
glyphname = V;
layers = (
{
layerId = "8CF30A56-F91F-4EB2-A618-934C961D83D1";
paths = (
{
closed = 1;
nodes = (
"46 421 LINE",
"1 421 LINE",
"160 56 LINE",
"197 56 LINE",
"356 421 LINE",
"313 421 LINE",
"179 109 LINE"
);
}
);
width = 357;
}
);
note = V;
unicode = 0056;
},
{
glyphname = W;
layers = (
{
layerId = "8CF30A56-F91F-4EB2-A618-934C961D83D1";
paths = (
{
closed = 1;
nodes = (
"302 420 LINE",
"269 421 LINE",
"163 116 LINE",
"60 421 LINE",
"17 421 LINE",
"145 56 LINE",
"180 56 LINE",
"285 354 LINE",
"389 56 LINE",
"424 56 LINE",
"552 421 LINE",
"510 421 LINE",
"406 115 LINE"
);
}
);
width = 569;
}
);
note = W;
unicode = 0057;
},
{
glyphname = X;
layers = (
{
layerId = "8CF30A56-F91F-4EB2-A618-934C961D83D1";
paths = (
{
closed = 1;
nodes = (
"274 421 LINE",
"167 274 LINE",
"61 421 LINE",
"11 421 LINE",
"143 243 LINE",
"4 56 LINE",
"54 56 LINE",
"167 211 LINE",
"280 56 LINE",
"330 56 LINE",
"191 242 LINE",
"324 421 LINE"
);
}
);
width = 334;
}
);
note = X;
unicode = 0058;
},
{
glyphname = Y;
layers = (
{
layerId = "8CF30A56-F91F-4EB2-A618-934C961D83D1";
paths = (
{
closed = 1;
nodes = (
"156 241 LINE",
"40 421 LINE",
"-9 421 LINE",
"134 204 LINE",
"134 56 LINE",
"176 56 LINE",
"176 203 LINE",
"319 421 LINE",
"271 421 LINE"
);
}
);
width = 328;
}
);
note = Y;
unicode = 0059;
},
{
glyphname = Z;
layers = (
{
layerId = "8CF30A56-F91F-4EB2-A618-934C961D83D1";
paths = (
{
closed = 1;
nodes = (
"281 421 LINE",
"23 421 LINE",
"23 385 LINE",
"232 385 LINE",
"23 87 LINE",
"23 56 LINE",
"286 56 LINE",
"286 91 LINE",
"72 91 LINE",
"281 390 LINE"
);
}
);
width = 309;
}
);
note = Z;
unicode = 005A;
},
{
glyphname = a;
layers = (
{
layerId = "8CF30A56-F91F-4EB2-A618-934C961D83D1";
paths = (
{
closed = 1;
nodes = (
"226 269 LINE",
"210 301 OFFCURVE",
"179 320 OFFCURVE",
"139 320 CURVE SMOOTH",
"71 320 OFFCURVE",
"25 265 OFFCURVE",
"25 185 CURVE SMOOTH",
"25 105 OFFCURVE",
"70 52 OFFCURVE",
"139 52 CURVE SMOOTH",
"179 52 OFFCURVE",
"211 70 OFFCURVE",
"226 103 CURVE",
"226 56 LINE",
"267 56 LINE",
"267 314 LINE",
"226 314 LINE"
);
},
{
closed = 1;
nodes = (
"226 123 OFFCURVE",
"198 87 OFFCURVE",
"147 87 CURVE SMOOTH",
"96 87 OFFCURVE",
"67 122 OFFCURVE",
"67 185 CURVE SMOOTH",
"67 248 OFFCURVE",
"96 285 OFFCURVE",
"147 285 CURVE SMOOTH",
"198 285 OFFCURVE",
"226 250 OFFCURVE",
"226 186 CURVE SMOOTH"
);
}
);
width = 292;
}
);
note = a;
unicode = 0061;
},
{
glyphname = b;
layers = (
{
layerId = "8CF30A56-F91F-4EB2-A618-934C961D83D1";
paths = (
{
closed = 1;
nodes = (
"283 267 OFFCURVE",
"237 320 OFFCURVE",
"168 320 CURVE SMOOTH",
"128 320 OFFCURVE",
"96 301 OFFCURVE",
"81 268 CURVE",
"81 433 LINE",
"40 433 LINE",
"40 56 LINE",
"81 56 LINE",
"81 104 LINE",
"97 71 OFFCURVE",
"128 52 OFFCURVE",
"168 52 CURVE SMOOTH",
"237 52 OFFCURVE",
"283 107 OFFCURVE",
"283 187 CURVE SMOOTH"
);
},
{
closed = 1;
nodes = (
"240 124 OFFCURVE",
"210 87 OFFCURVE",
"161 87 CURVE SMOOTH",
"110 87 OFFCURVE",
"81 123 OFFCURVE",
"81 186 CURVE SMOOTH",
"81 250 OFFCURVE",
"110 285 OFFCURVE",
"161 285 CURVE SMOOTH",
"211 285 OFFCURVE",
"240 249 OFFCURVE",
"240 187 CURVE SMOOTH"
);
}
);
width = 323;
}
);
note = b;
unicode = 0062;
},
{
glyphname = c;
layers = (
{
layerId = "8CF30A56-F91F-4EB2-A618-934C961D83D1";
paths = (
{
closed = 1;
nodes = (
"25 105 OFFCURVE",
"73 52 OFFCURVE",
"148 52 CURVE SMOOTH",
"183 52 OFFCURVE",
"219 65 OFFCURVE",
"241 86 CURVE",
"227 116 LINE",
"201 96 OFFCURVE",
"177 87 OFFCURVE",
"152 87 CURVE SMOOTH",
"99 87 OFFCURVE",
"68 123 OFFCURVE",
"68 185 CURVE SMOOTH",
"68 248 OFFCURVE",
"99 285 OFFCURVE",
"152 285 CURVE SMOOTH",
"177 285 OFFCURVE",
"201 276 OFFCURVE",
"227 255 CURVE",
"241 286 LINE",
"220 307 OFFCURVE",
"185 320 OFFCURVE",
"150 320 CURVE SMOOTH",
"74 320 OFFCURVE",
"25 265 OFFCURVE",
"25 185 CURVE SMOOTH"
);
}
);
width = 266;
}
);
note = c;
unicode = 0063;
},
{
glyphname = d;
layers = (
{
layerId = "8CF30A56-F91F-4EB2-A618-934C961D83D1";
paths = (
{
closed = 1;
nodes = (
"225 270 LINE",
"210 301 OFFCURVE",
"179 320 OFFCURVE",
"139 320 CURVE SMOOTH",
"70 320 OFFCURVE",
"25 267 OFFCURVE",
"25 187 CURVE SMOOTH",
"25 107 OFFCURVE",
"71 52 OFFCURVE",
"139 52 CURVE SMOOTH",
"179 52 OFFCURVE",
"211 70 OFFCURVE",
"226 103 CURVE",
"226 56 LINE",
"267 56 LINE",
"267 433 LINE",
"225 433 LINE"
);
},
{
closed = 1;
nodes = (
"226 123 OFFCURVE",
"198 87 OFFCURVE",
"147 87 CURVE SMOOTH",
"96 87 OFFCURVE",
"67 124 OFFCURVE",
"67 187 CURVE SMOOTH",
"67 249 OFFCURVE",
"96 285 OFFCURVE",
"147 285 CURVE SMOOTH",
"198 285 OFFCURVE",
"226 249 OFFCURVE",
"226 186 CURVE SMOOTH"
);
}
);
width = 292;
}
);
note = d;
unicode = 0064;
},
{
glyphname = e;
layers = (
{
layerId = "8CF30A56-F91F-4EB2-A618-934C961D83D1";
paths = (
{
closed = 1;
nodes = (
"255 194 LINE SMOOTH",
"255 272 OFFCURVE",
"214 320 OFFCURVE",
"146 320 CURVE SMOOTH",
"75 320 OFFCURVE",
"25 265 OFFCURVE",
"25 186 CURVE SMOOTH",
"25 103 OFFCURVE",
"73 52 OFFCURVE",
"154 52 CURVE SMOOTH",
"190 52 OFFCURVE",
"228 66 OFFCURVE",
"251 87 CURVE",
"237 117 LINE",
"212 97 OFFCURVE",
"184 87 OFFCURVE",
"154 87 CURVE SMOOTH",
"97 87 OFFCURVE",
"67 121 OFFCURVE",
"67 186 CURVE",
"255 186 LINE"
);
},
{
closed = 1;
nodes = (
"68 213 LINE",
"76 260 OFFCURVE",
"103 287 OFFCURVE",
"146 287 CURVE SMOOTH",
"189 287 OFFCURVE",
"214 262 OFFCURVE",
"218 213 CURVE"
);
}
);
width = 280;
}
);
note = e;
unicode = 0065;
},
{
glyphname = f;
layers = (
{
layerId = "8CF30A56-F91F-4EB2-A618-934C961D83D1";
paths = (
{
closed = 1;
nodes = (
"95 348 LINE SMOOTH",
"95 385 OFFCURVE",
"112 399 OFFCURVE",
"139 399 CURVE SMOOTH",
"147 399 OFFCURVE",
"156 398 OFFCURVE",
"165 395 CURVE",
"165 430 LINE",
"154 433 OFFCURVE",
"142 435 OFFCURVE",
"131 435 CURVE SMOOTH",
"82 435 OFFCURVE",
"54 407 OFFCURVE",
"54 353 CURVE SMOOTH",
"54 314 LINE",
"4 314 LINE",
"4 281 LINE",
"54 281 LINE",
"54 56 LINE",
"95 56 LINE",
"95 281 LINE",
"158 281 LINE",
"158 314 LINE",
"95 314 LINE"
);
}
);
width = 169;
}
);
note = f;
unicode = 0066;
},
{
glyphname = g;
layers = (
{
layerId = "8CF30A56-F91F-4EB2-A618-934C961D83D1";
paths = (
{
closed = 1;
nodes = (
"228 269 LINE",
"212 301 OFFCURVE",
"181 320 OFFCURVE",
"140 320 CURVE SMOOTH",
"71 320 OFFCURVE",
"25 268 OFFCURVE",
"25 192 CURVE SMOOTH",
"25 115 OFFCURVE",
"71 64 OFFCURVE",
"140 64 CURVE SMOOTH",
"181 64 OFFCURVE",
"212 83 OFFCURVE",
"228 115 CURVE",
"228 54 LINE SMOOTH",
"228 3 OFFCURVE",
"203 -24 OFFCURVE",
"153 -24 CURVE SMOOTH",
"118 -24 OFFCURVE",
"92 -16 OFFCURVE",
"59 2 CURVE",
"52 -32 LINE",
"80 -49 OFFCURVE",
"114 -58 OFFCURVE",
"153 -58 CURVE SMOOTH",
"229 -58 OFFCURVE",
"269 -18 OFFCURVE",
"269 58 CURVE SMOOTH",
"269 314 LINE",
"228 314 LINE"
);
},
{
closed = 1;
nodes = (
"228 134 OFFCURVE",
"198 98 OFFCURVE",
"148 98 CURVE SMOOTH",
"97 98 OFFCURVE",
"67 134 OFFCURVE",
"67 192 CURVE SMOOTH",
"67 250 OFFCURVE",
"97 285 OFFCURVE",
"148 285 CURVE SMOOTH",
"198 285 OFFCURVE",
"228 250 OFFCURVE",
"228 192 CURVE SMOOTH"
);
}
);
width = 294;
}
);
note = g;
unicode = 0067;
},
{
glyphname = h;
layers = (
{
layerId = "8CF30A56-F91F-4EB2-A618-934C961D83D1";
paths = (
{
closed = 1;
nodes = (
"261 218 LINE SMOOTH",
"261 286 OFFCURVE",
"230 320 OFFCURVE",
"168 320 CURVE SMOOTH",
"130 320 OFFCURVE",
"98 303 OFFCURVE",
"81 272 CURVE",
"81 433 LINE",
"40 433 LINE",
"40 56 LINE",
"81 56 LINE",
"81 203 LINE SMOOTH",
"81 253 OFFCURVE",
"113 285 OFFCURVE",
"160 285 CURVE SMOOTH",
"201 285 OFFCURVE",
"220 263 OFFCURVE",
"220 216 CURVE SMOOTH",
"220 56 LINE",
"261 56 LINE"
);
}
);
width = 301;
}
);
note = h;
unicode = 0068;
},
{
glyphname = i;
layers = (
{
layerId = "8CF30A56-F91F-4EB2-A618-934C961D83D1";
paths = (
{
closed = 1;
nodes = (
"86 376 LINE",
"86 423 LINE",
"36 423 LINE",
"36 376 LINE"
);
},
{
closed = 1;
nodes = (
"81 314 LINE",
"40 314 LINE",
"40 56 LINE",
"81 56 LINE"
);
}
);
width = 122;
}
);
note = i;
unicode = 0069;
},
{
glyphname = j;
layers = (
{
layerId = "8CF30A56-F91F-4EB2-A618-934C961D83D1";
paths = (
{
closed = 1;
nodes = (
"86 376 LINE",
"86 423 LINE",
"36 423 LINE",
"36 376 LINE"
);
},
{
closed = 1;
nodes = (
"-11 -21 OFFCURVE",
"-19 -19 OFFCURVE",
"-28 -17 CURVE",
"-28 -52 LINE",
"-17 -55 OFFCURVE",
"-6 -57 OFFCURVE",
"6 -57 CURVE SMOOTH",
"53 -57 OFFCURVE",
"81 -28 OFFCURVE",
"81 25 CURVE SMOOTH",
"81 314 LINE",
"40 314 LINE",
"40 30 LINE SMOOTH",
"40 -4 OFFCURVE",
"26 -21 OFFCURVE",
"-3 -21 CURVE SMOOTH"
);
}
);
width = 114;
}
);
note = j;
unicode = 006A;
},
{
glyphname = k;
layers = (
{
layerId = "8CF30A56-F91F-4EB2-A618-934C961D83D1";
paths = (
{
closed = 1;
nodes = (
"255 313 LINE",
"203 313 LINE",
"81 195 LINE",
"81 433 LINE",
"40 433 LINE",
"40 56 LINE",
"81 56 LINE",
"81 180 LINE",
"214 56 LINE",
"268 56 LINE",
"126 190 LINE"
);
}
);
width = 308;
}
);
note = k;
unicode = 006B;
},
{
glyphname = l;
layers = (
{
layerId = "8CF30A56-F91F-4EB2-A618-934C961D83D1";
paths = (
{
closed = 1;
nodes = (
"81 433 LINE",
"40 433 LINE",
"40 56 LINE",
"81 56 LINE"
);
}
);
width = 121;
}
);
note = l;
unicode = 006C;
},
{
glyphname = m;
layers = (
{
layerId = "8CF30A56-F91F-4EB2-A618-934C961D83D1";
paths = (
{
closed = 1;
nodes = (
"411 218 LINE SMOOTH",
"411 286 OFFCURVE",
"382 320 OFFCURVE",
"326 320 CURVE SMOOTH",
"287 320 OFFCURVE",
"255 300 OFFCURVE",
"240 270 CURVE",
"227 304 OFFCURVE",
"202 320 OFFCURVE",
"161 320 CURVE SMOOTH",
"123 320 OFFCURVE",
"94 301 OFFCURVE",
"79 268 CURVE",
"75 314 LINE",
"36 314 LINE",
"38 292 OFFCURVE",
"40 268 OFFCURVE",
"40 241 CURVE SMOOTH",
"40 56 LINE",
"81 56 LINE",
"81 203 LINE SMOOTH",
"81 254 OFFCURVE",
"108 285 OFFCURVE",
"152 285 CURVE SMOOTH",
"189 285 OFFCURVE",
"205 263 OFFCURVE",
"205 216 CURVE SMOOTH",
"205 56 LINE",
"247 56 LINE",
"247 203 LINE SMOOTH",
"247 254 OFFCURVE",
"273 285 OFFCURVE",
"316 285 CURVE SMOOTH",
"354 285 OFFCURVE",
"370 264 OFFCURVE",
"370 216 CURVE SMOOTH",
"370 56 LINE",
"411 56 LINE"
);
}
);
width = 447;
}
);
note = m;
unicode = 006D;
},
{
glyphname = n;
layers = (
{
layerId = "8CF30A56-F91F-4EB2-A618-934C961D83D1";
paths = (
{
closed = 1;
nodes = (
"261 218 LINE SMOOTH",
"261 286 OFFCURVE",
"230 320 OFFCURVE",
"168 320 CURVE SMOOTH",
"128 320 OFFCURVE",
"95 301 OFFCURVE",
"79 267 CURVE",
"75 314 LINE",
"36 314 LINE",
"38 292 OFFCURVE",
"40 268 OFFCURVE",
"40 241 CURVE SMOOTH",
"40 56 LINE",
"81 56 LINE",
"81 203 LINE SMOOTH",
"81 253 OFFCURVE",
"113 285 OFFCURVE",
"160 285 CURVE SMOOTH",
"201 285 OFFCURVE",
"220 263 OFFCURVE",
"220 216 CURVE SMOOTH",
"220 56 LINE",
"261 56 LINE"
);
}
);
width = 297;
}
);
note = n;
unicode = 006E;
},
{
glyphname = o;
layers = (
{
layerId = "8CF30A56-F91F-4EB2-A618-934C961D83D1";
paths = (
{
closed = 1;
nodes = (
"25 105 OFFCURVE",
"73 52 OFFCURVE",
"146 52 CURVE SMOOTH",
"220 52 OFFCURVE",
"268 105 OFFCURVE",
"268 186 CURVE SMOOTH",
"268 267 OFFCURVE",
"220 320 OFFCURVE",
"146 320 CURVE SMOOTH",
"73 320 OFFCURVE",
"25 267 OFFCURVE",
"25 186 CURVE SMOOTH"
);
},
{
closed = 1;
nodes = (
"226 121 OFFCURVE",
"198 87 OFFCURVE",
"146 87 CURVE SMOOTH",
"95 87 OFFCURVE",
"67 121 OFFCURVE",
"67 186 CURVE SMOOTH",
"67 249 OFFCURVE",
"96 285 OFFCURVE",
"146 285 CURVE SMOOTH",
"196 285 OFFCURVE",
"226 249 OFFCURVE",
"226 186 CURVE SMOOTH"
);
}
);
width = 293;
}
);
note = o;
unicode = 006F;
},
{
glyphname = p;
layers = (
{
layerId = "8CF30A56-F91F-4EB2-A618-934C961D83D1";
paths = (
{
closed = 1;
nodes = (
"283 265 OFFCURVE",
"237 320 OFFCURVE",
"168 320 CURVE SMOOTH",
"126 320 OFFCURVE",
"94 299 OFFCURVE",
"79 264 CURVE",
"75 314 LINE",
"36 314 LINE",
"38 292 OFFCURVE",
"40 268 OFFCURVE",
"40 241 CURVE SMOOTH",
"40 -55 LINE",
"81 -55 LINE",
"81 104 LINE",
"97 71 OFFCURVE",
"128 52 OFFCURVE",
"168 52 CURVE SMOOTH",
"237 52 OFFCURVE",
"283 105 OFFCURVE",
"283 185 CURVE SMOOTH"
);
},
{
closed = 1;
nodes = (
"240 122 OFFCURVE",
"211 87 OFFCURVE",
"161 87 CURVE SMOOTH",
"110 87 OFFCURVE",
"81 123 OFFCURVE",
"81 186 CURVE SMOOTH",
"81 250 OFFCURVE",
"110 285 OFFCURVE",
"161 285 CURVE SMOOTH",
"210 285 OFFCURVE",
"240 248 OFFCURVE",
"240 185 CURVE SMOOTH"
);
}
);
width = 319;
}
);
note = p;
unicode = 0070;
},
{
glyphname = q;
layers = (
{
layerId = "8CF30A56-F91F-4EB2-A618-934C961D83D1";
paths = (
{
closed = 1;
nodes = (
"227 265 LINE",
"212 300 OFFCURVE",
"180 320 OFFCURVE",
"139 320 CURVE SMOOTH",
"71 320 OFFCURVE",
"25 265 OFFCURVE",
"25 185 CURVE SMOOTH",
"25 105 OFFCURVE",
"70 52 OFFCURVE",
"139 52 CURVE SMOOTH",
"179 52 OFFCURVE",
"210 70 OFFCURVE",
"225 102 CURVE",
"225 -55 LINE",
"267 -55 LINE",
"267 241 LINE SMOOTH",
"267 268 OFFCURVE",
"268 292 OFFCURVE",
"271 314 CURVE",
"232 314 LINE"
);
},
{
closed = 1;
nodes = (
"226 123 OFFCURVE",
"198 87 OFFCURVE",
"147 87 CURVE SMOOTH",
"96 87 OFFCURVE",
"67 122 OFFCURVE",
"67 185 CURVE SMOOTH",
"67 248 OFFCURVE",
"96 285 OFFCURVE",
"147 285 CURVE SMOOTH",
"198 285 OFFCURVE",
"226 250 OFFCURVE",
"226 186 CURVE SMOOTH"
);
}
);
width = 296;
}
);
note = q;
unicode = 0071;
},
{
glyphname = r;
layers = (
{
layerId = "8CF30A56-F91F-4EB2-A618-934C961D83D1";
paths = (
{
closed = 1;
nodes = (
"183 317 LINE",
"176 319 OFFCURVE",
"168 320 OFFCURVE",
"160 320 CURVE SMOOTH",
"123 320 OFFCURVE",
"92 301 OFFCURVE",
"79 266 CURVE",
"75 314 LINE",
"36 314 LINE",
"38 292 OFFCURVE",
"40 268 OFFCURVE",
"40 241 CURVE SMOOTH",
"40 56 LINE",
"81 56 LINE",
"81 203 LINE SMOOTH",
"81 225 OFFCURVE",
"88 244 OFFCURVE",
"99 259 CURVE",
"112 275 OFFCURVE",
"130 283 OFFCURVE",
"155 283 CURVE SMOOTH",
"165 283 OFFCURVE",
"175 281 OFFCURVE",
"182 279 CURVE"
);
}
);
width = 219;
}
);
note = r;
unicode = 0072;
},
{
glyphname = s;
layers = (
{
layerId = "8CF30A56-F91F-4EB2-A618-934C961D83D1";
paths = (
{
closed = 1;
nodes = (
"24 86 LINE",
"49 64 OFFCURVE",
"83 52 OFFCURVE",
"127 52 CURVE SMOOTH",
"189 52 OFFCURVE",
"228 81 OFFCURVE",
"228 126 CURVE SMOOTH",
"228 162 OFFCURVE",
"205 184 OFFCURVE",
"157 196 CURVE SMOOTH",
"114 207 LINE",
"86 213 OFFCURVE",
"74 225 OFFCURVE",
"74 246 CURVE SMOOTH",
"74 271 OFFCURVE",
"95 286 OFFCURVE",
"132 286 CURVE SMOOTH",
"159 286 OFFCURVE",
"185 276 OFFCURVE",
"209 256 CURVE",
"223 286 LINE",
"201 308 OFFCURVE",
"168 320 OFFCURVE",
"132 320 CURVE SMOOTH",
"72 320 OFFCURVE",
"33 288 OFFCURVE",
"33 243 CURVE SMOOTH",
"33 209 OFFCURVE",
"57 184 OFFCURVE",
"100 174 CURVE SMOOTH",
"144 164 LINE SMOOTH",
"175 156 OFFCURVE",
"188 145 OFFCURVE",
"188 125 CURVE SMOOTH",
"188 100 OFFCURVE",
"167 86 OFFCURVE",
"129 86 CURVE SMOOTH",
"93 86 OFFCURVE",
"66 94 OFFCURVE",
"38 116 CURVE"
);
}
);
width = 252;
}
);
note = s;
unicode = 0073;
},
{
glyphname = t;
layers = (
{
layerId = "8CF30A56-F91F-4EB2-A618-934C961D83D1";
paths = (
{
closed = 1;
nodes = (
"169 314 LINE",
"95 314 LINE",
"95 394 LINE",
"54 380 LINE",
"54 314 LINE",
"4 314 LINE",
"4 281 LINE",
"54 281 LINE",
"54 134 LINE SMOOTH",
"54 81 OFFCURVE",
"83 52 OFFCURVE",
"132 52 CURVE SMOOTH",
"145 52 OFFCURVE",
"157 54 OFFCURVE",
"168 58 CURVE",
"168 93 LINE",
"159 90 OFFCURVE",
"150 88 OFFCURVE",
"140 88 CURVE SMOOTH",
"112 88 OFFCURVE",
"95 102 OFFCURVE",
"95 140 CURVE SMOOTH",
"95 281 LINE",
"169 281 LINE"
);
}
);
width = 173;
}
);
note = t;
unicode = 0074;
},
{
glyphname = u;
layers = (
{
layerId = "8CF30A56-F91F-4EB2-A618-934C961D83D1";
paths = (
{
closed = 1;
nodes = (
"214 168 LINE SMOOTH",
"214 119 OFFCURVE",
"183 87 OFFCURVE",
"138 87 CURVE SMOOTH",
"99 87 OFFCURVE",
"80 108 OFFCURVE",
"80 155 CURVE SMOOTH",
"80 314 LINE",
"38 314 LINE",
"38 154 LINE SMOOTH",
"38 87 OFFCURVE",
"70 52 OFFCURVE",
"131 52 CURVE SMOOTH",
"168 52 OFFCURVE",
"199 69 OFFCURVE",
"215 101 CURVE",
"215 56 LINE",
"255 56 LINE",
"255 314 LINE",
"214 314 LINE"
);
}
);
width = 293;
}
);
note = u;
unicode = 0075;
},
{
glyphname = v;
layers = (
{
layerId = "8CF30A56-F91F-4EB2-A618-934C961D83D1";
paths = (
{
closed = 1;
nodes = (
"50 313 LINE",
"6 313 LINE",
"116 56 LINE",
"155 56 LINE",
"266 313 LINE",
"225 313 LINE",
"137 101 LINE"
);
}
);
width = 272;
}
);
note = v;
unicode = 0076;
},
{
glyphname = w;
layers = (
{
layerId = "8CF30A56-F91F-4EB2-A618-934C961D83D1";
paths = (
{
closed = 1;
nodes = (
"242 314 LINE",
"205 314 LINE",
"130 106 LINE",
"57 314 LINE",
"14 314 LINE",
"109 56 LINE",
"149 56 LINE",
"222 257 LINE",
"296 56 LINE",
"336 56 LINE",
"431 314 LINE",
"390 314 LINE",
"316 105 LINE"
);
}
);
width = 445;
}
);
note = w;
unicode = 0077;
},
{
glyphname = x;
layers = (
{
layerId = "8CF30A56-F91F-4EB2-A618-934C961D83D1";
paths = (
{
closed = 1;
nodes = (
"211 314 LINE",
"137 219 LINE",
"62 314 LINE",
"12 314 LINE",
"113 189 LINE",
"6 56 LINE",
"56 56 LINE",
"137 157 LINE",
"218 56 LINE",
"268 56 LINE",
"162 189 LINE",
"262 314 LINE"
);
}
);
width = 274;
}
);
note = x;
unicode = 0078;
},
{
glyphname = y;
layers = (
{
layerId = "8CF30A56-F91F-4EB2-A618-934C961D83D1";
paths = (
{
closed = 1;
nodes = (
"137 101 LINE",
"50 314 LINE",
"6 314 LINE",
"115 59 LINE",
"105 36 LINE SMOOTH",
"97 17 OFFCURVE",
"86 3 OFFCURVE",
"74 -6 CURVE",
"61 -15 OFFCURVE",
"43 -22 OFFCURVE",
"19 -28 CURVE",
"28 -60 LINE",
"83 -50 OFFCURVE",
"121 -26 OFFCURVE",
"146 32 CURVE SMOOTH",
"266 314 LINE",
"225 314 LINE"
);
}
);
width = 272;
}
);
note = y;
unicode = 0079;
},
{
glyphname = z;
layers = (
{
layerId = "8CF30A56-F91F-4EB2-A618-934C961D83D1";
paths = (
{
closed = 1;
nodes = (
"238 314 LINE",
"31 314 LINE",
"31 281 LINE",
"188 281 LINE",
"26 85 LINE",
"26 56 LINE",
"243 56 LINE",
"243 89 LINE",
"77 89 LINE",
"238 283 LINE"
);
}
);
width = 269;
}
);
note = z;
unicode = 007A;
},
{
glyphname = uniF941;
lastChange = "2020-11-21 21:16:37 +0000";
layers = (
{
layerId = "8CF30A56-F91F-4EB2-A618-934C961D83D1";
paths = (
{
closed = 1;
nodes = (
"544 128 LINE",
"544 368 LINE SMOOTH",
"544 376.83 OFFCURVE",
"536.83 384 OFFCURVE",
"528 384 CURVE SMOOTH",
"16 384 LINE SMOOTH",
"7.17 384 OFFCURVE",
"0 376.83 OFFCURVE",
"0 368 CURVE SMOOTH",
"0 80 LINE SMOOTH",
"0 71.17 OFFCURVE",
"7.17 64 OFFCURVE",
"16 64 CURVE SMOOTH",
"65.61 64 LINE",
"73.44 118.21 OFFCURVE",
"119.61 160 OFFCURVE",
"176 160 CURVE SMOOTH",
"232.39 160 OFFCURVE",
"278.56 118.21 OFFCURVE",
"286.39 64 CURVE",
"624 64 LINE SMOOTH",
"632.83 64 OFFCURVE",
"640 71.17 OFFCURVE",
"640 80 CURVE SMOOTH",
"640 112 LINE SMOOTH",
"640 120.83 OFFCURVE",
"632.83 128 OFFCURVE",
"624 128 CURVE SMOOTH"
);
},
{
closed = 1;
nodes = (
"96 204.32 LINE",
"86.55 199.56 OFFCURVE",
"72.21 190.29 OFFCURVE",
"64 183.61 CURVE",
"64 312 LINE SMOOTH",
"64 316.42 OFFCURVE",
"67.58 320 OFFCURVE",
"72 320 CURVE SMOOTH",
"88 320 LINE SMOOTH",
"92.42 320 OFFCURVE",
"96 316.42 OFFCURVE",
"96 312 CURVE SMOOTH"
);
},
{
closed = 1;
nodes = (
"192 222.86 LINE",
"186.69 223.35 OFFCURVE",
"181.43 224 OFFCURVE",
"176 224 CURVE SMOOTH",
"170.57 224 OFFCURVE",
"165.31 223.35 OFFCURVE",
"160 222.86 CURVE",
"160 312 LINE SMOOTH",
"160 316.42 OFFCURVE",
"163.58 320 OFFCURVE",
"168 320 CURVE SMOOTH",
"184 320 LINE SMOOTH",
"188.42 320 OFFCURVE",
"192 316.42 OFFCURVE",
"192 312 CURVE SMOOTH"
);
},
{
closed = 1;
nodes = (
"288 183.61 LINE",
"279.79 190.29 OFFCURVE",
"265.45 199.56 OFFCURVE",
"256 204.32 CURVE",
"256 312 LINE SMOOTH",
"256 316.42 OFFCURVE",
"259.58 320 OFFCURVE",
"264 320 CURVE SMOOTH",
"280 320 LINE SMOOTH",
"284.42 320 OFFCURVE",
"288 316.42 OFFCURVE",
"288 312 CURVE SMOOTH"
);
},
{
closed = 1;
nodes = (
"384 128 LINE",
"352 128 LINE",
"352 312 LINE SMOOTH",
"352 316.42 OFFCURVE",
"355.58 320 OFFCURVE",
"360 320 CURVE SMOOTH",
"376 320 LINE SMOOTH",
"380.42 320 OFFCURVE",
"384 316.42 OFFCURVE",
"384 312 CURVE SMOOTH"
);
},
{
closed = 1;
nodes = (
"480 128 LINE",
"448 128 LINE",
"448 312 LINE SMOOTH",
"448 316.42 OFFCURVE",
"451.58 320 OFFCURVE",
"456 320 CURVE SMOOTH",
"472 320 LINE SMOOTH",
"476.42 320 OFFCURVE",
"480 316.42 OFFCURVE",
"480 312 CURVE SMOOTH"
);
},
{
closed = 1;
nodes = (
"131.84 128 OFFCURVE",
"96 92.16 OFFCURVE",
"96 48 CURVE SMOOTH",
"96 3.84 OFFCURVE",
"131.84 -32 OFFCURVE",
"176 -32 CURVE SMOOTH",
"220.16 -32 OFFCURVE",
"256 3.84 OFFCURVE",
"256 48 CURVE SMOOTH",
"256 92.16 OFFCURVE",
"220.16 128 OFFCURVE",
"176 128 CURVE SMOOTH"
);
},
{
closed = 1;
nodes = (
"158.34 16 OFFCURVE",
"144 30.34 OFFCURVE",
"144 48 CURVE SMOOTH",
"144 65.66 OFFCURVE",
"158.34 80 OFFCURVE",
"176 80 CURVE SMOOTH",
"193.66 80 OFFCURVE",
"208 65.66 OFFCURVE",
"208 48 CURVE SMOOTH",
"208 30.34 OFFCURVE",
"193.66 16 OFFCURVE",
"176 16 CURVE SMOOTH"
);
}
);
width = 640;
}
);
note = trailer;
unicode = F941;
},
{
glyphname = zero;
layers = (
{
layerId = "8CF30A56-F91F-4EB2-A618-934C961D83D1";
paths = (
{
closed = 1;
nodes = (
"26 116 OFFCURVE",
"70 52 OFFCURVE",
"154 52 CURVE SMOOTH",
"237 52 OFFCURVE",
"281 116 OFFCURVE",
"281 239 CURVE SMOOTH",
"281 360 OFFCURVE",
"237 425 OFFCURVE",
"154 425 CURVE SMOOTH",
"70 425 OFFCURVE",
"26 361 OFFCURVE",
"26 238 CURVE SMOOTH"
);
},
{
closed = 1;
nodes = (
"239 135 OFFCURVE",
"211 87 OFFCURVE",
"154 87 CURVE SMOOTH",
"96 87 OFFCURVE",
"69 136 OFFCURVE",
"69 239 CURVE SMOOTH",
"69 342 OFFCURVE",
"96 389 OFFCURVE",
"154 389 CURVE SMOOTH",
"212 389 OFFCURVE",
"239 342 OFFCURVE",
"239 239 CURVE SMOOTH"
);
}
);
width = 307;
}
);
note = zero;
unicode = 0030;
},
{
glyphname = one;
layers = (
{
layerId = "8CF30A56-F91F-4EB2-A618-934C961D83D1";
paths = (
{
closed = 1;
nodes = (
"164 421 LINE",
"71 361 LINE",
"71 321 LINE",
"146 368 LINE",
"146 91 LINE",
"66 91 LINE",
"66 56 LINE",
"269 56 LINE",
"269 91 LINE",
"188 91 LINE",
"188 421 LINE"
);
}
);
width = 335;
}
);
note = one;
unicode = 0031;
},
{
glyphname = two;
layers = (
{
layerId = "8CF30A56-F91F-4EB2-A618-934C961D83D1";
paths = (
{
closed = 1;
nodes = (
"201 204 LINE SMOOTH",
"244 251 OFFCURVE",
"262 287 OFFCURVE",
"262 329 CURVE SMOOTH",
"262 388 OFFCURVE",
"220 425 OFFCURVE",
"153 425 CURVE SMOOTH",
"109 425 OFFCURVE",
"61 407 OFFCURVE",
"33 380 CURVE",
"49 347 LINE",
"83 375 OFFCURVE",
"117 389 OFFCURVE",
"152 389 CURVE SMOOTH",
"195 389 OFFCURVE",
"219 367 OFFCURVE",
"219 327 CURVE SMOOTH",
"219 296 OFFCURVE",
"204 267 OFFCURVE",
"170 229 CURVE SMOOTH",
"42 88 LINE",
"42 56 LINE",
"277 56 LINE",
"277 91 LINE",
"97 91 LINE"
);
}
);
width = 310;
}
);
note = two;
unicode = 0032;
},
{
glyphname = three;
layers = (
{
layerId = "8CF30A56-F91F-4EB2-A618-934C961D83D1";
paths = (
{
closed = 1;
nodes = (
"270 200 OFFCURVE",
"247 231 OFFCURVE",
"204 243 CURVE",
"240 257 OFFCURVE",
"262 290 OFFCURVE",
"262 332 CURVE SMOOTH",
"262 389 OFFCURVE",
"219 425 OFFCURVE",
"154 425 CURVE SMOOTH",
"107 425 OFFCURVE",
"62 408 OFFCURVE",
"33 380 CURVE",
"49 347 LINE",
"83 375 OFFCURVE",
"117 389 OFFCURVE",
"152 389 CURVE SMOOTH",
"195 389 OFFCURVE",
"220 367 OFFCURVE",
"220 328 CURVE SMOOTH",
"220 283 OFFCURVE",
"190 259 OFFCURVE",
"136 259 CURVE SMOOTH",
"102 259 LINE",
"102 223 LINE",
"144 223 LINE SMOOTH",
"200 223 OFFCURVE",
"228 201 OFFCURVE",
"228 156 CURVE SMOOTH",
"228 111 OFFCURVE",
"201 88 OFFCURVE",
"149 88 CURVE SMOOTH",
"113 88 OFFCURVE",
"77 102 OFFCURVE",
"44 130 CURVE",
"27 97 LINE",
"57 69 OFFCURVE",
"103 52 OFFCURVE",
"150 52 CURVE SMOOTH",
"224 52 OFFCURVE",
"270 91 OFFCURVE",
"270 155 CURVE SMOOTH"
);
}
);
width = 297;
}
);
note = three;
unicode = 0033;
},
{
glyphname = four;
layers = (
{
layerId = "8CF30A56-F91F-4EB2-A618-934C961D83D1";
paths = (
{
closed = 1;
nodes = (
"235 421 LINE",
"201 421 LINE",
"25 167 LINE",
"25 135 LINE",
"193 135 LINE",
"193 56 LINE",
"235 56 LINE",
"235 135 LINE",
"290 135 LINE",
"290 170 LINE",
"235 170 LINE"
);
},
{
closed = 1;
nodes = (
"193 170 LINE",
"69 170 LINE",
"193 349 LINE"
);
}
);
width = 315;
}
);
note = four;
unicode = 0034;
},
{
glyphname = five;
layers = (
{
layerId = "8CF30A56-F91F-4EB2-A618-934C961D83D1";
paths = (
{
closed = 1;
nodes = (
"283 238 OFFCURVE",
"238 285 OFFCURVE",
"169 285 CURVE SMOOTH",
"138 285 OFFCURVE",
"112 275 OFFCURVE",
"92 256 CURVE",
"92 386 LINE",
"268 386 LINE",
"268 421 LINE",
"50 421 LINE",
"50 207 LINE",
"79 207 LINE",
"100 235 OFFCURVE",
"127 250 OFFCURVE",
"162 250 CURVE SMOOTH",
"210 250 OFFCURVE",
"241 217 OFFCURVE",
"241 169 CURVE SMOOTH",
"241 119 OFFCURVE",
"210 88 OFFCURVE",
"159 88 CURVE SMOOTH",
"124 88 OFFCURVE",
"89 102 OFFCURVE",
"55 130 CURVE",
"39 97 LINE",
"69 69 OFFCURVE",
"115 52 OFFCURVE",
"159 52 CURVE SMOOTH",
"234 52 OFFCURVE",
"283 100 OFFCURVE",
"283 169 CURVE SMOOTH"
);
}
);
width = 322;
}
);
note = five;
unicode = 0035;
},
{
glyphname = six;
layers = (
{
layerId = "8CF30A56-F91F-4EB2-A618-934C961D83D1";
paths = (
{
closed = 1;
nodes = (
"283 237 OFFCURVE",
"236 285 OFFCURVE",
"169 285 CURVE SMOOTH",
"123 285 OFFCURVE",
"86 261 OFFCURVE",
"70 222 CURVE",
"70 230 LINE SMOOTH",
"70 330 OFFCURVE",
"106 389 OFFCURVE",
"169 389 CURVE SMOOTH",
"202 389 OFFCURVE",
"232 376 OFFCURVE",
"266 347 CURVE",
"282 380 LINE",
"252 408 OFFCURVE",
"210 425 OFFCURVE",
"168 425 CURVE SMOOTH",
"80 425 OFFCURVE",
"28 352 OFFCURVE",
"28 229 CURVE SMOOTH",
"28 116 OFFCURVE",
"77 52 OFFCURVE",
"165 52 CURVE SMOOTH",
"233 52 OFFCURVE",
"283 102 OFFCURVE",
"283 169 CURVE SMOOTH"
);
},
{
closed = 1;
nodes = (
"241 119 OFFCURVE",
"210 87 OFFCURVE",
"163 87 CURVE SMOOTH",
"115 87 OFFCURVE",
"82 120 OFFCURVE",
"82 169 CURVE SMOOTH",
"82 216 OFFCURVE",
"115 250 OFFCURVE",
"163 250 CURVE SMOOTH",
"209 250 OFFCURVE",
"241 217 OFFCURVE",
"241 169 CURVE SMOOTH"
);
}
);
width = 311;
}
);
note = six;
unicode = 0036;
},
{
glyphname = seven;
layers = (
{
layerId = "8CF30A56-F91F-4EB2-A618-934C961D83D1";
paths = (
{
closed = 1;
nodes = (
"228 385 LINE",
"58 56 LINE",
"103 56 LINE",
"274 389 LINE",
"274 421 LINE",
"33 421 LINE",
"33 385 LINE"
);
}
);
width = 307;
}
);
note = seven;
unicode = 0037;
},
{
glyphname = eight;
layers = (
{
layerId = "8CF30A56-F91F-4EB2-A618-934C961D83D1";
paths = (
{
closed = 1;
nodes = (
"284 197 OFFCURVE",
"257 231 OFFCURVE",
"209 243 CURVE",
"251 256 OFFCURVE",
"276 287 OFFCURVE",
"276 328 CURVE SMOOTH",
"276 386 OFFCURVE",
"226 425 OFFCURVE",
"154 425 CURVE SMOOTH",
"81 425 OFFCURVE",
"31 386 OFFCURVE",
"31 328 CURVE SMOOTH",
"31 287 OFFCURVE",
"55 256 OFFCURVE",
"99 243 CURVE",
"52 231 OFFCURVE",
"23 197 OFFCURVE",
"23 153 CURVE SMOOTH",
"23 91 OFFCURVE",
"74 52 OFFCURVE",
"154 52 CURVE SMOOTH",
"233 52 OFFCURVE",
"284 91 OFFCURVE",
"284 153 CURVE SMOOTH"
);
},
{
closed = 1;
nodes = (
"104 261 OFFCURVE",
"73 286 OFFCURVE",
"73 325 CURVE SMOOTH",
"73 365 OFFCURVE",
"103 390 OFFCURVE",
"154 390 CURVE SMOOTH",
"204 390 OFFCURVE",
"234 365 OFFCURVE",
"234 325 CURVE SMOOTH",
"234 286 OFFCURVE",
"203 261 OFFCURVE",
"154 255 CURVE"
);
},
{
closed = 1;
nodes = (
"243 111 OFFCURVE",
"211 87 OFFCURVE",
"154 87 CURVE SMOOTH",
"96 87 OFFCURVE",
"65 111 OFFCURVE",
"65 155 CURVE SMOOTH",
"65 196 OFFCURVE",
"100 220 OFFCURVE",
"154 226 CURVE",
"207 220 OFFCURVE",
"243 196 OFFCURVE",
"243 155 CURVE SMOOTH"
);
}
);
width = 307;
}
);
note = eight;
unicode = 0038;
},
{
glyphname = nine;
layers = (
{
layerId = "8CF30A56-F91F-4EB2-A618-934C961D83D1";
paths = (
{
closed = 1;
nodes = (
"280 361 OFFCURVE",
"230 425 OFFCURVE",
"142 425 CURVE SMOOTH",
"75 425 OFFCURVE",
"25 375 OFFCURVE",
"25 307 CURVE SMOOTH",
"25 239 OFFCURVE",
"72 192 OFFCURVE",
"138 192 CURVE SMOOTH",
"184 192 OFFCURVE",
"222 215 OFFCURVE",
"238 254 CURVE",
"238 247 LINE SMOOTH",
"238 146 OFFCURVE",
"202 87 OFFCURVE",
"139 87 CURVE SMOOTH",
"106 87 OFFCURVE",
"76 100 OFFCURVE",
"41 129 CURVE",
"25 97 LINE",
"56 68 OFFCURVE",
"98 52 OFFCURVE",
"139 52 CURVE SMOOTH",
"228 52 OFFCURVE",
"280 124 OFFCURVE",
"280 247 CURVE SMOOTH"
);
},
{
closed = 1;
nodes = (
"226 260 OFFCURVE",
"193 227 OFFCURVE",
"145 227 CURVE SMOOTH",
"98 227 OFFCURVE",
"67 259 OFFCURVE",
"67 308 CURVE SMOOTH",
"67 357 OFFCURVE",
"98 389 OFFCURVE",
"144 389 CURVE SMOOTH",
"193 389 OFFCURVE",
"226 357 OFFCURVE",
"226 308 CURVE SMOOTH"
);
}
);
width = 305;
}
);
note = nine;
unicode = 0039;
},
{
glyphname = period;
layers = (
{
layerId = "8CF30A56-F91F-4EB2-A618-934C961D83D1";
paths = (
{
closed = 1;
nodes = (
"86 56 LINE",
"86 109 LINE",
"33 109 LINE",
"33 56 LINE"
);
}
);
width = 119;
}
);
note = period;
unicode = 002E;
},
{
glyphname = question;
layers = (
{
layerId = "8CF30A56-F91F-4EB2-A618-934C961D83D1";
paths = (
{
closed = 1;
nodes = (
"122.2 448 OFFCURVE",
"70.5 415.3 OFFCURVE",
"29.91 356.97 CURVE SMOOTH",
"22.55 346.39 OFFCURVE",
"24.82 331.88 OFFCURVE",
"35.09 324.1 CURVE SMOOTH",
"78.23 291.39 LINE SMOOTH",
"88.6 283.53 OFFCURVE",
"103.36 285.36 OFFCURVE",
"111.48 295.54 CURVE SMOOTH",
"136.53 326.92 OFFCURVE",
"155.11 344.99 OFFCURVE",
"194.24 344.99 CURVE SMOOTH",
"225 344.99 OFFCURVE",
"263.06 325.19 OFFCURVE",
"263.06 295.36 CURVE SMOOTH",
"263.06 272.81 OFFCURVE",
"244.44 261.23 OFFCURVE",
"214.07 244.2 CURVE SMOOTH",
"178.65 224.34 OFFCURVE",
"131.77 199.62 OFFCURVE",
"131.77 137.79 CURVE SMOOTH",
"131.77 128 LINE SMOOTH",
"131.77 114.75 OFFCURVE",
"142.52 104 OFFCURVE",
"155.77 104 CURVE SMOOTH",
"228.24 104 LINE SMOOTH",
"241.49 104 OFFCURVE",
"252.24 114.75 OFFCURVE",
"252.24 128 CURVE SMOOTH",
"252.24 133.77 LINE SMOOTH",
"252.24 176.63 OFFCURVE",
"377.51 178.41 OFFCURVE",
"377.51 294.4 CURVE SMOOTH",
"377.51 381.74 OFFCURVE",
"286.91 448 OFFCURVE",
"202.03 448 CURVE SMOOTH"
);
},
{
closed = 1;
nodes = (
"153.81 74.54 OFFCURVE",
"122.74 43.46 OFFCURVE",
"122.74 5.27 CURVE SMOOTH",
"122.74 -32.92 OFFCURVE",
"153.82 -64 OFFCURVE",
"192.01 -64 CURVE SMOOTH",
"230.21 -64 OFFCURVE",
"261.28 -32.92 OFFCURVE",
"261.28 5.27 CURVE SMOOTH",
"261.28 43.47 OFFCURVE",
"230.2 74.54 OFFCURVE",
"192.01 74.54 CURVE SMOOTH"
);
}
);
width = 384;
}
);
note = question;
unicode = 003F;
},
{
glyphname = asterisk;
layers = (
{
layerId = "8CF30A56-F91F-4EB2-A618-934C961D83D1";
paths = (
{
closed = 1;
nodes = (
"336 192 LINE",
"478.21 270.09 LINE SMOOTH",
"490 276.57 OFFCURVE",
"494.17 291.47 OFFCURVE",
"487.44 303.13 CURVE SMOOTH",
"467.96 336.87 LINE SMOOTH",
"461.23 348.52 OFFCURVE",
"446.24 352.37 OFFCURVE",
"434.73 345.39 CURVE SMOOTH",
"295.99 261.28 LINE",
"299.46 423.48 LINE SMOOTH",
"299.75 436.93 OFFCURVE",
"288.92 447.99 OFFCURVE",
"275.47 447.99 CURVE SMOOTH",
"236.51 447.99 LINE SMOOTH",
"223.05 447.99 OFFCURVE",
"212.23 436.93 OFFCURVE",
"212.52 423.48 CURVE SMOOTH",
"215.99 261.28 LINE",
"77.25 345.39 LINE SMOOTH",
"65.74 352.37 OFFCURVE",
"50.75 348.52 OFFCURVE",
"44.02 336.87 CURVE SMOOTH",
"24.54 303.13 LINE SMOOTH",
"17.81 291.48 OFFCURVE",
"21.98 276.57 OFFCURVE",
"33.77 270.09 CURVE SMOOTH",
"175.98 192 LINE",
"33.77 113.91 LINE SMOOTH",
"21.98 107.43 OFFCURVE",
"17.81 92.53 OFFCURVE",
"24.54 80.87 CURVE SMOOTH",
"44.02 47.13 LINE SMOOTH",
"50.75 35.48 OFFCURVE",
"65.74 31.63 OFFCURVE",
"77.25 38.61 CURVE SMOOTH",
"215.99 122.72 LINE",
"212.52 -39.48 LINE SMOOTH",
"212.23 -52.93 OFFCURVE",
"223.06 -63.99 OFFCURVE",
"236.51 -63.99 CURVE SMOOTH",
"275.47 -63.99 LINE SMOOTH",
"288.93 -63.99 OFFCURVE",
"299.75 -52.93 OFFCURVE",
"299.46 -39.48 CURVE SMOOTH",
"295.98 122.72 LINE",
"434.72 38.61 LINE SMOOTH",
"446.23 31.63 OFFCURVE",
"461.22 35.48 OFFCURVE",
"467.95 47.13 CURVE SMOOTH",
"487.43 80.87 LINE SMOOTH",
"494.16 92.52 OFFCURVE",
"489.99 107.43 OFFCURVE",
"478.2 113.91 CURVE SMOOTH"
);
}
);
width = 512;
}
);
note = asterisk;
unicode = 002A;
},
{
glyphname = slash;
layers = (
{
layerId = "8CF30A56-F91F-4EB2-A618-934C961D83D1";
paths = (
{
closed = 1;
nodes = (
"594.53 -60.63 LINE SMOOTH",
"601.51 -66.05 OFFCURVE",
"611.57 -64.8 OFFCURVE",
"616.99 -57.82 CURVE SMOOTH",
"636.63 -32.55 LINE SMOOTH",
"642.05 -25.57 OFFCURVE",
"640.79 -15.52 OFFCURVE",
"633.82 -10.1 CURVE SMOOTH",
"45.47 444.63 LINE SMOOTH",
"38.49 450.06 OFFCURVE",
"28.43 448.8 OFFCURVE",
"23.01 441.82 CURVE SMOOTH",
"3.37 416.55 LINE SMOOTH",
"-2.05 409.57 OFFCURVE",
"-0.79 399.52 OFFCURVE",
"6.18 394.1 CURVE SMOOTH"
);
}
);
width = 640;
}
);
note = slash;
unicode = 002F;
},
{
glyphname = hyphen;
layers = (
{
layerId = "8CF30A56-F91F-4EB2-A618-934C961D83D1";
paths = (
{
closed = 1;
nodes = (
"182 211 LINE",
"37 211 LINE",
"37 176 LINE",
"182 176 LINE"
);
}
);
width = 219;
}
);
note = hyphen;
unicode = 002D;
},
{
glyphname = .notdef;
layers = (
{
hints = (
{
horizontal = 1;
place = "{0, 25}";
type = Stem;
},
{
horizontal = 1;
place = "{273, 25}";
type = Stem;
},
{
place = "{25, 25}";
type = Stem;
},
{
place = "{206, 25}";
type = Stem;
}
);
layerId = "8CF30A56-F91F-4EB2-A618-934C961D83D1";
paths = (
{
closed = 1;
nodes = (
"25 0 LINE",
"231 0 LINE",
"231 298 LINE",
"25 298 LINE"
);
},
{
closed = 1;
nodes = (
"50 25 LINE",
"50 273 LINE",
"206 273 LINE",
"206 25 LINE"
);
}
);
width = 256;
}
);
note = .notdef;
},
{
glyphname = cloud;
layers = (
{
layerId = "8CF30A56-F91F-4EB2-A618-934C961D83D1";
paths = (
{
closed = 1;
nodes = (
"541.7 232.1 OFFCURVE",
"544 243.8 OFFCURVE",
"544 256 CURVE SMOOTH",
"544 309 OFFCURVE",
"501 352 OFFCURVE",
"448 352 CURVE SMOOTH",
"428.3 352 OFFCURVE",
"409.9 346 OFFCURVE",
"394.7 335.8 CURVE",
"367 383.8 OFFCURVE",
"315.3 416 OFFCURVE",
"256 416 CURVE SMOOTH",
"167.6 416 OFFCURVE",
"96 344.4 OFFCURVE",
"96 256 CURVE SMOOTH",
"96 253.3 OFFCURVE",
"96.1 250.6 OFFCURVE",
"96.2 247.9 CURVE",
"40.2 228.2 OFFCURVE",
"0 174.8 OFFCURVE",
"0 112 CURVE SMOOTH",
"0 32.5 OFFCURVE",
"64.5 -32 OFFCURVE",
"144 -32 CURVE SMOOTH",
"512 -32 LINE SMOOTH",
"582.7 -32 OFFCURVE",
"640 25.3 OFFCURVE",
"640 96 CURVE SMOOTH",
"640 157.9 OFFCURVE",
"596 209.6 OFFCURVE",
"537.6 221.4 CURVE"
);
}
);
width = 640;
}
);
note = cloud;
unicode = 2601;
},
{
glyphname = umbrella;
layers = (
{
layerId = "8CF30A56-F91F-4EB2-A618-934C961D83D1";
paths = (
{
closed = 1;
nodes = (
"547.1 303.5 OFFCURVE",
"437.3 385.4 OFFCURVE",
"320 398.1 CURVE",
"320 416 LINE SMOOTH",
"320 433.7 OFFCURVE",
"305.7 448 OFFCURVE",
"288 448 CURVE SMOOTH",
"270.3 448 OFFCURVE",
"256 433.7 OFFCURVE",
"256 416 CURVE SMOOTH",
"256 398.1 LINE",
"138.3 385.4 OFFCURVE",
"29.5 303.5 OFFCURVE",
"0.3 167.2 CURVE SMOOTH",
"-1.9 157.1 OFFCURVE",
"8.8 145.9 OFFCURVE",
"19 155.8 CURVE",
"71 210.8 OFFCURVE",
"126.7 208.2 OFFCURVE",
"177.6 118.8 CURVE SMOOTH",
"182.9 109.3 OFFCURVE",
"192.5 110.2 OFFCURVE",
"197.3 118.8 CURVE SMOOTH",
"217.5 154.2 OFFCURVE",
"242.2 192 OFFCURVE",
"288 192 CURVE SMOOTH",
"346.5 192 OFFCURVE",
"376.2 123.2 OFFCURVE",
"378.7 118.8 CURVE SMOOTH",
"383.5 110.2 OFFCURVE",
"393.1 109.3 OFFCURVE",
"398.4 118.8 CURVE SMOOTH",
"449.4 208.3 OFFCURVE",
"505.5 210.2 OFFCURVE",
"557 155.8 CURVE",
"567.3 145.8 OFFCURVE",
"577.9 157.1 OFFCURVE",
"575.7 167.2 CURVE SMOOTH"
);
},
{
closed = 1;
nodes = (
"256 16 LINE SMOOTH",
"256 7.2 OFFCURVE",
"248.8 0 OFFCURVE",
"240 0 CURVE SMOOTH",
"232.2 0 OFFCURVE",
"226.8 5.3 OFFCURVE",
"224.9 10.7 CURVE SMOOTH",
"219 27.4 OFFCURVE",
"200.8 36.1 OFFCURVE",
"184.1 30.2 CURVE SMOOTH",
"167.4 24.3 OFFCURVE",
"158.7 6 OFFCURVE",
"164.6 -10.6 CURVE SMOOTH",
"175.8 -42.5 OFFCURVE",
"206.2 -63.9 OFFCURVE",
"240 -63.9 CURVE SMOOTH",
"284.1 -63.9 OFFCURVE",
"320 -28 OFFCURVE",
"320 16.1 CURVE SMOOTH",
"320 146.4 LINE",
"310.9 154.3 OFFCURVE",
"300.2 160 OFFCURVE",
"288 160 CURVE SMOOTH",
"275.7 159.9 OFFCURVE",
"265.6 155.2 OFFCURVE",
"256 146.3 CURVE"
);
}
);
width = 576;
}
);
note = umbrella;
unicode = 2602;
},
{
glyphname = snowman;
layers = (
{
layerId = "8CF30A56-F91F-4EB2-A618-934C961D83D1";
paths = (
{
closed = 1;
nodes = (
"505 310.2 LINE SMOOTH",
"501.7 318.2 OFFCURVE",
"492.4 322.1 OFFCURVE",
"484.2 318.9 CURVE SMOOTH",
"456 307.4 LINE",
"456 336.4 LINE SMOOTH",
"456 345 OFFCURVE",
"448.8 352 OFFCURVE",
"440 352 CURVE SMOOTH",
"424 352 LINE SMOOTH",
"415.2 352 OFFCURVE",
"408 345 OFFCURVE",
"408 336.4 CURVE SMOOTH",
"408 289.5 LINE SMOOTH",
"408 289 OFFCURVE",
"408.3 288.5 OFFCURVE",
"408.3 288 CURVE",
"351.9 265 LINE",
"346 275 OFFCURVE",
"338.6 283.9 OFFCURVE",
"329.9 291.6 CURVE",
"343.5 308.2 OFFCURVE",
"351.9 329 OFFCURVE",
"351.9 352.1 CURVE SMOOTH",
"351.9 405.1 OFFCURVE",
"308.9 448.1 OFFCURVE",
"255.9 448.1 CURVE SMOOTH",
"202.9 448.1 OFFCURVE",
"159.9 405.1 OFFCURVE",
"159.9 352.1 CURVE SMOOTH",
"159.9 329 OFFCURVE",
"168.4 308.2 OFFCURVE",
"181.9 291.6 CURVE",
"173.2 283.9 OFFCURVE",
"165.9 275 OFFCURVE",
"159.9 265 CURVE",
"103.5 288 LINE",
"103.6 288.5 OFFCURVE",
"103.8 289 OFFCURVE",
"103.8 289.5 CURVE SMOOTH",
"103.8 336.4 LINE SMOOTH",
"104 345 OFFCURVE",
"96.8 352 OFFCURVE",
"88 352 CURVE SMOOTH",
"72 352 LINE SMOOTH",
"63.2 352 OFFCURVE",
"56 345 OFFCURVE",
"56 336.4 CURVE SMOOTH",
"56 307.4 LINE",
"27.9 318.9 LINE SMOOTH",
"19.7 322.1 OFFCURVE",
"10.4 318.2 OFFCURVE",
"7.1 310.2 CURVE SMOOTH",
"1.2 295.7 LINE SMOOTH",
"-2.1 287.7 OFFCURVE",
"1.9 278.6 OFFCURVE",
"10.1 275.4 CURVE SMOOTH",
"145.3 220.2 LINE",
"144.9 216.2 OFFCURVE",
"144.1 212.2 OFFCURVE",
"144.1 208 CURVE SMOOTH",
"144.1 197.9 OFFCURVE",
"145.8 188.4 OFFCURVE",
"148.3 179.1 CURVE",
"120.9 151.6 OFFCURVE",
"104 113.8 OFFCURVE",
"104 72 CURVE SMOOTH",
"104 18 OFFCURVE",
"132.4 -28.9 OFFCURVE",
"174.8 -55.8 CURVE SMOOTH",
"184.1 -61.7 OFFCURVE",
"195.1 -64 OFFCURVE",
"206.1 -64 CURVE SMOOTH",
"305.3 -64 LINE SMOOTH",
"318.6 -64 OFFCURVE",
"331.6 -59.9 OFFCURVE",
"342.5 -52.3 CURVE SMOOTH",
"389 -20 OFFCURVE",
"416.9 37.1 OFFCURVE",
"405.4 100.3 CURVE SMOOTH",
"399.9 130.5 OFFCURVE",
"384.9 157.9 OFFCURVE",
"363.8 179.3 CURVE",
"366.3 188.5 OFFCURVE",
"368 198 OFFCURVE",
"368 208 CURVE SMOOTH",
"368 212.2 OFFCURVE",
"367.2 216.1 OFFCURVE",
"366.8 220.2 CURVE",
"502 275.4 LINE SMOOTH",
"510.1 278.5 OFFCURVE",
"514.1 287.6 OFFCURVE",
"510.9 295.7 CURVE SMOOTH"
);
},
{
closed = 1;
nodes = (
"215.2 352 OFFCURVE",
"208 359.2 OFFCURVE",
"208 368 CURVE SMOOTH",
"208 376.8 OFFCURVE",
"215.2 384 OFFCURVE",
"224 384 CURVE SMOOTH",
"232.8 384 OFFCURVE",
"240 376.8 OFFCURVE",
"240 368 CURVE SMOOTH",
"240 359.2 OFFCURVE",
"232.8 352 OFFCURVE",
"224 352 CURVE SMOOTH"
);
},
{
closed = 1;
nodes = (
"247.2 80 OFFCURVE",
"240 87.2 OFFCURVE",
"240 96 CURVE SMOOTH",
"240 104.8 OFFCURVE",
"247.2 112 OFFCURVE",
"256 112 CURVE SMOOTH",
"264.8 112 OFFCURVE",
"272 104.8 OFFCURVE",
"272 96 CURVE SMOOTH",
"272 87.2 OFFCURVE",
"264.8 80 OFFCURVE",
"256 80 CURVE SMOOTH"
);
},
{
closed = 1;
nodes = (
"247.2 144 OFFCURVE",
"240 151.2 OFFCURVE",
"240 160 CURVE SMOOTH",
"240 168.8 OFFCURVE",
"247.2 176 OFFCURVE",
"256 176 CURVE SMOOTH",
"264.8 176 OFFCURVE",
"272 168.8 OFFCURVE",
"272 160 CURVE SMOOTH",
"272 151.2 OFFCURVE",
"264.8 144 OFFCURVE",
"256 144 CURVE SMOOTH"
);
},
{
closed = 1;
nodes = (
"247.2 208 OFFCURVE",
"240 215.2 OFFCURVE",
"240 224 CURVE SMOOTH",
"240 232.8 OFFCURVE",
"247.2 240 OFFCURVE",
"256 240 CURVE SMOOTH",
"264.8 240 OFFCURVE",
"272 232.8 OFFCURVE",
"272 224 CURVE SMOOTH",
"272 215.2 OFFCURVE",
"264.8 208 OFFCURVE",
"256 208 CURVE SMOOTH"
);
},
{
closed = 1;
nodes = (
"256 296 OFFCURVE",
"240 319.2 OFFCURVE",
"240 328 CURVE SMOOTH",
"240 336.8 OFFCURVE",
"247.2 344 OFFCURVE",
"256 344 CURVE SMOOTH",
"264.8 344 OFFCURVE",
"272 336.8 OFFCURVE",
"272 328 CURVE SMOOTH",
"272 319.2 OFFCURVE",
"256 296 OFFCURVE",
"256 296 CURVE SMOOTH"
);
},
{
closed = 1;
nodes = (
"279.2 352 OFFCURVE",
"272 359.2 OFFCURVE",
"272 368 CURVE SMOOTH",
"272 376.8 OFFCURVE",
"279.2 384 OFFCURVE",
"288 384 CURVE SMOOTH",
"296.8 384 OFFCURVE",
"304 376.8 OFFCURVE",
"304 368 CURVE SMOOTH",
"304 359.2 OFFCURVE",
"296.8 352 OFFCURVE",
"288 352 CURVE SMOOTH"
);
}
);
width = 512;
}
);
note = snowman;
unicode = 2603;
},
{
glyphname = biohazard;
layers = (
{
layerId = "8CF30A56-F91F-4EB2-A618-934C961D83D1";
paths = (
{
closed = 1;
nodes = (
"306.5 336 OFFCURVE",
"324.1 332.2 OFFCURVE",
"340.7 326.4 CURVE",
"354 336.7 OFFCURVE",
"364.3 350.7 OFFCURVE",
"370.2 367.1 CURVE",
"345 378 OFFCURVE",
"317.2 384.1 OFFCURVE",
"288 384.1 CURVE SMOOTH",
"258.9 384.1 OFFCURVE",
"231.1 378.1 OFFCURVE",
"205.9 367.2 CURVE",
"211.8 350.8 OFFCURVE",
"222.1 336.8 OFFCURVE",
"235.4 326.5 CURVE",
"251.9 332.2 OFFCURVE",
"269.4 336 OFFCURVE",
"287.9 336 CURVE SMOOTH"
);
},
{
closed = 1;
nodes = (
"175.6 21.1 OFFCURVE",
"184 35.7 OFFCURVE",
"188.1 51.7 CURVE",
"155.2 78.1 OFFCURVE",
"133.3 117 OFFCURVE",
"129.2 161.3 CURVE",
"120.7 164.1 OFFCURVE",
"112 165.9 OFFCURVE",
"102.8 165.9 CURVE SMOOTH",
"95.2 165.9 OFFCURVE",
"87.6 164.9 OFFCURVE",
"80.3 162.8 CURVE",
"84.4 100 OFFCURVE",
"116.1 44.8 OFFCURVE",
"163.6 9.3 CURVE"
);
},
{
closed = 1;
nodes = (
"391.9 35.9 OFFCURVE",
"400.3 21.2 OFFCURVE",
"412.3 9.4 CURVE",
"459.7 44.9 OFFCURVE",
"491.4 100.1 OFFCURVE",
"495.3 162.9 CURVE",
"488.1 164.9 OFFCURVE",
"480.6 165.9 OFFCURVE",
"473.1 165.9 CURVE SMOOTH",
"463.9 165.9 OFFCURVE",
"455.1 164 OFFCURVE",
"446.5 161.2 CURVE",
"442.4 117 OFFCURVE",
"420.5 78.3 OFFCURVE",
"387.8 51.9 CURVE"
);
},
{
closed = 1;
nodes = (
"483.7 267.3 OFFCURVE",
"465 273.5 OFFCURVE",
"446 276.8 CURVE",
"452 294.5 OFFCURVE",
"456 313.2 OFFCURVE",
"456 333 CURVE SMOOTH",
"456 374 OFFCURVE",
"441.5 413.8 OFFCURVE",
"415 445.2 CURVE SMOOTH",
"412.5 448.2 OFFCURVE",
"408.4 448.9 OFFCURVE",
"405 447 CURVE SMOOTH",
"401.7 445.1 OFFCURVE",
"400.2 441 OFFCURVE",
"401.4 437.3 CURVE SMOOTH",
"405.9 423.5 OFFCURVE",
"408 411 OFFCURVE",
"408 398.8 CURVE SMOOTH",
"408 331 OFFCURVE",
"354.2 275.9 OFFCURVE",
"288 275.9 CURVE SMOOTH",
"221.8 275.9 OFFCURVE",
"168 331 OFFCURVE",
"168 398.8 CURVE SMOOTH",
"168 410.9 OFFCURVE",
"170.2 423.5 OFFCURVE",
"174.6 437.3 CURVE SMOOTH",
"175.8 441 OFFCURVE",
"174.3 445.1 OFFCURVE",
"171 447 CURVE SMOOTH",
"167.6 448.9 OFFCURVE",
"163.5 448.2 OFFCURVE",
"161 445.2 CURVE SMOOTH",
"134.6 413.8 OFFCURVE",
"120 374 OFFCURVE",
"120 333 CURVE SMOOTH",
"120 313.2 OFFCURVE",
"123.9 294.5 OFFCURVE",
"130 276.8 CURVE",
"111.1 273.5 OFFCURVE",
"92.3 267.3 OFFCURVE",
"74.7 256.9 CURVE SMOOTH",
"40.1 236.4 OFFCURVE",
"13.7 203.6 OFFCURVE",
"0.4 164.5 CURVE SMOOTH",
"-0.9 160.8 OFFCURVE",
"0.6 156.8 OFFCURVE",
"3.9 154.7 CURVE SMOOTH",
"7.2 152.7 OFFCURVE",
"11.4 153.4 OFFCURVE",
"13.9 156.3 CURVE SMOOTH",
"23.3 167.1 OFFCURVE",
"32.9 175.4 OFFCURVE",
"43.1 181.4 CURVE SMOOTH",
"100.4 215.3 OFFCURVE",
"173.9 195.1 OFFCURVE",
"207 136.4 CURVE SMOOTH",
"240.1 77.7 OFFCURVE",
"220.4 2.4 OFFCURVE",
"163.1 -31.5 CURVE SMOOTH",
"152.9 -37.6 OFFCURVE",
"141.1 -41.9 OFFCURVE",
"127.3 -44.9 CURVE SMOOTH",
"123.6 -45.7 OFFCURVE",
"120.9 -49.1 OFFCURVE",
"120.9 -53 CURVE SMOOTH",
"121 -57 OFFCURVE",
"123.6 -60.3 OFFCURVE",
"127.4 -61 CURVE SMOOTH",
"167.1 -68.8 OFFCURVE",
"208 -61.8 OFFCURVE",
"242.6 -41.3 CURVE SMOOTH",
"260.6 -30.7 OFFCURVE",
"275.5 -16.8 OFFCURVE",
"287.9 -1.2 CURVE",
"300.3 -16.8 OFFCURVE",
"315.2 -30.7 OFFCURVE",
"333.2 -41.3 CURVE SMOOTH",
"367.8 -61.8 OFFCURVE",
"408.7 -68.8 OFFCURVE",
"448.4 -61 CURVE SMOOTH",
"452.2 -60.3 OFFCURVE",
"454.8 -57 OFFCURVE",
"454.9 -53 CURVE SMOOTH",
"454.9 -49.1 OFFCURVE",
"452.3 -45.7 OFFCURVE",
"448.5 -44.9 CURVE SMOOTH",
"434.6 -42 OFFCURVE",
"422.9 -37.6 OFFCURVE",
"412.7 -31.5 CURVE SMOOTH",
"355.4 2.4 OFFCURVE",
"335.7 77.7 OFFCURVE",
"368.8 136.4 CURVE SMOOTH",
"401.9 195.1 OFFCURVE",
"475.4 215.3 OFFCURVE",
"532.7 181.4 CURVE SMOOTH",
"542.9 175.3 OFFCURVE",
"552.5 167.1 OFFCURVE",
"561.9 156.3 CURVE SMOOTH",
"564.4 153.4 OFFCURVE",
"568.6 152.7 OFFCURVE",
"571.9 154.7 CURVE SMOOTH",
"575.2 156.7 OFFCURVE",
"576.7 160.8 OFFCURVE",
"575.4 164.5 CURVE SMOOTH",
"562.3 203.6 OFFCURVE",
"535.9 236.5 OFFCURVE",
"501.3 256.9 CURVE SMOOTH"
);
},
{
closed = 1;
nodes = (
"261.4 127.9 OFFCURVE",
"239.9 149.4 OFFCURVE",
"239.9 175.9 CURVE SMOOTH",
"239.9 202.4 OFFCURVE",
"261.4 223.9 OFFCURVE",
"287.9 223.9 CURVE SMOOTH",
"314.4 223.9 OFFCURVE",
"335.9 202.4 OFFCURVE",
"335.9 175.9 CURVE SMOOTH",
"335.9 149.4 OFFCURVE",
"314.4 127.9 OFFCURVE",
"287.9 127.9 CURVE SMOOTH"
);
}
);
width = 576;
}
);
note = biohazard;
unicode = 2623;
},
{
glyphname = ankh;
layers = (
{
layerId = "8CF30A56-F91F-4EB2-A618-934C961D83D1";
paths = (
{
closed = 1;
nodes = (
"251.38 192 LINE",
"272.46 225.99 OFFCURVE",
"288 266.35 OFFCURVE",
"288 304 CURVE SMOOTH",
"288 392.37 OFFCURVE",
"230.69 448 OFFCURVE",
"160 448 CURVE SMOOTH",
"89.31 448 OFFCURVE",
"32 392.37 OFFCURVE",
"32 304 CURVE SMOOTH",
"32 266.35 OFFCURVE",
"47.54 225.99 OFFCURVE",
"68.62 192 CURVE",
"24 192 LINE SMOOTH",
"10.75 192 OFFCURVE",
"0 181.26 OFFCURVE",
"0 168 CURVE SMOOTH",
"0 136 LINE SMOOTH",
"0 122.75 OFFCURVE",
"10.75 112 OFFCURVE",
"24 112 CURVE SMOOTH",
"120 112 LINE",
"120 -40 LINE SMOOTH",
"120 -53.25 OFFCURVE",
"130.75 -64 OFFCURVE",
"144 -64 CURVE SMOOTH",
"176 -64 LINE SMOOTH",
"189.25 -64 OFFCURVE",
"200 -53.25 OFFCURVE",
"200 -40 CURVE SMOOTH",
"200 112 LINE",
"296 112 LINE SMOOTH",
"309.25 112 OFFCURVE",
"320 122.75 OFFCURVE",
"320 136 CURVE SMOOTH",
"320 168 LINE SMOOTH",
"320 181.26 OFFCURVE",
"309.25 192 OFFCURVE",
"296 192 CURVE SMOOTH"
);
},
{
closed = 1;
nodes = (
"189.61 368 OFFCURVE",
"208 343.48 OFFCURVE",
"208 304 CURVE SMOOTH",
"208 269.34 OFFCURVE",
"180.86 225.86 OFFCURVE",
"160 203.13 CURVE",
"139.14 225.85 OFFCURVE",
"112 269.34 OFFCURVE",
"112 304 CURVE SMOOTH",
"112 343.48 OFFCURVE",
"130.39 368 OFFCURVE",
"160 368 CURVE SMOOTH"
);
}
);
width = 320;
}
);
note = ankh;
unicode = 2625;
},
{
glyphname = cross;
layers = (
{
layerId = "8CF30A56-F91F-4EB2-A618-934C961D83D1";
paths = (
{
closed = 1;
nodes = (
"256 320 LINE",
"256 416 LINE SMOOTH",
"256 433.67 OFFCURVE",
"241.67 448 OFFCURVE",
"224 448 CURVE SMOOTH",
"160 448 LINE SMOOTH",
"142.33 448 OFFCURVE",
"128 433.67 OFFCURVE",
"128 416 CURVE SMOOTH",
"128 320 LINE",
"32 320 LINE SMOOTH",
"14.33 320 OFFCURVE",
"0 305.67 OFFCURVE",
"0 288 CURVE SMOOTH",
"0 224 LINE SMOOTH",
"0 206.33 OFFCURVE",
"14.33 192 OFFCURVE",
"32 192 CURVE SMOOTH",
"128 192 LINE",
"128 -32 LINE SMOOTH",
"128 -49.67 OFFCURVE",
"142.33 -64 OFFCURVE",
"160 -64 CURVE SMOOTH",
"224 -64 LINE SMOOTH",
"241.67 -64 OFFCURVE",
"256 -49.67 OFFCURVE",
"256 -32 CURVE SMOOTH",
"256 192 LINE",
"352 192 LINE SMOOTH",
"369.67 192 OFFCURVE",
"384 206.33 OFFCURVE",
"384 224 CURVE SMOOTH",
"384 288 LINE SMOOTH",
"384 305.67 OFFCURVE",
"369.67 320 OFFCURVE",
"352 320 CURVE SMOOTH"
);
}
);
width = 384;
}
);
note = cross;
unicode = 271D;
},
{
glyphname = peace;
layers = (
{
layerId = "8CF30A56-F91F-4EB2-A618-934C961D83D1";
paths = (
{
closed = 1;
nodes = (
"111.03 440 OFFCURVE",
"0 328.97 OFFCURVE",
"0 192 CURVE SMOOTH",
"0 55.03 OFFCURVE",
"111.03 -56 OFFCURVE",
"248 -56 CURVE SMOOTH",
"384.97 -56 OFFCURVE",
"496 55.03 OFFCURVE",
"496 192 CURVE SMOOTH",
"496 328.97 OFFCURVE",
"384.97 440 OFFCURVE",
"248 440 CURVE SMOOTH"
);
},
{
closed = 1;
nodes = (
"432 160.07 OFFCURVE",
"423.8 130.03 OFFCURVE",
"409.43 103.83 CURVE",
"280 207.37 LINE",
"280 373.03 LINE",
"366.23 357.82 OFFCURVE",
"432 282.53 OFFCURVE",
"432 192 CURVE SMOOTH"
);
},
{
closed = 1;
nodes = (
"216 10.97 LINE",
"182.14 16.94 OFFCURVE",
"151.51 32.17 OFFCURVE",
"126.71 53.99 CURVE",
"216 125.43 LINE"
);
},
{
closed = 1;
nodes = (
"280 125.43 LINE",
"369.29 54 LINE",
"344.49 32.18 OFFCURVE",
"313.86 16.95 OFFCURVE",
"280 10.98 CURVE"
);
},
{
closed = 1;
nodes = (
"216 207.37 LINE",
"86.57 103.83 LINE",
"72.2 130.03 OFFCURVE",
"64 160.07 OFFCURVE",
"64 192 CURVE SMOOTH",
"64 282.53 OFFCURVE",
"129.77 357.82 OFFCURVE",
"216 373.03 CURVE"
);
}
);
width = 496;
}
);
note = peace;
unicode = 262E;
},
{
glyphname = sunWithRays;
layers = (
{
layerId = "8CF30A56-F91F-4EB2-A618-934C961D83D1";
paths = (
{
closed = 1;
nodes = (
"212.88 202.13 OFFCURVE",
"212.88 181.87 OFFCURVE",
"225.38 169.38 CURVE SMOOTH",
"237.87 156.88 OFFCURVE",
"258.14 156.88 OFFCURVE",
"270.63 169.38 CURVE SMOOTH",
"283.13 181.88 OFFCURVE",
"283.13 202.14 OFFCURVE",
"270.63 214.63 CURVE SMOOTH",
"258.13 227.12 OFFCURVE",
"237.87 227.12 OFFCURVE",
"225.38 214.63 CURVE SMOOTH"
);
},
{
closed = 1;
nodes = (
"111.03 440 OFFCURVE",
"0 328.97 OFFCURVE",
"0 192 CURVE SMOOTH",
"0 55.03 OFFCURVE",
"111.03 -56 OFFCURVE",
"248 -56 CURVE SMOOTH",
"384.97 -56 OFFCURVE",
"496 55.03 OFFCURVE",
"496 192 CURVE SMOOTH",
"496 328.97 OFFCURVE",
"384.97 440 OFFCURVE",
"248 440 CURVE SMOOTH"
);
},
{
closed = 1;
nodes = (
"308.17 147.6 LINE SMOOTH",
"305.44 141.63 OFFCURVE",
"298.37 134.56 OFFCURVE",
"292.4 131.83 CURVE SMOOTH",
"148.06 65.86 LINE SMOOTH",
"131.41 58.25 OFFCURVE",
"114.25 75.41 OFFCURVE",
"121.86 92.06 CURVE SMOOTH",
"187.84 236.41 LINE SMOOTH",
"190.57 242.38 OFFCURVE",
"197.64 249.45 OFFCURVE",
"203.61 252.18 CURVE SMOOTH",
"347.95 318.15 LINE SMOOTH",
"364.6 325.75 OFFCURVE",
"381.75 308.6 OFFCURVE",
"374.14 291.95 CURVE SMOOTH"
);
}
);
width = 496;
}
);
note = compass;
unicode = 263C;
},
{
glyphname = mercury;
layers = (
{
layerId = "8CF30A56-F91F-4EB2-A618-934C961D83D1";
paths = (
{
closed = 1;
nodes = (
"288 284.2 OFFCURVE",
"268.1 323.7 OFFCURVE",
"236.8 350.1 CURVE",
"239.3 351.9 OFFCURVE",
"241.7 353.9 OFFCURVE",
"244 355.9 CURVE SMOOTH",
"268.7 377.1 OFFCURVE",
"283.8 404.7 OFFCURVE",
"287.2 434.7 CURVE SMOOTH",
"288.1 441.8 OFFCURVE",
"282.5 448 OFFCURVE",
"275.3 448 CURVE SMOOTH",
"234.8 448 LINE SMOOTH",
"229 448 OFFCURVE",
"224.1 443.9 OFFCURVE",
"223 438.2 CURVE SMOOTH",
"220.6 425.7 OFFCURVE",
"213.4 413.9 OFFCURVE",
"202.3 404.4 CURVE SMOOTH",
"187 391.2 OFFCURVE",
"166.3 384 OFFCURVE",
"144 384 CURVE SMOOTH",
"121.7 384 OFFCURVE",
"101 391.2 OFFCURVE",
"85.6 404.4 CURVE SMOOTH",
"74.5 413.9 OFFCURVE",
"67.4 425.7 OFFCURVE",
"64.9 438.2 CURVE SMOOTH",
"63.8 443.9 OFFCURVE",
"58.9 448 OFFCURVE",
"53.2 448 CURVE SMOOTH",
"12.7 448 LINE SMOOTH",
"5.5 448 OFFCURVE",
"-0.1 441.8 OFFCURVE",
"0.8 434.7 CURVE SMOOTH",
"4.2 404.6 OFFCURVE",
"19.2 377 OFFCURVE",
"44 355.8 CURVE SMOOTH",
"46.3 353.8 OFFCURVE",
"48.7 351.9 OFFCURVE",
"51.2 350 CURVE",
"19.9 323.7 OFFCURVE",
"0 284.2 OFFCURVE",
"0 240 CURVE SMOOTH",
"0 171.5 OFFCURVE",
"47.9 114.1 OFFCURVE",
"112 99.6 CURVE",
"112 48 LINE",
"76 48 LINE SMOOTH",
"69.4 48 OFFCURVE",
"64 42.6 OFFCURVE",
"64 36 CURVE SMOOTH",
"64 -4 LINE SMOOTH",
"64 -10.6 OFFCURVE",
"69.4 -16 OFFCURVE",
"76 -16 CURVE SMOOTH",
"112 -16 LINE",
"112 -52 LINE SMOOTH",
"112 -58.6 OFFCURVE",
"117.4 -64 OFFCURVE",
"124 -64 CURVE SMOOTH",
"164 -64 LINE SMOOTH",
"170.6 -64 OFFCURVE",
"176 -58.6 OFFCURVE",
"176 -52 CURVE SMOOTH",
"176 -16 LINE",
"212 -16 LINE SMOOTH",
"218.6 -16 OFFCURVE",
"224 -10.6 OFFCURVE",
"224 -4 CURVE SMOOTH",
"224 36 LINE SMOOTH",
"224 42.6 OFFCURVE",
"218.6 48 OFFCURVE",
"212 48 CURVE SMOOTH",
"176 48 LINE",
"176 99.6 LINE",
"240.1 114.1 OFFCURVE",
"288 171.5 OFFCURVE",
"288 240 CURVE SMOOTH"
);
},
{
closed = 1;
nodes = (
"64 284.1 OFFCURVE",
"99.9 320 OFFCURVE",
"144 320 CURVE SMOOTH",
"188.1 320 OFFCURVE",
"224 284.1 OFFCURVE",
"224 240 CURVE SMOOTH",
"224 195.9 OFFCURVE",
"188.1 160 OFFCURVE",
"144 160 CURVE SMOOTH",
"99.9 160 OFFCURVE",
"64 195.9 OFFCURVE",
"64 240 CURVE SMOOTH"
);
}
);
width = 288;
}
);
note = mercury;
unicode = 263F;
},
{
glyphname = venus;
layers = (
{
layerId = "8CF30A56-F91F-4EB2-A618-934C961D83D1";
paths = (
{
closed = 1;
nodes = (
"288 351.5 OFFCURVE",
"223.5 416 OFFCURVE",
"144 416 CURVE SMOOTH",
"64.5 416 OFFCURVE",
"0 351.5 OFFCURVE",
"0 272 CURVE SMOOTH",
"0 203.5 OFFCURVE",
"47.9 146.1 OFFCURVE",
"112 131.6 CURVE",
"112 80 LINE",
"76 80 LINE SMOOTH",
"69.4 80 OFFCURVE",
"64 74.6 OFFCURVE",
"64 68 CURVE SMOOTH",
"64 28 LINE SMOOTH",
"64 21.4 OFFCURVE",
"69.4 16 OFFCURVE",
"76 16 CURVE SMOOTH",
"112 16 LINE",
"112 -20 LINE SMOOTH",
"112 -26.6 OFFCURVE",
"117.4 -32 OFFCURVE",
"124 -32 CURVE SMOOTH",
"164 -32 LINE SMOOTH",
"170.6 -32 OFFCURVE",
"176 -26.6 OFFCURVE",
"176 -20 CURVE SMOOTH",
"176 16 LINE",
"212 16 LINE SMOOTH",
"218.6 16 OFFCURVE",
"224 21.4 OFFCURVE",
"224 28 CURVE SMOOTH",
"224 68 LINE SMOOTH",
"224 74.6 OFFCURVE",
"218.6 80 OFFCURVE",
"212 80 CURVE SMOOTH",
"176 80 LINE",
"176 131.6 LINE",
"240.1 146.1 OFFCURVE",
"288 203.5 OFFCURVE",
"288 272 CURVE SMOOTH"
);
},
{
closed = 1;
nodes = (
"64 316.1 OFFCURVE",
"99.9 352 OFFCURVE",
"144 352 CURVE SMOOTH",
"188.1 352 OFFCURVE",
"224 316.1 OFFCURVE",
"224 272 CURVE SMOOTH",
"224 227.9 OFFCURVE",
"188.1 192 OFFCURVE",
"144 192 CURVE SMOOTH",
"99.9 192 OFFCURVE",
"64 227.9 OFFCURVE",
"64 272 CURVE SMOOTH"
);
}
);
width = 288;
}
);
note = venus;
unicode = 2640;
},
{
glyphname = mars;
layers = (
{
layerId = "8CF30A56-F91F-4EB2-A618-934C961D83D1";
paths = (
{
closed = 1;
nodes = (
"293 384 LINE SMOOTH",
"282.3 384 OFFCURVE",
"277 371.1 OFFCURVE",
"284.5 363.5 CURVE SMOOTH",
"301.4 346.6 LINE",
"220.7 265.9 LINE",
"198.5 279.9 OFFCURVE",
"172.2 288 OFFCURVE",
"144 288 CURVE SMOOTH",
"64.5 288 OFFCURVE",
"0 223.5 OFFCURVE",
"0 144 CURVE SMOOTH",
"0 64.5 OFFCURVE",
"64.5 0 OFFCURVE",
"144 0 CURVE SMOOTH",
"223.5 0 OFFCURVE",
"288 64.5 OFFCURVE",
"288 144 CURVE SMOOTH",
"288 172.2 OFFCURVE",
"279.9 198.5 OFFCURVE",
"265.9 220.7 CURVE",
"346.6 301.4 LINE",
"363.5 284.5 LINE SMOOTH",
"371.1 276.9 OFFCURVE",
"384 282.3 OFFCURVE",
"384 293 CURVE SMOOTH",
"384 372 LINE SMOOTH",
"384 378.6 OFFCURVE",
"378.6 384 OFFCURVE",
"372 384 CURVE SMOOTH"
);
},
{
closed = 1;
nodes = (
"99.9 64 OFFCURVE",
"64 99.9 OFFCURVE",
"64 144 CURVE SMOOTH",
"64 188.1 OFFCURVE",
"99.9 224 OFFCURVE",
"144 224 CURVE SMOOTH",
"188.1 224 OFFCURVE",
"224 188.1 OFFCURVE",
"224 144 CURVE SMOOTH",
"224 99.9 OFFCURVE",
"188.1 64 OFFCURVE",
"144 64 CURVE SMOOTH"
);
}
);
width = 384;
}
);
note = mars;
unicode = 2642;
},
{
glyphname = heartBlackSuit;
layers = (
{
layerId = "8CF30A56-F91F-4EB2-A618-934C961D83D1";
paths = (
{
closed = 1;
nodes = (
"407.5 432.1 OFFCURVE",
"326 423.7 OFFCURVE",
"275.7 371.8 CURVE SMOOTH",
"256 351.5 LINE",
"236.3 371.8 LINE SMOOTH",
"186.1 423.7 OFFCURVE",
"104.5 432.1 OFFCURVE",
"49.7 385.4 CURVE SMOOTH",
"-13.1 331.8 OFFCURVE",
"-16.4 235.6 OFFCURVE",
"39.8 177.5 CURVE SMOOTH",
"233.3 -22.3 LINE SMOOTH",
"245.8 -35.2 OFFCURVE",
"266.1 -35.2 OFFCURVE",
"278.6 -22.3 CURVE SMOOTH",
"472.1 177.5 LINE SMOOTH",
"528.4 235.6 OFFCURVE",
"525.1 331.8 OFFCURVE",
"462.3 385.4 CURVE SMOOTH"
);
}
);
width = 512;
}
);
note = heart;
unicode = 2665;
},
{
glyphname = anchorSymbol;
layers = (
{
layerId = "8CF30A56-F91F-4EB2-A618-934C961D83D1";
paths = (
{
closed = 1;
nodes = (
"45.36 96 LINE",
"67.17 -6.74 OFFCURVE",
"181.94 -64 OFFCURVE",
"287.99 -64 CURVE SMOOTH",
"394.22 -64 OFFCURVE",
"508.84 -6.62 OFFCURVE",
"530.62 96 CURVE",
"563.01 96 LINE SMOOTH",
"573.7 96 OFFCURVE",
"579.05 108.93 OFFCURVE",
"571.49 116.49 CURVE SMOOTH",
"504.46 183.52 LINE SMOOTH",
"499.77 188.21 OFFCURVE",
"492.18 188.21 OFFCURVE",
"487.49 183.52 CURVE SMOOTH",
"420.46 116.49 LINE SMOOTH",
"412.9 108.93 OFFCURVE",
"418.25 96 OFFCURVE",
"428.94 96 CURVE SMOOTH",
"464.09 96 LINE",
"443.8 41.68 OFFCURVE",
"379.13 9.41 OFFCURVE",
"319.97 1.99 CURVE",
"319.97 192 LINE",
"371.97 192 LINE SMOOTH",
"378.6 192 OFFCURVE",
"383.97 197.37 OFFCURVE",
"383.97 204 CURVE SMOOTH",
"383.97 244 LINE SMOOTH",
"383.97 250.63 OFFCURVE",
"378.6 256 OFFCURVE",
"371.97 256 CURVE SMOOTH",
"319.97 256 LINE",
"319.97 261.47 LINE",
"357.25 274.65 OFFCURVE",
"383.97 310.2 OFFCURVE",
"383.97 351.99 CURVE SMOOTH",
"383.98 404.23 OFFCURVE",
"341.58 447.26 OFFCURVE",
"289.34 447.99 CURVE SMOOTH",
"235.69 448.74 OFFCURVE",
"191.97 405.47 OFFCURVE",
"191.97 352 CURVE SMOOTH",
"191.97 310.2 OFFCURVE",
"218.69 274.65 OFFCURVE",
"255.97 261.47 CURVE",
"255.97 256 LINE",
"203.97 256 LINE SMOOTH",
"197.34 256 OFFCURVE",
"191.97 250.63 OFFCURVE",
"191.97 244 CURVE SMOOTH",
"191.97 204 LINE SMOOTH",
"191.97 197.37 OFFCURVE",
"197.34 192 OFFCURVE",
"203.97 192 CURVE SMOOTH",
"255.97 192 LINE",
"255.97 1.99 LINE",
"197.03 9.39 OFFCURVE",
"132.15 41.67 OFFCURVE",
"111.85 96 CURVE",
"147 96 LINE SMOOTH",
"157.69 96 OFFCURVE",
"163.04 108.93 OFFCURVE",
"155.48 116.49 CURVE SMOOTH",
"88.45 183.52 LINE SMOOTH",
"83.76 188.21 OFFCURVE",
"76.17 188.21 OFFCURVE",
"71.48 183.52 CURVE SMOOTH",
"4.45 116.49 LINE SMOOTH",
"-3.11 108.93 OFFCURVE",
"2.24 96 OFFCURVE",
"12.94 96 CURVE SMOOTH"
);
},
{
closed = 1;
nodes = (
"305.61 384 OFFCURVE",
"319.97 369.64 OFFCURVE",
"319.97 352 CURVE SMOOTH",
"319.97 334.36 OFFCURVE",
"305.61 320 OFFCURVE",
"287.97 320 CURVE SMOOTH",
"270.33 320 OFFCURVE",
"255.97 334.36 OFFCURVE",
"255.97 352 CURVE SMOOTH",
"255.97 369.64 OFFCURVE",
"270.33 384 OFFCURVE",
"287.97 384 CURVE SMOOTH"
);
}
);
width = 576;
}
);
note = anchor;
unicode = 2693;
},
{
glyphname = neuter;
layers = (
{
layerId = "8CF30A56-F91F-4EB2-A618-934C961D83D1";
paths = (
{
closed = 1;
nodes = (
"288 351.5 OFFCURVE",
"223.5 416 OFFCURVE",
"144 416 CURVE SMOOTH",
"64.5 416 OFFCURVE",
"0 351.5 OFFCURVE",
"0 272 CURVE SMOOTH",
"0 203.5 OFFCURVE",
"47.9 146.1 OFFCURVE",
"112 131.6 CURVE",
"112 -20 LINE SMOOTH",
"112 -26.6 OFFCURVE",
"117.4 -32 OFFCURVE",
"124 -32 CURVE SMOOTH",
"164 -32 LINE SMOOTH",
"170.6 -32 OFFCURVE",
"176 -26.6 OFFCURVE",
"176 -20 CURVE SMOOTH",
"176 131.6 LINE",
"240.1 146.1 OFFCURVE",
"288 203.5 OFFCURVE",
"288 272 CURVE SMOOTH"
);
},
{
closed = 1;
nodes = (
"99.9 192 OFFCURVE",
"64 227.9 OFFCURVE",
"64 272 CURVE SMOOTH",
"64 316.1 OFFCURVE",
"99.9 352 OFFCURVE",
"144 352 CURVE SMOOTH",
"188.1 352 OFFCURVE",
"224 316.1 OFFCURVE",
"224 272 CURVE SMOOTH",
"224 227.9 OFFCURVE",
"188.1 192 OFFCURVE",
"144 192 CURVE SMOOTH"
);
}
);
width = 288;
}
);
note = neuter;
unicode = 26B2;
},
{
glyphname = church;
layers = (
{
layerId = "8CF30A56-F91F-4EB2-A618-934C961D83D1";
paths = (
{
closed = 1;
nodes = (
"352 268.8 LINE",
"352 320 LINE",
"400 320 LINE SMOOTH",
"408.84 320 OFFCURVE",
"416 327.16 OFFCURVE",
"416 336 CURVE SMOOTH",
"416 368 LINE SMOOTH",
"416 376.84 OFFCURVE",
"408.84 384 OFFCURVE",
"400 384 CURVE SMOOTH",
"352 384 LINE",
"352 432 LINE SMOOTH",
"352 440.84 OFFCURVE",
"344.84 448 OFFCURVE",
"336 448 CURVE SMOOTH",
"304 448 LINE SMOOTH",
"295.16 448 OFFCURVE",
"288 440.84 OFFCURVE",
"288 432 CURVE SMOOTH",
"288 384 LINE",
"240 384 LINE SMOOTH",
"231.16 384 OFFCURVE",
"224 376.84 OFFCURVE",
"224 368 CURVE SMOOTH",
"224 336 LINE SMOOTH",
"224 327.16 OFFCURVE",
"231.16 320 OFFCURVE",
"240 320 CURVE SMOOTH",
"288 320 LINE",
"288 268.8 LINE",
"175.54 201.32 LINE SMOOTH",
"166.96 196.18 OFFCURVE",
"160 183.88 OFFCURVE",
"160 173.88 CURVE SMOOTH",
"160 -64 LINE",
"256 -64 LINE",
"256 32 LINE SMOOTH",
"256 67.35 OFFCURVE",
"284.65 96 OFFCURVE",
"320 96 CURVE SMOOTH",
"355.35 96 OFFCURVE",
"384 67.35 OFFCURVE",
"384 32 CURVE SMOOTH",
"384 -64 LINE",
"480 -64 LINE",
"480 173.88 LINE SMOOTH",
"480 185.12 OFFCURVE",
"474.1 195.54 OFFCURVE",
"464.46 201.32 CURVE SMOOTH"
);
},
{
closed = 1;
nodes = (
"0 -48 LINE SMOOTH",
"0 -56.84 OFFCURVE",
"7.16 -64 OFFCURVE",
"16 -64 CURVE SMOOTH",
"128 -64 LINE",
"128 128 LINE",
"19.39 81.46 LINE SMOOTH",
"8.69 76.87 OFFCURVE",
"0 63.69 OFFCURVE",
"0 52.04 CURVE SMOOTH"
);
},
{
closed = 1;
nodes = (
"512 128 LINE",
"512 -64 LINE",
"624 -64 LINE SMOOTH",
"632.84 -64 OFFCURVE",
"640 -56.84 OFFCURVE",
"640 -48 CURVE SMOOTH",
"640 52.04 LINE SMOOTH",
"640 64.84 OFFCURVE",
"632.37 76.41 OFFCURVE",
"620.61 81.46 CURVE SMOOTH"
);
}
);
width = 640;
}
);
note = church;
unicode = 26EA;
},
{
glyphname = mountain;
layers = (
{
layerId = "8CF30A56-F91F-4EB2-A618-934C961D83D1";
paths = (
{
closed = 1;
nodes = (
"346.92 433.3 LINE SMOOTH",
"341.03 442.46 OFFCURVE",
"330.89 448 OFFCURVE",
"320 448 CURVE SMOOTH",
"309.11 448 OFFCURVE",
"298.97 442.46 OFFCURVE",
"293.08 433.3 CURVE SMOOTH",
"5.08 -14.7 LINE SMOOTH",
"2.27 -19.06 OFFCURVE",
"0 -26.82 OFFCURVE",
"0 -32.01 CURVE SMOOTH",
"0 -36.52 OFFCURVE",
"1.75 -43.39 OFFCURVE",
"3.91 -47.34 CURVE SMOOTH",
"8.93 -56.54 OFFCURVE",
"21.52 -64 OFFCURVE",
"32 -64 CURVE",
"32 -64 LINE",
"608 -64 LINE SMOOTH",
"619.71 -64 OFFCURVE",
"630.48 -57.61 OFFCURVE",
"636.09 -47.33 CURVE SMOOTH",
"638.25 -43.37 OFFCURVE",
"640 -36.51 OFFCURVE",
"640 -32 CURVE SMOOTH",
"640 -26.81 OFFCURVE",
"637.72 -19.06 OFFCURVE",
"634.92 -14.7 CURVE SMOOTH"
);
},
{
closed = 1;
nodes = (
"320 356.82 LINE",
"405.39 224 LINE",
"320 224 LINE",
"256 160 LINE",
"217.94 198.06 LINE"
);
}
);
width = 640;
}
);
note = mountain;
unicode = 26F0;
},
{
glyphname = envelope;
layers = (
{
layerId = "8CF30A56-F91F-4EB2-A618-934C961D83D1";
paths = (
{
closed = 1;
nodes = (
"479.9 239.8 OFFCURVE",
"450.3 217.6 OFFCURVE",
"348.3 143.5 CURVE SMOOTH",
"328 128.7 OFFCURVE",
"291.7 95.6 OFFCURVE",
"256 95.9 CURVE SMOOTH",
"220.5 95.7 OFFCURVE",
"184.9 128.1 OFFCURVE",
"163.8 143.5 CURVE SMOOTH",
"61.8 217.6 OFFCURVE",
"32.1 239.7 OFFCURVE",
"9.7 257.1 CURVE SMOOTH",
"5.7 260.2 OFFCURVE",
"0 257.4 OFFCURVE",
"0 252.4 CURVE SMOOTH",
"0 48 LINE SMOOTH",
"0 21.5 OFFCURVE",
"21.5 0 OFFCURVE",
"48 0 CURVE SMOOTH",
"464 0 LINE SMOOTH",
"490.5 0 OFFCURVE",
"512 21.5 OFFCURVE",
"512 48 CURVE SMOOTH",
"512 252.5 LINE SMOOTH",
"512 257.4 OFFCURVE",
"506.2 260.3 OFFCURVE",
"502.3 257.2 CURVE SMOOTH"
);
},
{
closed = 1;
nodes = (
"279.2 127.6 OFFCURVE",
"312.6 157.2 OFFCURVE",
"329.4 169.4 CURVE SMOOTH",
"462.1 265.7 OFFCURVE",
"472.2 274.1 OFFCURVE",
"502.8 298.1 CURVE SMOOTH",
"508.6 302.6 OFFCURVE",
"512 309.6 OFFCURVE",
"512 317 CURVE SMOOTH",
"512 336 LINE SMOOTH",
"512 362.5 OFFCURVE",
"490.5 384 OFFCURVE",
"464 384 CURVE SMOOTH",
"48 384 LINE SMOOTH",
"21.5 384 OFFCURVE",
"0 362.5 OFFCURVE",
"0 336 CURVE SMOOTH",
"0 317 LINE SMOOTH",
"0 309.6 OFFCURVE",
"3.4 302.7 OFFCURVE",
"9.2 298.1 CURVE SMOOTH",
"39.8 274.2 OFFCURVE",
"49.9 265.7 OFFCURVE",
"182.6 169.4 CURVE SMOOTH",
"199.4 157.2 OFFCURVE",
"232.8 127.6 OFFCURVE",
"256 128 CURVE SMOOTH"
);
}
);
width = 512;
}
);
note = envelope;
unicode = 2709;
},
{
glyphname = snowflake;
layers = (
{
layerId = "8CF30A56-F91F-4EB2-A618-934C961D83D1";
paths = (
{
closed = 1;
nodes = (
"406.5 122.3 LINE",
"432.5 129.3 LINE SMOOTH",
"440.7 131.5 OFFCURVE",
"445.6 140 OFFCURVE",
"443.4 148.2 CURVE SMOOTH",
"439.4 163.1 LINE SMOOTH",
"437.2 171.3 OFFCURVE",
"428.7 176.2 OFFCURVE",
"420.5 174 CURVE SMOOTH",
"349.7 155 LINE",
"285.8 192 LINE",
"349.6 228.9 LINE",
"420.4 209.9 LINE SMOOTH",
"428.6 207.7 OFFCURVE",
"437.1 212.6 OFFCURVE",
"439.3 220.8 CURVE SMOOTH",
"443.3 235.7 LINE SMOOTH",
"445.5 243.9 OFFCURVE",
"440.6 252.4 OFFCURVE",
"432.4 254.6 CURVE SMOOTH",
"406.4 261.6 LINE",
"440.2 281.1 LINE SMOOTH",
"447.6 285.4 OFFCURVE",
"450.1 294.8 OFFCURVE",
"445.9 302.2 CURVE SMOOTH",
"430.4 329 LINE SMOOTH",
"426.1 336.4 OFFCURVE",
"416.7 338.9 OFFCURVE",
"409.3 334.7 CURVE SMOOTH",
"375.5 315.2 LINE",
"382.5 341.2 LINE SMOOTH",
"384.7 349.4 OFFCURVE",
"379.8 357.9 OFFCURVE",
"371.6 360.1 CURVE SMOOTH",
"356.7 364.1 LINE SMOOTH",
"348.5 366.3 OFFCURVE",
"340 361.4 OFFCURVE",
"337.8 353.2 CURVE SMOOTH",
"318.8 282.4 LINE",
"256 246.2 LINE",
"256 323.7 LINE",
"309.7 377.4 LINE SMOOTH",
"315.9 383.6 OFFCURVE",
"315.9 393.8 OFFCURVE",
"309.7 400 CURVE SMOOTH",
"298.4 411.3 LINE SMOOTH",
"292.2 417.5 OFFCURVE",
"282 417.5 OFFCURVE",
"275.8 411.3 CURVE SMOOTH",
"256 391.6 LINE",
"256 432 LINE SMOOTH",
"256 440.8 OFFCURVE",
"248.8 448 OFFCURVE",
"240 448 CURVE SMOOTH",
"208 448 LINE SMOOTH",
"199.2 448 OFFCURVE",
"192 440.8 OFFCURVE",
"192 432 CURVE SMOOTH",
"192 391.6 LINE",
"172.3 411.3 LINE SMOOTH",
"166.1 417.5 OFFCURVE",
"155.9 417.5 OFFCURVE",
"149.7 411.3 CURVE SMOOTH",
"138.3 400 LINE SMOOTH",
"132 393.8 OFFCURVE",
"132 383.6 OFFCURVE",
"138.3 377.4 CURVE SMOOTH",
"192 323.7 LINE",
"192 246.2 LINE",
"129.2 282.4 LINE",
"110.2 353.2 LINE SMOOTH",
"108 361.4 OFFCURVE",
"99.5 366.3 OFFCURVE",
"91.3 364.1 CURVE SMOOTH",
"76.4 360.1 LINE SMOOTH",
"68.2 357.9 OFFCURVE",
"63.3 349.4 OFFCURVE",
"65.5 341.2 CURVE SMOOTH",
"72.5 315.2 LINE",
"38.7 334.7 LINE SMOOTH",
"31.3 339 OFFCURVE",
"21.9 336.4 OFFCURVE",
"17.6 329 CURVE SMOOTH",
"2.1 302.3 LINE SMOOTH",
"-2.2 294.9 OFFCURVE",
"0.4 285.5 OFFCURVE",
"7.8 281.2 CURVE SMOOTH",
"41.6 261.7 LINE",
"15.6 254.7 LINE SMOOTH",
"7.3 252.5 OFFCURVE",
"2.4 244 OFFCURVE",
"4.6 235.7 CURVE SMOOTH",
"8.6 220.8 LINE SMOOTH",
"10.8 212.6 OFFCURVE",
"19.3 207.7 OFFCURVE",
"27.5 209.9 CURVE SMOOTH",
"98.3 228.9 LINE",
"162.1 192 LINE",
"98.3 155.1 LINE",
"27.5 174.1 LINE SMOOTH",
"19.3 176.3 OFFCURVE",
"10.8 171.4 OFFCURVE",
"8.6 163.2 CURVE SMOOTH",
"4.6 148.3 LINE SMOOTH",
"2.4 140.1 OFFCURVE",
"7.3 131.6 OFFCURVE",
"15.5 129.4 CURVE SMOOTH",
"41.5 122.4 LINE",
"7.7 102.8 LINE SMOOTH",
"0.3 98.5 OFFCURVE",
"-2.2 89.1 OFFCURVE",
"2 81.7 CURVE SMOOTH",
"17.5 54.9 LINE SMOOTH",
"21.8 47.5 OFFCURVE",
"31.2 45 OFFCURVE",
"38.6 49.2 CURVE SMOOTH",
"72.4 68.7 LINE",
"65.4 42.7 LINE SMOOTH",
"63.2 34.5 OFFCURVE",
"68.1 26 OFFCURVE",
"76.3 23.8 CURVE SMOOTH",
"91.2 19.8 LINE SMOOTH",
"99.4 17.6 OFFCURVE",
"107.9 22.5 OFFCURVE",
"110.1 30.7 CURVE SMOOTH",
"129.1 101.5 LINE",
"191.9 137.7 LINE",
"191.9 60.2 LINE",
"138.2 6.5 LINE SMOOTH",
"131.9 0.3 OFFCURVE",
"131.9 -9.9 OFFCURVE",
"138.2 -16.1 CURVE SMOOTH",
"149.5 -27.4 LINE SMOOTH",
"155.7 -33.6 OFFCURVE",
"165.9 -33.6 OFFCURVE",
"172.1 -27.4 CURVE SMOOTH",
"191.8 -7.7 LINE",
"191.8 -48 LINE SMOOTH",
"191.8 -56.8 OFFCURVE",
"199 -64 OFFCURVE",
"207.8 -64 CURVE SMOOTH",
"239.8 -64 LINE SMOOTH",
"248.6 -64 OFFCURVE",
"255.8 -56.8 OFFCURVE",
"255.8 -48 CURVE SMOOTH",
"255.8 -7.6 LINE",
"275.5 -27.3 LINE SMOOTH",
"281.7 -33.5 OFFCURVE",
"291.9 -33.5 OFFCURVE",
"298.1 -27.3 CURVE SMOOTH",
"309.4 -16 LINE SMOOTH",
"315.6 -9.8 OFFCURVE",
"315.6 0.4 OFFCURVE",
"309.4 6.6 CURVE SMOOTH",
"256 60.3 LINE",
"256 137.8 LINE",
"318.8 101.6 LINE",
"337.8 30.8 LINE SMOOTH",
"340 22.6 OFFCURVE",
"348.5 17.7 OFFCURVE",
"356.7 19.9 CURVE SMOOTH",
"371.6 23.9 LINE SMOOTH",
"379.8 26.1 OFFCURVE",
"384.7 34.6 OFFCURVE",
"382.5 42.8 CURVE SMOOTH",
"375.5 68.8 LINE",
"409.3 49.3 LINE SMOOTH",
"416.7 45 OFFCURVE",
"426.1 47.6 OFFCURVE",
"430.4 55 CURVE SMOOTH",
"445.9 81.8 LINE SMOOTH",
"450.2 89.1 OFFCURVE",
"447.7 98.6 OFFCURVE",
"440.3 102.8 CURVE SMOOTH"
);
}
);
width = 448;
}
);
note = snowflake;
unicode = 2744;
},
{
glyphname = apple;
layers = (
{
layerId = "8CF30A56-F91F-4EB2-A618-934C961D83D1";
paths = (
{
closed = 1;
nodes = (
"407.17 240 OFFCURVE",
"400 232.83 OFFCURVE",
"400 224 CURVE SMOOTH",
"400 215.17 OFFCURVE",
"407.17 208 OFFCURVE",
"416 208 CURVE SMOOTH",
"424.83 208 OFFCURVE",
"432 215.17 OFFCURVE",
"432 224 CURVE SMOOTH",
"432 232.83 OFFCURVE",
"424.83 240 OFFCURVE",
"416 240 CURVE SMOOTH"
);
},
{
closed = 1;
nodes = (
"576 128 LINE",
"576 288 LINE SMOOTH",
"576 376.32 OFFCURVE",
"504.32 448 OFFCURVE",
"416 448 CURVE SMOOTH",
"64 448 LINE SMOOTH",
"28.67 448 OFFCURVE",
"0 419.33 OFFCURVE",
"0 384 CURVE SMOOTH",
"0 128 LINE SMOOTH",
"0 92.67 OFFCURVE",
"28.67 64 OFFCURVE",
"64 64 CURVE SMOOTH",
"96 64 LINE",
"96 11.01 OFFCURVE",
"139.01 -32 OFFCURVE",
"192 -32 CURVE SMOOTH",
"244.99 -32 OFFCURVE",
"288 11.01 OFFCURVE",
"288 64 CURVE",
"624 64 LINE SMOOTH",
"632.83 64 OFFCURVE",
"640 71.17 OFFCURVE",
"640 80 CURVE SMOOTH",
"640 112 LINE SMOOTH",
"640 120.83 OFFCURVE",
"632.83 128 OFFCURVE",
"624 128 CURVE SMOOTH"
);
},
{
closed = 1;
nodes = (
"165.5 16 OFFCURVE",
"144 37.5 OFFCURVE",
"144 64 CURVE SMOOTH",
"144 90.5 OFFCURVE",
"165.5 112 OFFCURVE",
"192 112 CURVE SMOOTH",
"218.5 112 OFFCURVE",
"240 90.5 OFFCURVE",
"240 64 CURVE SMOOTH",
"239.97 37.53 OFFCURVE",
"218.47 16.03 OFFCURVE",
"192 16 CURVE SMOOTH"
);
},
{
closed = 1;
nodes = (
"256 256 LINE SMOOTH",
"256 238.34 OFFCURVE",
"241.66 224 OFFCURVE",
"224 224 CURVE SMOOTH",
"96 224 LINE SMOOTH",
"78.34 224 OFFCURVE",
"64 238.34 OFFCURVE",
"64 256 CURVE SMOOTH",
"64 320 LINE SMOOTH",
"64 337.66 OFFCURVE",
"78.34 352 OFFCURVE",
"96 352 CURVE SMOOTH",
"224 352 LINE SMOOTH",
"241.66 352 OFFCURVE",
"256 337.66 OFFCURVE",
"256 320 CURVE SMOOTH"
);
},
{
closed = 1;
nodes = (
"448 128 LINE",
"320 128 LINE",
"320 320 LINE SMOOTH",
"320 337.66 OFFCURVE",
"334.34 352 OFFCURVE",
"352 352 CURVE SMOOTH",
"416 352 LINE SMOOTH",
"433.66 352 OFFCURVE",
"448 337.66 OFFCURVE",
"448 320 CURVE SMOOTH"
);
}
);
width = 640;
}
);
note = caravan;
unicode = F8FF;
},
{
glyphname = at;
layers = (
{
layerId = "8CF30A56-F91F-4EB2-A618-934C961D83D1";
paths = (
{
closed = 1;
nodes = (
"118.94 440 OFFCURVE",
"8 329.08 OFFCURVE",
"8 192 CURVE SMOOTH",
"8 54.94 OFFCURVE",
"118.92 -56 OFFCURVE",
"256 -56 CURVE SMOOTH",
"304.15 -56 OFFCURVE",
"351.34 -41.86 OFFCURVE",
"391.41 -15.78 CURVE SMOOTH",
"403.41 -7.96 OFFCURVE",
"406.04 8.51 OFFCURVE",
"396.96 19.59 CURVE SMOOTH",
"386.78 32.02 LINE SMOOTH",
"379.11 41.39 OFFCURVE",
"365.6 43.69 OFFCURVE",
"355.41 37.15 CURVE SMOOTH",
"325.92 18.24 OFFCURVE",
"291.31 7.99 OFFCURVE",
"256 7.99 CURVE SMOOTH",
"154.54 7.99 OFFCURVE",
"72 90.53 OFFCURVE",
"72 191.99 CURVE SMOOTH",
"72 293.45 OFFCURVE",
"154.54 375.99 OFFCURVE",
"256 375.99 CURVE SMOOTH",
"356.14 375.99 OFFCURVE",
"440 318.37 OFFCURVE",
"440 215.99 CURVE SMOOTH",
"440 177.2 OFFCURVE",
"418.91 136.25 OFFCURVE",
"381.83 132.3 CURVE",
"364.48 132.75 OFFCURVE",
"364.92 145.16 OFFCURVE",
"368.35 162.32 CURVE SMOOTH",
"391.78 283.43 LINE SMOOTH",
"394.65 298.24 OFFCURVE",
"383.3 311.99 OFFCURVE",
"368.22 311.99 CURVE SMOOTH",
"323.24 311.99 LINE",
"323.24 311.99 LINE SMOOTH",
"316.58 311.99 OFFCURVE",
"310.56 306.62 OFFCURVE",
"309.81 300 CURVE SMOOTH",
"309.8 299.91 LINE",
"295.1 317.81 OFFCURVE",
"269.35 321.69 OFFCURVE",
"249.83 321.69 CURVE SMOOTH",
"175.25 321.69 OFFCURVE",
"112 259.46 OFFCURVE",
"112 170.23 CURVE SMOOTH",
"112 104.93 OFFCURVE",
"148.79 64.36 OFFCURVE",
"208 64.36 CURVE SMOOTH",
"234.98 64.36 OFFCURVE",
"265.37 80 OFFCURVE",
"282.99 102.69 CURVE",
"292.51 68.59 OFFCURVE",
"323.6 68.59 OFFCURVE",
"353.7 68.59 CURVE SMOOTH",
"462.61 68.59 OFFCURVE",
"504 140.2 OFFCURVE",
"504 216 CURVE SMOOTH",
"504 352.35 OFFCURVE",
"394.02 440 OFFCURVE",
"256 440 CURVE SMOOTH"
);
},
{
closed = 1;
nodes = (
"212.07 135.57 OFFCURVE",
"198.25 151.19 OFFCURVE",
"198.25 176.34 CURVE SMOOTH",
"198.25 221.33 OFFCURVE",
"229.03 249.07 OFFCURVE",
"256.88 249.07 CURVE SMOOTH",
"279.17 249.07 OFFCURVE",
"292.48 233.83 OFFCURVE",
"292.48 208.3 CURVE SMOOTH",
"292.48 163.24 OFFCURVE",
"258.61 135.57 OFFCURVE",
"234.32 135.57 CURVE SMOOTH"
);
}
);
width = 512;
}
);
note = at;
unicode = 0040;
},
{
glyphname = paragraph;
layers = (
{
layerId = "8CF30A56-F91F-4EB2-A618-934C961D83D1";
paths = (
{
closed = 1;
nodes = (
"448 400 LINE SMOOTH",
"448 408.83 OFFCURVE",
"440.83 416 OFFCURVE",
"432 416 CURVE SMOOTH",
"192 416 LINE SMOOTH",
"103.68 416 OFFCURVE",
"32 344.32 OFFCURVE",
"32 256 CURVE SMOOTH",
"32 167.68 OFFCURVE",
"103.68 96 OFFCURVE",
"192 96 CURVE SMOOTH",
"224 96 LINE",
"224 -16 LINE SMOOTH",
"224 -24.83 OFFCURVE",
"231.17 -32 OFFCURVE",
"240 -32 CURVE SMOOTH",
"272 -32 LINE SMOOTH",
"280.83 -32 OFFCURVE",
"288 -24.83 OFFCURVE",
"288 -16 CURVE SMOOTH",
"288 352 LINE",
"320 352 LINE",
"320 -16 LINE SMOOTH",
"320 -24.83 OFFCURVE",
"327.17 -32 OFFCURVE",
"336 -32 CURVE SMOOTH",
"368 -32 LINE SMOOTH",
"376.83 -32 OFFCURVE",
"384 -24.83 OFFCURVE",
"384 -16 CURVE SMOOTH",
"384 352 LINE",
"432 352 LINE SMOOTH",
"440.83 352 OFFCURVE",
"448 359.17 OFFCURVE",
"448 368 CURVE SMOOTH"
);
}
);
width = 448;
}
);
note = paragraph;
unicode = 00B6;
},
{
glyphname = copyright;
layers = (
{
layerId = "8CF30A56-F91F-4EB2-A618-934C961D83D1";
paths = (
{
closed = 1;
nodes = (
"119.03 440 OFFCURVE",
"8 328.97 OFFCURVE",
"8 192 CURVE SMOOTH",
"8 55.03 OFFCURVE",
"119.03 -56 OFFCURVE",
"256 -56 CURVE SMOOTH",
"392.97 -56 OFFCURVE",
"504 55.03 OFFCURVE",
"504 192 CURVE SMOOTH",
"504 328.97 OFFCURVE",
"392.97 440 OFFCURVE",
"256 440 CURVE SMOOTH"
);
},
{
closed = 1;
nodes = (
"371.54 91.38 OFFCURVE",
"333.35 47.52 OFFCURVE",
"263.28 47.52 CURVE SMOOTH",
"178.59 47.52 OFFCURVE",
"118.8 110.78 OFFCURVE",
"118.8 193.09 CURVE SMOOTH",
"118.8 274.39 OFFCURVE",
"180.8 336.49 OFFCURVE",
"262.56 336.49 CURVE SMOOTH",
"329.52 336.49 OFFCURVE",
"364.53 299.17 OFFCURVE",
"365.98 297.59 CURVE SMOOTH",
"367.72 295.69 OFFCURVE",
"369.14 292.06 OFFCURVE",
"369.14 289.48 CURVE SMOOTH",
"369.14 287.53 OFFCURVE",
"368.28 284.61 OFFCURVE",
"367.22 282.97 CURVE SMOOTH",
"344.84 248.31 LINE SMOOTH",
"340.79 242.04 OFFCURVE",
"332.07 240.96 OFFCURVE",
"326.61 246.02 CURVE SMOOTH",
"326.38 246.23 OFFCURVE",
"300.08 269.9 OFFCURVE",
"264.73 269.9 CURVE SMOOTH",
"218.61 269.9 OFFCURVE",
"190.81 236.32 OFFCURVE",
"190.81 193.82 CURVE SMOOTH",
"190.81 154.22 OFFCURVE",
"216.32 114.13 OFFCURVE",
"265.09 114.13 CURVE SMOOTH",
"303.79 114.13 OFFCURVE",
"330.37 142.47 OFFCURVE",
"330.63 142.76 CURVE SMOOTH",
"335.76 148.32 OFFCURVE",
"344.69 147.79 OFFCURVE",
"349.14 141.71 CURVE SMOOTH",
"373.69 108.14 LINE SMOOTH",
"374.97 106.39 OFFCURVE",
"376 103.22 OFFCURVE",
"376 101.06 CURVE SMOOTH",
"376 98.62 OFFCURVE",
"374.72 95.13 OFFCURVE",
"373.13 93.28 CURVE SMOOTH"
);
}
);
width = 512;
}
);
note = copyright;
unicode = 00A9;
},
{
glyphname = registered;
layers = (
{
layerId = "8CF30A56-F91F-4EB2-A618-934C961D83D1";
paths = (
{
closed = 1;
nodes = (
"285.36 259.47 OFFCURVE",
"279.1 268.24 OFFCURVE",
"250.43 268.24 CURVE SMOOTH",
"227.05 268.24 LINE",
"227.05 212.1 LINE",
"256.93 212.1 LINE SMOOTH",
"275.53 212.1 OFFCURVE",
"285.36 221.93 OFFCURVE",
"285.36 240.53 CURVE SMOOTH"
);
},
{
closed = 1;
nodes = (
"504 328.97 OFFCURVE",
"392.97 440 OFFCURVE",
"256 440 CURVE SMOOTH",
"119.03 440 OFFCURVE",
"8 328.97 OFFCURVE",
"8 192 CURVE SMOOTH",
"8 55.03 OFFCURVE",
"119.03 -56 OFFCURVE",
"256 -56 CURVE SMOOTH",
"392.97 -56 OFFCURVE",
"504 55.03 OFFCURVE",
"504 192 CURVE SMOOTH"
);
},
{
closed = 1;
nodes = (
"372.22 71.59 OFFCURVE",
"360.65 52 OFFCURVE",
"342.39 52 CURVE SMOOTH",
"317.93 52 LINE SMOOTH",
"309.97 52 OFFCURVE",
"300.48 57.7 OFFCURVE",
"296.74 64.73 CURVE SMOOTH",
"252.61 147.67 LINE",
"227.05 147.67 LINE",
"227.05 76.01 LINE SMOOTH",
"227.05 62.76 OFFCURVE",
"216.3 52.01 OFFCURVE",
"203.05 52.01 CURVE SMOOTH",
"180.48 52.01 LINE SMOOTH",
"167.23 52.01 OFFCURVE",
"156.48 62.76 OFFCURVE",
"156.48 76.01 CURVE SMOOTH",
"156.48 308.31 LINE SMOOTH",
"156.48 321.56 OFFCURVE",
"167.23 332.31 OFFCURVE",
"180.48 332.31 CURVE SMOOTH",
"251.15 332.31 LINE SMOOTH",
"325.15 332.31 OFFCURVE",
"356.65 297.3 OFFCURVE",
"356.65 243.06 CURVE SMOOTH",
"356.65 211.55 OFFCURVE",
"342.14 183.75 OFFCURVE",
"318.7 168.57 CURVE",
"320.1 166.23 OFFCURVE",
"316.67 172.41 OFFCURVE",
"363.4 87.59 CURVE SMOOTH"
);
}
);
width = 512;
}
);
note = registered;
unicode = 00AE;
},
{
glyphname = trademark;
layers = (
{
layerId = "8CF30A56-F91F-4EB2-A618-934C961D83D1";
paths = (
{
closed = 1;
nodes = (
"12 352 LINE SMOOTH",
"5.4 352 OFFCURVE",
"0 346.6 OFFCURVE",
"0 340 CURVE SMOOTH",
"0 296.9 LINE SMOOTH",
"0 290.3 OFFCURVE",
"5.4 284.9 OFFCURVE",
"12 284.9 CURVE SMOOTH",
"97.1 284.9 LINE",
"97.1 44 LINE SMOOTH",
"97.1 37.4 OFFCURVE",
"102.5 32 OFFCURVE",
"109.1 32 CURVE SMOOTH",
"163.4 32 LINE SMOOTH",
"170 32 OFFCURVE",
"175.4 37.4 OFFCURVE",
"175.4 44 CURVE SMOOTH",
"175.4 284.9 LINE",
"260.5 284.9 LINE SMOOTH",
"267.1 284.9 OFFCURVE",
"272.5 290.3 OFFCURVE",
"272.5 296.9 CURVE SMOOTH",
"272.5 340 LINE SMOOTH",
"272.6 346.6 OFFCURVE",
"267.2 352 OFFCURVE",
"260.6 352 CURVE SMOOTH"
);
},
{
closed = 1;
nodes = (
"616 341 LINE SMOOTH",
"615.5 347.2 OFFCURVE",
"610.3 352 OFFCURVE",
"604 352 CURVE SMOOTH",
"538.6 352 LINE SMOOTH",
"533.5 352 OFFCURVE",
"528.9 348.7 OFFCURVE",
"527.3 343.9 CURVE SMOOTH",
"483.5 216.8 LINE SMOOTH",
"476.3 196.2 OFFCURVE",
"467.4 164 OFFCURVE",
"467.4 164 CURVE SMOOTH",
"466.5 164 LINE SMOOTH",
"466.5 164 OFFCURVE",
"457.6 196.2 OFFCURVE",
"450.4 216.8 CURVE SMOOTH",
"406.6 343.9 LINE SMOOTH",
"404.9 348.7 OFFCURVE",
"400.4 352 OFFCURVE",
"395.3 352 CURVE SMOOTH",
"329.9 352 LINE SMOOTH",
"323.7 352 OFFCURVE",
"318.5 347.2 OFFCURVE",
"317.9 341 CURVE SMOOTH",
"293.5 45 LINE SMOOTH",
"292.9 38 OFFCURVE",
"298.4 32 OFFCURVE",
"305.5 32 CURVE SMOOTH",
"360 32 LINE SMOOTH",
"366.3 32 OFFCURVE",
"371.5 36.9 OFFCURVE",
"372 43.2 CURVE SMOOTH",
"381.1 176.1 LINE SMOOTH",
"382.9 200.3 OFFCURVE",
"381.1 229.8 OFFCURVE",
"381.1 229.8 CURVE",
"382 229.8 LINE",
"382 229.8 OFFCURVE",
"392.7 196.2 OFFCURVE",
"399.9 176.1 CURVE SMOOTH",
"430.6 91.4 LINE SMOOTH",
"432.3 86.7 OFFCURVE",
"436.8 83.5 OFFCURVE",
"441.9 83.5 CURVE SMOOTH",
"492.2 83.5 LINE SMOOTH",
"497.3 83.5 OFFCURVE",
"501.8 86.7 OFFCURVE",
"503.5 91.4 CURVE SMOOTH",
"534.2 176.1 LINE SMOOTH",
"541.4 196.2 OFFCURVE",
"552.1 229.8 OFFCURVE",
"552.1 229.8 CURVE",
"553 229.8 LINE",
"553 229.8 OFFCURVE",
"551.2 200.3 OFFCURVE",
"553 176.1 CURVE SMOOTH",
"562.1 43.2 LINE SMOOTH",
"562.5 36.9 OFFCURVE",
"567.8 32 OFFCURVE",
"574.1 32 CURVE SMOOTH",
"628 32 LINE SMOOTH",
"635 32 OFFCURVE",
"640.5 38 OFFCURVE",
"640 45 CURVE SMOOTH"
);
}
);
width = 640;
}
);
note = trademark;
unicode = 2122;
},
{
glyphname = rainbow;
layers = (
{
layerId = "8CF30A56-F91F-4EB2-A618-934C961D83D1";
paths = (
{
closed = 1;
nodes = (
"115.4 405.1 OFFCURVE",
"0 271.1 OFFCURVE",
"0 117.8 CURVE SMOOTH",
"0 -16 LINE SMOOTH",
"0 -24.8 OFFCURVE",
"7.2 -32 OFFCURVE",
"16 -32 CURVE SMOOTH",
"48 -32 LINE SMOOTH",
"56.8 -32 OFFCURVE",
"64 -24.8 OFFCURVE",
"64 -16 CURVE SMOOTH",
"64 128 LINE SMOOTH",
"64 261.2 OFFCURVE",
"180.9 367.7 OFFCURVE",
"317.5 350.1 CURVE SMOOTH",
"430.4 335.6 OFFCURVE",
"512 234 OFFCURVE",
"512 120.2 CURVE SMOOTH",
"512 -16 LINE SMOOTH",
"512 -24.8 OFFCURVE",
"519.2 -32 OFFCURVE",
"528 -32 CURVE SMOOTH",
"560 -32 LINE SMOOTH",
"568.8 -32 OFFCURVE",
"576 -24.8 OFFCURVE",
"576 -16 CURVE SMOOTH",
"576 128 LINE SMOOTH",
"576 293.3 OFFCURVE",
"436 426.6 OFFCURVE",
"268.3 415.3 CURVE SMOOTH"
);
},
{
closed = 1;
nodes = (
"166 306 OFFCURVE",
"96 218.9 OFFCURVE",
"96 121.3 CURVE SMOOTH",
"96 -16 LINE SMOOTH",
"96 -24.8 OFFCURVE",
"103.2 -32 OFFCURVE",
"112 -32 CURVE SMOOTH",
"144 -32 LINE SMOOTH",
"152.8 -32 OFFCURVE",
"160 -24.8 OFFCURVE",
"160 -16 CURVE SMOOTH",
"160 128 LINE SMOOTH",
"160 202.8 OFFCURVE",
"224.5 262.8 OFFCURVE",
"300.8 255.4 CURVE SMOOTH",
"367.3 248.9 OFFCURVE",
"416 189.2 OFFCURVE",
"416 122.3 CURVE SMOOTH",
"416 -16 LINE SMOOTH",
"416 -24.8 OFFCURVE",
"423.2 -32 OFFCURVE",
"432 -32 CURVE SMOOTH",
"464 -32 LINE SMOOTH",
"472.8 -32 OFFCURVE",
"480 -24.8 OFFCURVE",
"480 -16 CURVE SMOOTH",
"480 128 LINE SMOOTH",
"480 242.2 OFFCURVE",
"379.8 333.4 OFFCURVE",
"262.7 318.4 CURVE SMOOTH"
);
},
{
closed = 1;
nodes = (
"223.3 213.2 OFFCURVE",
"192 170.6 OFFCURVE",
"192 124.2 CURVE SMOOTH",
"192 -16 LINE SMOOTH",
"192 -24.8 OFFCURVE",
"199.2 -32 OFFCURVE",
"208 -32 CURVE SMOOTH",
"240 -32 LINE SMOOTH",
"248.8 -32 OFFCURVE",
"256 -24.8 OFFCURVE",
"256 -16 CURVE SMOOTH",
"256 128 LINE SMOOTH",
"256 145.6 OFFCURVE",
"270.3 160 OFFCURVE",
"288 160 CURVE SMOOTH",
"305.7 160 OFFCURVE",
"320 145.6 OFFCURVE",
"320 128 CURVE SMOOTH",
"320 -16 LINE SMOOTH",
"320 -24.8 OFFCURVE",
"327.2 -32 OFFCURVE",
"336 -32 CURVE SMOOTH",
"368 -32 LINE SMOOTH",
"376.8 -32 OFFCURVE",
"384 -24.8 OFFCURVE",
"384 -16 CURVE SMOOTH",
"384 128 LINE SMOOTH",
"384 187.2 OFFCURVE",
"330.2 234 OFFCURVE",
"268.9 222.1 CURVE SMOOTH"
);
}
);
width = 576;
}
);
note = rainbow;
unicode = 1F308;
},
{
glyphname = thermometer;
layers = (
{
layerId = "8CF30A56-F91F-4EB2-A618-934C961D83D1";
paths = (
{
closed = 1;
nodes = (
"439.3 458.3 OFFCURVE",
"381.3 453.9 OFFCURVE",
"344.9 417.4 CURVE SMOOTH",
"299.2 371.4 LINE",
"349.7 320.9 LINE SMOOTH",
"352.8 317.8 OFFCURVE",
"352.8 312.7 OFFCURVE",
"349.7 309.6 CURVE SMOOTH",
"338.4 298.3 LINE SMOOTH",
"335.3 295.2 OFFCURVE",
"330.2 295.2 OFFCURVE",
"327.1 298.3 CURVE SMOOTH",
"276.7 348.8 LINE",
"231.6 303.4 LINE",
"281.9 253 LINE SMOOTH",
"285 249.9 OFFCURVE",
"285 244.8 OFFCURVE",
"281.9 241.7 CURVE SMOOTH",
"270.6 230.4 LINE SMOOTH",
"267.5 227.3 OFFCURVE",
"262.4 227.3 OFFCURVE",
"259.3 230.4 CURVE SMOOTH",
"209 280.6 LINE",
"163.9 235.2 LINE",
"214 185 LINE SMOOTH",
"217.1 181.9 OFFCURVE",
"217.1 176.8 OFFCURVE",
"214 173.7 CURVE SMOOTH",
"202.7 162.4 LINE SMOOTH",
"199.6 159.3 OFFCURVE",
"194.5 159.3 OFFCURVE",
"191.4 162.4 CURVE SMOOTH",
"141.3 212.6 LINE",
"96 166.9 LINE",
"96 66 LINE",
"7 -23 LINE SMOOTH",
"-2.4 -32.4 OFFCURVE",
"-2.4 -47.6 OFFCURVE",
"7 -56.9 CURVE SMOOTH",
"16.4 -66.3 OFFCURVE",
"31.6 -66.3 OFFCURVE",
"40.9 -56.9 CURVE SMOOTH",
"129.9 32.1 LINE",
"229.8 32.1 LINE",
"484 285.4 LINE SMOOTH",
"518.9 320.3 OFFCURVE",
"526.2 386.9 OFFCURVE",
"476.8 427.6 CURVE SMOOTH"
);
}
);
width = 512;
}
);
note = thermometer;
unicode = 1F321;
},
{
glyphname = seedling;
layers = (
{
layerId = "8CF30A56-F91F-4EB2-A618-934C961D83D1";
paths = (
{
closed = 1;
nodes = (
"0 352 LINE",
"0 228.3 OFFCURVE",
"100.3 128 OFFCURVE",
"224 128 CURVE",
"224 -16 LINE SMOOTH",
"224 -24.8 OFFCURVE",
"231.2 -32 OFFCURVE",
"240 -32 CURVE SMOOTH",
"272 -32 LINE SMOOTH",
"280.8 -32 OFFCURVE",
"288 -24.8 OFFCURVE",
"288 -16 CURVE SMOOTH",
"288 128 LINE SMOOTH",
"288 251.7 OFFCURVE",
"187.7 352 OFFCURVE",
"64 352 CURVE SMOOTH"
);
},
{
closed = 1;
nodes = (
"448 416 LINE SMOOTH",
"363.8 416 OFFCURVE",
"290.6 369.5 OFFCURVE",
"252.3 300.8 CURVE",
"280 270.6 OFFCURVE",
"300.5 233.9 OFFCURVE",
"311.3 193.2 CURVE",
"424 204.9 OFFCURVE",
"512 300.1 OFFCURVE",
"512 416 CURVE"
);
}
);
width = 512;
}
);
note = seedling;
unicode = 1F331;
},
{
glyphname = lemon;
layers = (
{
layerId = "8CF30A56-F91F-4EB2-A618-934C961D83D1";
paths = (
{
closed = 1;
nodes = (
"465.95 448.13 OFFCURVE",
"434.65 453.93 OFFCURVE",
"413.95 441.87 CURVE SMOOTH",
"355.04 407.56 OFFCURVE",
"232.7 494.95 OFFCURVE",
"92.88 355.12 CURVE SMOOTH",
"-46.94 215.3 OFFCURVE",
"40.45 92.95 OFFCURVE",
"6.13 34.05 CURVE SMOOTH",
"-5.93 13.35 OFFCURVE",
"-0.13 -17.95 OFFCURVE",
"22.96 -41.04 CURVE SMOOTH",
"46.05 -64.13 OFFCURVE",
"77.35 -69.93 OFFCURVE",
"98.05 -57.87 CURVE SMOOTH",
"156.95 -23.56 OFFCURVE",
"279.3 -110.95 OFFCURVE",
"419.12 28.87 CURVE SMOOTH",
"558.94 168.69 OFFCURVE",
"471.55 291.04 OFFCURVE",
"505.87 349.94 CURVE SMOOTH",
"517.93 370.64 OFFCURVE",
"512.13 401.94 OFFCURVE",
"489.04 425.03 CURVE SMOOTH"
);
},
{
closed = 1;
nodes = (
"185.69 337.92 OFFCURVE",
"110.07 262.32 OFFCURVE",
"95.52 204.11 CURVE SMOOTH",
"93.7 196.84 OFFCURVE",
"87.18 191.99 OFFCURVE",
"80.01 191.99 CURVE SMOOTH",
"78.73 191.99 OFFCURVE",
"77.42 192.15 OFFCURVE",
"76.12 192.47 CURVE SMOOTH",
"67.55 194.61 OFFCURVE",
"62.34 203.3 OFFCURVE",
"64.48 211.87 CURVE SMOOTH",
"81.9 281.56 OFFCURVE",
"166.32 366.06 OFFCURVE",
"236.12 383.51 CURVE SMOOTH",
"244.7 385.65 OFFCURVE",
"253.38 380.44 OFFCURVE",
"255.52 371.87 CURVE SMOOTH",
"257.66 363.3 OFFCURVE",
"252.45 354.61 OFFCURVE",
"243.88 352.47 CURVE SMOOTH"
);
}
);
width = 512;
}
);
note = lemon;
unicode = 1F34B;
},
{
glyphname = hamburger;
layers = (
{
layerId = "8CF30A56-F91F-4EB2-A618-934C961D83D1";
paths = (
{
closed = 1;
nodes = (
"48 192 LINE SMOOTH",
"21.5 192 OFFCURVE",
"0 170.5 OFFCURVE",
"0 144 CURVE SMOOTH",
"0 117.5 OFFCURVE",
"21.5 96 OFFCURVE",
"48 96 CURVE SMOOTH",
"464 96 LINE SMOOTH",
"490.5 96 OFFCURVE",
"512 117.5 OFFCURVE",
"512 144 CURVE SMOOTH",
"512 170.5 OFFCURVE",
"490.5 192 OFFCURVE",
"464 192 CURVE SMOOTH"
);
},
{
closed = 1;
nodes = (
"32 64 LINE SMOOTH",
"23.17 64 OFFCURVE",
"16 56.83 OFFCURVE",
"16 48 CURVE SMOOTH",
"16 32 LINE SMOOTH",
"16 -3.33 OFFCURVE",
"44.67 -32 OFFCURVE",
"80 -32 CURVE SMOOTH",
"432 -32 LINE SMOOTH",
"467.33 -32 OFFCURVE",
"496 -3.33 OFFCURVE",
"496 32 CURVE SMOOTH",
"496 48 LINE SMOOTH",
"496 56.83 OFFCURVE",
"488.83 64 OFFCURVE",
"480 64 CURVE SMOOTH"
);
},
{
closed = 1;
nodes = (
"453.36 224 LINE SMOOTH",
"487.93 224 OFFCURVE",
"507.98 267.9 OFFCURVE",
"488.18 299.88 CURVE SMOOTH",
"448 364.8 OFFCURVE",
"359.55 415.9 OFFCURVE",
"256 416 CURVE SMOOTH",
"152.46 415.9 OFFCURVE",
"64 364.8 OFFCURVE",
"23.82 299.89 CURVE SMOOTH",
"4 267.91 OFFCURVE",
"24.07 224 OFFCURVE",
"58.64 224 CURVE SMOOTH"
);
},
{
closed = 1;
nodes = (
"392.83 336 OFFCURVE",
"400 328.83 OFFCURVE",
"400 320 CURVE SMOOTH",
"400 311.17 OFFCURVE",
"392.83 304 OFFCURVE",
"384 304 CURVE SMOOTH",
"375.17 304 OFFCURVE",
"368 311.17 OFFCURVE",
"368 320 CURVE SMOOTH",
"368 328.83 OFFCURVE",
"375.17 336 OFFCURVE",
"384 336 CURVE SMOOTH"
);
},
{
closed = 1;
nodes = (
"264.83 368 OFFCURVE",
"272 360.83 OFFCURVE",
"272 352 CURVE SMOOTH",
"272 343.17 OFFCURVE",
"264.83 336 OFFCURVE",
"256 336 CURVE SMOOTH",
"247.17 336 OFFCURVE",
"240 343.17 OFFCURVE",
"240 352 CURVE SMOOTH",
"240 360.83 OFFCURVE",
"247.17 368 OFFCURVE",
"256 368 CURVE SMOOTH"
);
},
{
closed = 1;
nodes = (
"136.83 336 OFFCURVE",
"144 328.83 OFFCURVE",
"144 320 CURVE SMOOTH",
"144 311.17 OFFCURVE",
"136.83 304 OFFCURVE",
"128 304 CURVE SMOOTH",
"119.17 304 OFFCURVE",
"112 311.17 OFFCURVE",
"112 320 CURVE SMOOTH",
"112 328.83 OFFCURVE",
"119.17 336 OFFCURVE",
"128 336 CURVE SMOOTH"
);
}
);
width = 512;
}
);
note = hamburger;
unicode = 1F354;
},
{
glyphname = cookie;
layers = (
{
layerId = "8CF30A56-F91F-4EB2-A618-934C961D83D1";
paths = (
{
closed = 1;
nodes = (
"498.29 269.47 LINE SMOOTH",
"494.57 292.94 OFFCURVE",
"477.93 325.62 OFFCURVE",
"461.13 342.42 CURVE SMOOTH",
"406.37 397.17 LINE SMOOTH",
"386.64 416.89 OFFCURVE",
"361.19 429.87 OFFCURVE",
"333.66 434.22 CURVE SMOOTH",
"256.96 446.37 LINE SMOOTH",
"229.45 450.73 OFFCURVE",
"201.27 446.26 OFFCURVE",
"176.44 433.61 CURVE SMOOTH",
"107.32 398.4 LINE SMOOTH",
"86.19 387.63 OFFCURVE",
"60.3 361.73 OFFCURVE",
"49.53 340.6 CURVE SMOOTH",
"14.43 271.72 LINE SMOOTH",
"6.45 256.06 OFFCURVE",
"-0.02 229.09 OFFCURVE",
"-0.02 211.52 CURVE SMOOTH",
"-0.02 205.76 OFFCURVE",
"0.71 196.47 OFFCURVE",
"1.61 190.78 CURVE SMOOTH",
"13.69 114.51 LINE SMOOTH",
"17.4 91.04 OFFCURVE",
"34.05 58.36 OFFCURVE",
"50.85 41.56 CURVE SMOOTH",
"105.61 -13.19 LINE SMOOTH",
"122.36 -29.93 OFFCURVE",
"154.93 -46.53 OFFCURVE",
"178.32 -50.24 CURVE SMOOTH",
"255.02 -62.38 LINE SMOOTH",
"282.53 -66.74 OFFCURVE",
"310.71 -62.27 OFFCURVE",
"335.54 -49.63 CURVE SMOOTH",
"404.66 -14.42 LINE SMOOTH",
"425.79 -3.65 OFFCURVE",
"451.68 22.25 OFFCURVE",
"462.45 43.38 CURVE SMOOTH",
"497.55 112.25 LINE SMOOTH",
"510.26 137.21 OFFCURVE",
"514.75 165.55 OFFCURVE",
"510.37 193.21 CURVE SMOOTH"
);
},
{
closed = 1;
nodes = (
"158.33 80 OFFCURVE",
"144 94.33 OFFCURVE",
"144 112 CURVE SMOOTH",
"144 129.67 OFFCURVE",
"158.33 144 OFFCURVE",
"176 144 CURVE SMOOTH",
"193.67 144 OFFCURVE",
"208 129.67 OFFCURVE",
"208 112 CURVE SMOOTH",
"208 94.33 OFFCURVE",
"193.67 80 OFFCURVE",
"176 80 CURVE SMOOTH"
);
},
{
closed = 1;
nodes = (
"190.33 240 OFFCURVE",
"176 254.33 OFFCURVE",
"176 272 CURVE SMOOTH",
"176 289.67 OFFCURVE",
"190.33 304 OFFCURVE",
"208 304 CURVE SMOOTH",
"225.67 304 OFFCURVE",
"240 289.67 OFFCURVE",
"240 272 CURVE SMOOTH",
"240 254.33 OFFCURVE",
"225.67 240 OFFCURVE",
"208 240 CURVE SMOOTH"
);
},
{
closed = 1;
nodes = (
"350.33 112 OFFCURVE",
"336 126.33 OFFCURVE",
"336 144 CURVE SMOOTH",
"336 161.67 OFFCURVE",
"350.33 176 OFFCURVE",
"368 176 CURVE SMOOTH",
"385.67 176 OFFCURVE",
"400 161.67 OFFCURVE",
"400 144 CURVE SMOOTH",
"400 126.33 OFFCURVE",
"385.67 112 OFFCURVE",
"368 112 CURVE SMOOTH"
);
}
);
width = 512;
}
);
note = cookie;
unicode = 1F36A;
},
{
glyphname = ribbon;
layers = (
{
layerId = "8CF30A56-F91F-4EB2-A618-934C961D83D1";
paths = (
{
closed = 1;
nodes = (
"6.1 3.7 LINE SMOOTH",
"-3.5 -7.1 OFFCURVE",
"-1.4 -23.9 OFFCURVE",
"10.6 -32 CURVE",
"79.4 -59.9 LINE",
"89.3 -66.6 OFFCURVE",
"102.7 -64.9 OFFCURVE",
"110.7 -56.1 CURVE SMOOTH",
"202.5 45.8 LINE",
"123.3 133.7 LINE"
);
},
{
closed = 1;
nodes = (
"441.9 3.7 OFFCURVE",
"149.9 328.3 OFFCURVE",
"146.5 333.8 CURVE",
"161.9 342.2 OFFCURVE",
"186.7 351.7 OFFCURVE",
"224 351.7 CURVE SMOOTH",
"261.3 351.7 OFFCURVE",
"286.1 342.2 OFFCURVE",
"301.5 333.8 CURVE",
"298.2 328.2 OFFCURVE",
"245.5 269.2 OFFCURVE",
"245.5 269.2 CURVE",
"324.6 181.5 LINE",
"358.8 219.5 LINE SMOOTH",
"387.5 251.4 OFFCURVE",
"392.1 298.1 OFFCURVE",
"370.2 335 CURVE SMOOTH",
"326.5 408.5 LINE SMOOTH",
"322.2 415.7 OFFCURVE",
"316.6 421.8 OFFCURVE",
"309.7 426.5 CURVE SMOOTH",
"269 454.1 OFFCURVE",
"182.3 456.2 OFFCURVE",
"138.3 426.5 CURVE SMOOTH",
"131.4 421.8 OFFCURVE",
"125.8 415.7 OFFCURVE",
"121.5 408.5 CURVE SMOOTH",
"77.9 335.3 LINE SMOOTH",
"76.4 332.8 OFFCURVE",
"40.8 273.1 OFFCURVE",
"89.4 219.3 CURVE SMOOTH",
"337.5 -56 LINE SMOOTH",
"345.5 -64.9 OFFCURVE",
"358.9 -66.5 OFFCURVE",
"368.8 -59.8 CURVE",
"437.6 -31.9 LINE",
"449.5 -23.9 OFFCURVE",
"451.6 -7.1 OFFCURVE",
"441.9 3.7 CURVE"
);
}
);
width = 448;
}
);
note = ribbon;
unicode = 1F380;
},
{
glyphname = microphone;
layers = (
{
layerId = "8CF30A56-F91F-4EB2-A618-934C961D83D1";
paths = (
{
closed = 1;
nodes = (
"229.02 96 OFFCURVE",
"272 138.98 OFFCURVE",
"272 192 CURVE SMOOTH",
"272 352 LINE SMOOTH",
"272 405.02 OFFCURVE",
"229.02 448 OFFCURVE",
"176 448 CURVE SMOOTH",
"122.98 448 OFFCURVE",
"80 405.02 OFFCURVE",
"80 352 CURVE SMOOTH",
"80 192 LINE SMOOTH",
"80 138.98 OFFCURVE",
"122.98 96 OFFCURVE",
"176 96 CURVE SMOOTH"
);
},
{
closed = 1;
nodes = (
"320 256 LINE SMOOTH",
"311.16 256 OFFCURVE",
"304 248.84 OFFCURVE",
"304 240 CURVE SMOOTH",
"304 192 LINE SMOOTH",
"304 117.2 OFFCURVE",
"239.51 57.18 OFFCURVE",
"163.21 64.62 CURVE SMOOTH",
"96.71 71.11 OFFCURVE",
"48 130.89 OFFCURVE",
"48 197.7 CURVE SMOOTH",
"48 240 LINE SMOOTH",
"48 248.84 OFFCURVE",
"40.84 256 OFFCURVE",
"32 256 CURVE SMOOTH",
"16 256 LINE SMOOTH",
"7.16 256 OFFCURVE",
"0 248.84 OFFCURVE",
"0 240 CURVE SMOOTH",
"0 199.84 LINE SMOOTH",
"0 110.2 OFFCURVE",
"63.97 30.29 OFFCURVE",
"152 18.15 CURVE",
"152 -16 LINE",
"96 -16 LINE SMOOTH",
"87.16 -16 OFFCURVE",
"80 -23.16 OFFCURVE",
"80 -32 CURVE SMOOTH",
"80 -48 LINE SMOOTH",
"80 -56.84 OFFCURVE",
"87.16 -64 OFFCURVE",
"96 -64 CURVE SMOOTH",
"256 -64 LINE SMOOTH",
"264.84 -64 OFFCURVE",
"272 -56.84 OFFCURVE",
"272 -48 CURVE SMOOTH",
"272 -32 LINE SMOOTH",
"272 -23.16 OFFCURVE",
"264.84 -16 OFFCURVE",
"256 -16 CURVE SMOOTH",
"200 -16 LINE",
"200 17.77 LINE",
"285.71 29.53 OFFCURVE",
"352 103.1 OFFCURVE",
"352 192 CURVE SMOOTH",
"352 240 LINE SMOOTH",
"352 248.84 OFFCURVE",
"344.84 256 OFFCURVE",
"336 256 CURVE SMOOTH"
);
}
);
width = 352;
}
);
note = microphone;
unicode = 1F3A4;
},
{
glyphname = guitar;
layers = (
{
layerId = "8CF30A56-F91F-4EB2-A618-934C961D83D1";
paths = (
{
closed = 1;
nodes = (
"473 438.63 LINE SMOOTH",
"467.83 443.8 OFFCURVE",
"457.69 448.01 OFFCURVE",
"450.37 448.01 CURVE SMOOTH",
"443.05 448.01 OFFCURVE",
"432.91 443.81 OFFCURVE",
"427.74 438.64 CURVE SMOOTH",
"381.46 392.31 LINE SMOOTH",
"378.2 389.06 OFFCURVE",
"374.38 382.88 OFFCURVE",
"372.93 378.52 CURVE SMOOTH",
"360.77 342.01 LINE",
"284.51 265.75 LINE",
"272.35 274.51 OFFCURVE",
"259.01 281.49 OFFCURVE",
"244.41 284.89 CURVE SMOOTH",
"210.96 292.67 OFFCURVE",
"177.41 285.77 OFFCURVE",
"154.53 262.89 CURVE SMOOTH",
"146.69 255.02 OFFCURVE",
"137.62 240.02 OFFCURVE",
"134.29 229.42 CURVE SMOOTH",
"128.29 210.86 OFFCURVE",
"111.08 196.73 OFFCURVE",
"92.14 194.96 CURVE SMOOTH",
"68.44 192.69 OFFCURVE",
"46.41 183.51 OFFCURVE",
"29.53 166.52 CURVE SMOOTH",
"-16.11 121.01 OFFCURVE",
"-7.9 39.01 OFFCURVE",
"47.58 -16.44 CURVE SMOOTH",
"103.06 -71.89 OFFCURVE",
"185 -79.99 OFFCURVE",
"230.56 -34.51 CURVE SMOOTH",
"247.56 -17.63 OFFCURVE",
"256.72 4.39 OFFCURVE",
"259.01 28.2 CURVE SMOOTH",
"260.77 47.05 OFFCURVE",
"274.9 64.33 OFFCURVE",
"293.44 70.34 CURVE SMOOTH",
"304.04 73.68 OFFCURVE",
"319.04 82.75 OFFCURVE",
"326.92 90.59 CURVE SMOOTH",
"349.79 113.47 OFFCURVE",
"356.66 146.95 OFFCURVE",
"348.92 180.34 CURVE SMOOTH",
"345.53 194.98 OFFCURVE",
"338.55 208.34 OFFCURVE",
"329.76 220.54 CURVE",
"406 296.78 LINE",
"442.48 308.94 LINE SMOOTH",
"446.84 310.39 OFFCURVE",
"453.02 314.21 OFFCURVE",
"456.27 317.47 CURVE SMOOTH",
"502.6 363.79 LINE SMOOTH",
"507.77 368.96 OFFCURVE",
"511.97 379.1 OFFCURVE",
"511.97 386.42 CURVE SMOOTH",
"511.97 393.72 OFFCURVE",
"507.79 403.84 OFFCURVE",
"502.63 409.01 CURVE SMOOTH"
);
},
{
closed = 1;
nodes = (
"181.5 96.01 OFFCURVE",
"160 117.51 OFFCURVE",
"160 144.01 CURVE SMOOTH",
"160 170.51 OFFCURVE",
"181.5 192.01 OFFCURVE",
"208 192.01 CURVE SMOOTH",
"234.5 192.01 OFFCURVE",
"256 170.51 OFFCURVE",
"256 144.01 CURVE SMOOTH",
"256 117.51 OFFCURVE",
"234.5 96.01 OFFCURVE",
"208 96.01 CURVE SMOOTH"
);
}
);
width = 512;
}
);
note = guitar;
unicode = 1F3B8;
},
{
glyphname = trophy;
layers = (
{
layerId = "8CF30A56-F91F-4EB2-A618-934C961D83D1";
paths = (
{
closed = 1;
nodes = (
"448 384 LINE",
"448 424 LINE SMOOTH",
"448 437.3 OFFCURVE",
"437.3 448 OFFCURVE",
"424 448 CURVE SMOOTH",
"152 448 LINE SMOOTH",
"138.7 448 OFFCURVE",
"128 437.3 OFFCURVE",
"128 424 CURVE SMOOTH",
"128 384 LINE",
"24 384 LINE SMOOTH",
"10.7 384 OFFCURVE",
"0 373.3 OFFCURVE",
"0 360 CURVE SMOOTH",
"0 304 LINE SMOOTH",
"0 268.3 OFFCURVE",
"22.5 231.6 OFFCURVE",
"61.9 203.3 CURVE SMOOTH",
"93.4 180.6 OFFCURVE",
"131.7 166.2 OFFCURVE",
"171.9 161.6 CURVE",
"203.3 109.5 OFFCURVE",
"240 88 OFFCURVE",
"240 88 CURVE",
"240 16 LINE",
"192 16 LINE SMOOTH",
"156.7 16 OFFCURVE",
"128 -4.7 OFFCURVE",
"128 -40 CURVE SMOOTH",
"128 -52 LINE SMOOTH",
"128 -58.6 OFFCURVE",
"133.4 -64 OFFCURVE",
"140 -64 CURVE SMOOTH",
"436 -64 LINE SMOOTH",
"442.6 -64 OFFCURVE",
"448 -58.6 OFFCURVE",
"448 -52 CURVE SMOOTH",
"448 -40 LINE SMOOTH",
"448 -4.7 OFFCURVE",
"419.3 16 OFFCURVE",
"384 16 CURVE SMOOTH",
"336 16 LINE",
"336 88 LINE",
"336 88 OFFCURVE",
"372.7 109.5 OFFCURVE",
"404.1 161.6 CURVE",
"444.4 166.2 OFFCURVE",
"482.7 180.6 OFFCURVE",
"514.1 203.3 CURVE SMOOTH",
"553.4 231.6 OFFCURVE",
"576 268.3 OFFCURVE",
"576 304 CURVE SMOOTH",
"576 360 LINE SMOOTH",
"576 373.3 OFFCURVE",
"565.3 384 OFFCURVE",
"552 384 CURVE SMOOTH"
);
},
{
closed = 1;
nodes = (
"74.9 272.8 OFFCURVE",
"64 292.4 OFFCURVE",
"64 304 CURVE SMOOTH",
"64 320 LINE",
"128.2 320 LINE",
"129.2 287.4 OFFCURVE",
"134 258.8 OFFCURVE",
"141 233.8 CURVE",
"125.9 239 OFFCURVE",
"111.8 246.2 OFFCURVE",
"99.3 255.2 CURVE SMOOTH"
);
},
{
closed = 1;
nodes = (
"512 304 LINE SMOOTH",
"512 287.9 OFFCURVE",
"494.3 267.9 OFFCURVE",
"476.7 255.2 CURVE SMOOTH",
"464.2 246.2 OFFCURVE",
"450 239 OFFCURVE",
"434.9 233.8 CURVE",
"441.9 258.8 OFFCURVE",
"446.7 287.4 OFFCURVE",
"447.7 320 CURVE",
"512 320 LINE"
);
}
);
width = 576;
}
);
note = trophy;
unicode = 1F3C6;
},
{
glyphname = swimmer;
layers = (
{
layerId = "8CF30A56-F91F-4EB2-A618-934C961D83D1";
paths = (
{
closed = 1;
nodes = (
"193.15 134.16 OFFCURVE",
"204.88 128 OFFCURVE",
"224 128 CURVE SMOOTH",
"243.12 128 OFFCURVE",
"254.86 134.16 OFFCURVE",
"258.39 137.42 CURVE SMOOTH",
"274.41 152.19 OFFCURVE",
"292.89 160 OFFCURVE",
"311.85 160 CURVE SMOOTH",
"328.15 160 LINE SMOOTH",
"347.11 160 OFFCURVE",
"365.6 152.19 OFFCURVE",
"381.61 137.42 CURVE SMOOTH",
"385.15 134.16 OFFCURVE",
"396.88 128 OFFCURVE",
"416 128 CURVE SMOOTH",
"435.12 128 OFFCURVE",
"446.86 134.16 OFFCURVE",
"450.39 137.42 CURVE SMOOTH",
"465.25 151.13 OFFCURVE",
"482.27 158.54 OFFCURVE",
"499.78 159.58 CURVE",
"386.94 240.18 LINE",
"404.94 253.04 LINE SMOOTH",
"408.58 255.62 OFFCURVE",
"413.22 256.56 OFFCURVE",
"417.56 255.65 CURVE SMOOTH",
"517.91 234.12 LINE SMOOTH",
"543.82 228.59 OFFCURVE",
"569.35 245.09 OFFCURVE",
"574.91 271 CURVE SMOOTH",
"580.46 296.92 OFFCURVE",
"563.96 322.44 OFFCURVE",
"538.03 328 CURVE SMOOTH",
"437.68 349.53 LINE SMOOTH",
"406.95 356.11 OFFCURVE",
"374.66 349.41 OFFCURVE",
"349.12 331.15 CURVE SMOOTH",
"269.1 273.98 LINE SMOOTH",
"258.72 266.59 OFFCURVE",
"249.74 257.54 OFFCURVE",
"242.38 247.04 CURVE SMOOTH",
"173.75 149 LINE",
"179.22 145.77 OFFCURVE",
"184.57 142.07 OFFCURVE",
"189.61 137.42 CURVE SMOOTH"
);
},
{
closed = 1;
nodes = (
"608 96 LINE SMOOTH",
"581.96 96 OFFCURVE",
"562.2 104.42 OFFCURVE",
"551.91 113.9 CURVE SMOOTH",
"543.01 122.11 OFFCURVE",
"532.25 128 OFFCURVE",
"520.14 128 CURVE SMOOTH",
"503.84 128 LINE SMOOTH",
"491.73 128 OFFCURVE",
"480.97 122.11 OFFCURVE",
"472.07 113.9 CURVE SMOOTH",
"461.8 104.42 OFFCURVE",
"442.04 96 OFFCURVE",
"416 96 CURVE SMOOTH",
"389.96 96 OFFCURVE",
"370.2 104.42 OFFCURVE",
"359.91 113.9 CURVE SMOOTH",
"351.01 122.11 OFFCURVE",
"340.25 128 OFFCURVE",
"328.14 128 CURVE SMOOTH",
"311.84 128 LINE SMOOTH",
"299.73 128 OFFCURVE",
"288.97 122.11 OFFCURVE",
"280.07 113.9 CURVE SMOOTH",
"269.8 104.42 OFFCURVE",
"250.04 96 OFFCURVE",
"224 96 CURVE SMOOTH",
"197.96 96 OFFCURVE",
"178.2 104.42 OFFCURVE",
"167.91 113.9 CURVE SMOOTH",
"159.01 122.11 OFFCURVE",
"148.25 128 OFFCURVE",
"136.14 128 CURVE SMOOTH",
"119.84 128 LINE SMOOTH",
"107.73 128 OFFCURVE",
"96.97 122.11 OFFCURVE",
"88.07 113.9 CURVE SMOOTH",
"77.8 104.42 OFFCURVE",
"58.04 96 OFFCURVE",
"32 96 CURVE SMOOTH",
"16 96 LINE SMOOTH",
"7.16 96 OFFCURVE",
"0 88.84 OFFCURVE",
"0 80 CURVE SMOOTH",
"0 48 LINE SMOOTH",
"0 39.16 OFFCURVE",
"7.16 32 OFFCURVE",
"16 32 CURVE SMOOTH",
"32 32 LINE SMOOTH",
"70.62 32 OFFCURVE",
"104.72 44.19 OFFCURVE",
"128 63.84 CURVE",
"151.28 44.18 OFFCURVE",
"185.38 32 OFFCURVE",
"224 32 CURVE SMOOTH",
"262.62 32 OFFCURVE",
"296.72 44.19 OFFCURVE",
"320 63.84 CURVE",
"343.28 44.18 OFFCURVE",
"377.38 32 OFFCURVE",
"416 32 CURVE SMOOTH",
"454.62 32 OFFCURVE",
"488.72 44.19 OFFCURVE",
"512 63.84 CURVE",
"535.28 44.18 OFFCURVE",
"569.38 32 OFFCURVE",
"608 32 CURVE SMOOTH",
"624 32 LINE SMOOTH",
"632.84 32 OFFCURVE",
"640 39.16 OFFCURVE",
"640 48 CURVE SMOOTH",
"640 80 LINE SMOOTH",
"640 88.84 OFFCURVE",
"632.84 96 OFFCURVE",
"624 96 CURVE SMOOTH"
);
},
{
closed = 1;
nodes = (
"156.18 192 OFFCURVE",
"192 227.82 OFFCURVE",
"192 272 CURVE SMOOTH",
"192 316.18 OFFCURVE",
"156.18 352 OFFCURVE",
"112 352 CURVE SMOOTH",
"67.82 352 OFFCURVE",
"32 316.18 OFFCURVE",
"32 272 CURVE SMOOTH",
"32 227.82 OFFCURVE",
"67.82 192 OFFCURVE",
"112 192 CURVE SMOOTH"
);
}
);
width = 640;
}
);
note = swimmer;
unicode = 1F3CA;
},
{
glyphname = hospital;
layers = (
{
layerId = "8CF30A56-F91F-4EB2-A618-934C961D83D1";
paths = (
{
closed = 1;
nodes = (
"448 -44 LINE SMOOTH",
"448 -37.37 OFFCURVE",
"442.63 -32 OFFCURVE",
"436 -32 CURVE SMOOTH",
"416 -32 LINE",
"416 328 LINE SMOOTH",
"416 341.25 OFFCURVE",
"405.25 352 OFFCURVE",
"392 352 CURVE SMOOTH",
"304 352 LINE",
"304 424 LINE SMOOTH",
"304 437.25 OFFCURVE",
"293.25 448 OFFCURVE",
"280 448 CURVE SMOOTH",
"168 448 LINE SMOOTH",
"154.75 448 OFFCURVE",
"144 437.25 OFFCURVE",
"144 424 CURVE SMOOTH",
"144 352 LINE",
"56 352 LINE SMOOTH",
"42.75 352 OFFCURVE",
"32 341.25 OFFCURVE",
"32 328 CURVE SMOOTH",
"32 -32 LINE",
"12 -32 LINE SMOOTH",
"5.37 -32 OFFCURVE",
"0 -37.37 OFFCURVE",
"0 -44 CURVE SMOOTH",
"0 -64 LINE",
"448 -64 LINE"
);
},
{
closed = 1;
nodes = (
"308 256 LINE SMOOTH",
"314.63 256 OFFCURVE",
"320 250.63 OFFCURVE",
"320 244 CURVE SMOOTH",
"320 204 LINE SMOOTH",
"320 197.37 OFFCURVE",
"314.63 192 OFFCURVE",
"308 192 CURVE SMOOTH",
"268 192 LINE SMOOTH",
"261.37 192 OFFCURVE",
"256 197.37 OFFCURVE",
"256 204 CURVE SMOOTH",
"256 244 LINE SMOOTH",
"256 250.63 OFFCURVE",
"261.37 256 OFFCURVE",
"268 256 CURVE SMOOTH"
);
},
{
closed = 1;
nodes = (
"140 192 LINE SMOOTH",
"133.37 192 OFFCURVE",
"128 197.37 OFFCURVE",
"128 204 CURVE SMOOTH",
"128 244 LINE SMOOTH",
"128 250.63 OFFCURVE",
"133.37 256 OFFCURVE",
"140 256 CURVE SMOOTH",
"180 256 LINE SMOOTH",
"186.63 256 OFFCURVE",
"192 250.63 OFFCURVE",
"192 244 CURVE SMOOTH",
"192 204 LINE SMOOTH",
"192 197.37 OFFCURVE",
"186.63 192 OFFCURVE",
"180 192 CURVE SMOOTH"
);
},
{
closed = 1;
nodes = (
"244 64 LINE SMOOTH",
"250.63 64 OFFCURVE",
"256 58.63 OFFCURVE",
"256 52 CURVE SMOOTH",
"256 -32 LINE",
"192 -32 LINE",
"192 52 LINE SMOOTH",
"192 58.63 OFFCURVE",
"197.37 64 OFFCURVE",
"204 64 CURVE SMOOTH"
);
},
{
closed = 1;
nodes = (
"308 160 LINE SMOOTH",
"314.63 160 OFFCURVE",
"320 154.63 OFFCURVE",
"320 148 CURVE SMOOTH",
"320 108 LINE SMOOTH",
"320 101.37 OFFCURVE",
"314.63 96 OFFCURVE",
"308 96 CURVE SMOOTH",
"268 96 LINE SMOOTH",
"261.37 96 OFFCURVE",
"256 101.37 OFFCURVE",
"256 108 CURVE SMOOTH",
"256 148 LINE SMOOTH",
"256 154.63 OFFCURVE",
"261.37 160 OFFCURVE",
"268 160 CURVE SMOOTH"
);
},
{
closed = 1;
nodes = (
"192 108 LINE SMOOTH",
"192 101.37 OFFCURVE",
"186.63 96 OFFCURVE",
"180 96 CURVE SMOOTH",
"140 96 LINE SMOOTH",
"133.37 96 OFFCURVE",
"128 101.37 OFFCURVE",
"128 108 CURVE SMOOTH",
"128 148 LINE SMOOTH",
"128 154.63 OFFCURVE",
"133.37 160 OFFCURVE",
"140 160 CURVE SMOOTH",
"180 160 LINE SMOOTH",
"186.63 160 OFFCURVE",
"192 154.63 OFFCURVE",
"192 148 CURVE SMOOTH"
);
},
{
closed = 1;
nodes = (
"182 352 LINE SMOOTH",
"178.69 352 OFFCURVE",
"176 354.69 OFFCURVE",
"176 358 CURVE SMOOTH",
"176 378 LINE SMOOTH",
"176 381.31 OFFCURVE",
"178.69 384 OFFCURVE",
"182 384 CURVE SMOOTH",
"208 384 LINE",
"208 410 LINE SMOOTH",
"208 413.31 OFFCURVE",
"210.69 416 OFFCURVE",
"214 416 CURVE SMOOTH",
"234 416 LINE SMOOTH",
"237.31 416 OFFCURVE",
"240 413.31 OFFCURVE",
"240 410 CURVE SMOOTH",
"240 384 LINE",
"266 384 LINE SMOOTH",
"269.31 384 OFFCURVE",
"272 381.31 OFFCURVE",
"272 378 CURVE SMOOTH",
"272 358 LINE SMOOTH",
"272 354.69 OFFCURVE",
"269.31 352 OFFCURVE",
"266 352 CURVE SMOOTH",
"240 352 LINE",
"240 326 LINE SMOOTH",
"240 322.69 OFFCURVE",
"237.31 320 OFFCURVE",
"234 320 CURVE SMOOTH",
"214 320 LINE SMOOTH",
"210.69 320 OFFCURVE",
"208 322.69 OFFCURVE",
"208 326 CURVE SMOOTH",
"208 352 LINE"
);
}
);
width = 448;
}
);
note = hospital;
unicode = 1F3E5;
},
{
glyphname = hotel;
layers = (
{
layerId = "8CF30A56-F91F-4EB2-A618-934C961D83D1";
paths = (
{
closed = 1;
nodes = (
"560 384 LINE SMOOTH",
"568.84 384 OFFCURVE",
"576 391.16 OFFCURVE",
"576 400 CURVE SMOOTH",
"576 432 LINE SMOOTH",
"576 440.84 OFFCURVE",
"568.84 448 OFFCURVE",
"560 448 CURVE SMOOTH",
"16 448 LINE SMOOTH",
"7.16 448 OFFCURVE",
"0 440.84 OFFCURVE",
"0 432 CURVE SMOOTH",
"0 400 LINE SMOOTH",
"0 391.16 OFFCURVE",
"7.16 384 OFFCURVE",
"16 384 CURVE SMOOTH",
"31.98 384 LINE",
"31.98 0 LINE",
"16 0 LINE SMOOTH",
"7.16 0 OFFCURVE",
"0 -7.16 OFFCURVE",
"0 -16 CURVE SMOOTH",
"0 -48 LINE SMOOTH",
"0 -56.84 OFFCURVE",
"7.16 -64 OFFCURVE",
"16 -64 CURVE SMOOTH",
"256 -64 LINE",
"256 16 LINE SMOOTH",
"256 24.8 OFFCURVE",
"263.2 32 OFFCURVE",
"272 32 CURVE SMOOTH",
"304 32 LINE SMOOTH",
"312.8 32 OFFCURVE",
"320 24.8 OFFCURVE",
"320 16 CURVE SMOOTH",
"320 -64 LINE",
"560 -64 LINE SMOOTH",
"568.84 -64 OFFCURVE",
"576 -56.84 OFFCURVE",
"576 -48 CURVE SMOOTH",
"576 -16 LINE SMOOTH",
"576 -7.16 OFFCURVE",
"568.84 0 OFFCURVE",
"560 0 CURVE SMOOTH",
"544 0 LINE",
"544 384 LINE"
);
},
{
closed = 1;
nodes = (
"256 339.2 LINE SMOOTH",
"256 345.6 OFFCURVE",
"262.4 352 OFFCURVE",
"268.8 352 CURVE SMOOTH",
"307.2 352 LINE SMOOTH",
"313.6 352 OFFCURVE",
"320 345.6 OFFCURVE",
"320 339.2 CURVE SMOOTH",
"320 300.8 LINE SMOOTH",
"320 294.4 OFFCURVE",
"313.6 288 OFFCURVE",
"307.2 288 CURVE SMOOTH",
"268.8 288 LINE SMOOTH",
"262.4 288 OFFCURVE",
"256 294.4 OFFCURVE",
"256 300.8 CURVE SMOOTH"
);
},
{
closed = 1;
nodes = (
"256 243.2 LINE SMOOTH",
"256 249.6 OFFCURVE",
"262.4 256 OFFCURVE",
"268.8 256 CURVE SMOOTH",
"307.2 256 LINE SMOOTH",
"313.6 256 OFFCURVE",
"320 249.6 OFFCURVE",
"320 243.2 CURVE SMOOTH",
"320 204.8 LINE SMOOTH",
"320 198.4 OFFCURVE",
"313.6 192 OFFCURVE",
"307.2 192 CURVE SMOOTH",
"268.8 192 LINE SMOOTH",
"262.4 192 OFFCURVE",
"256 198.4 OFFCURVE",
"256 204.8 CURVE SMOOTH"
);
},
{
closed = 1;
nodes = (
"128 339.2 LINE SMOOTH",
"128 345.6 OFFCURVE",
"134.4 352 OFFCURVE",
"140.8 352 CURVE SMOOTH",
"179.2 352 LINE SMOOTH",
"185.6 352 OFFCURVE",
"192 345.6 OFFCURVE",
"192 339.2 CURVE SMOOTH",
"192 300.8 LINE SMOOTH",
"192 294.4 OFFCURVE",
"185.6 288 OFFCURVE",
"179.2 288 CURVE SMOOTH",
"140.8 288 LINE SMOOTH",
"134.4 288 OFFCURVE",
"128 294.4 OFFCURVE",
"128 300.8 CURVE SMOOTH"
);
},
{
closed = 1;
nodes = (
"140.8 192 LINE SMOOTH",
"134.4 192 OFFCURVE",
"128 198.4 OFFCURVE",
"128 204.8 CURVE SMOOTH",
"128 243.2 LINE SMOOTH",
"128 249.6 OFFCURVE",
"134.4 256 OFFCURVE",
"140.8 256 CURVE SMOOTH",
"179.2 256 LINE SMOOTH",
"185.6 256 OFFCURVE",
"192 249.6 OFFCURVE",
"192 243.2 CURVE SMOOTH",
"192 204.8 LINE SMOOTH",
"192 198.4 OFFCURVE",
"185.6 192 OFFCURVE",
"179.2 192 CURVE SMOOTH"
);
},
{
closed = 1;
nodes = (
"192 64 LINE",
"192 117.02 OFFCURVE",
"234.98 160 OFFCURVE",
"288 160 CURVE SMOOTH",
"341.02 160 OFFCURVE",
"384 117.02 OFFCURVE",
"384 64 CURVE"
);
},
{
closed = 1;
nodes = (
"448 204.8 LINE SMOOTH",
"448 198.4 OFFCURVE",
"441.6 192 OFFCURVE",
"435.2 192 CURVE SMOOTH",
"396.8 192 LINE SMOOTH",
"390.4 192 OFFCURVE",
"384 198.4 OFFCURVE",
"384 204.8 CURVE SMOOTH",
"384 243.2 LINE SMOOTH",
"384 249.6 OFFCURVE",
"390.4 256 OFFCURVE",
"396.8 256 CURVE SMOOTH",
"435.2 256 LINE SMOOTH",
"441.6 256 OFFCURVE",
"448 249.6 OFFCURVE",
"448 243.2 CURVE SMOOTH"
);
},
{
closed = 1;
nodes = (
"448 300.8 LINE SMOOTH",
"448 294.4 OFFCURVE",
"441.6 288 OFFCURVE",
"435.2 288 CURVE SMOOTH",
"396.8 288 LINE SMOOTH",
"390.4 288 OFFCURVE",
"384 294.4 OFFCURVE",
"384 300.8 CURVE SMOOTH",
"384 339.2 LINE SMOOTH",
"384 345.6 OFFCURVE",
"390.4 352 OFFCURVE",
"396.8 352 CURVE SMOOTH",
"435.2 352 LINE SMOOTH",
"441.6 352 OFFCURVE",
"448 345.6 OFFCURVE",
"448 339.2 CURVE SMOOTH"
);
}
);
width = 576;
}
);
note = hotel;
unicode = 1F3E8;
},
{
glyphname = school;
layers = (
{
layerId = "8CF30A56-F91F-4EB2-A618-934C961D83D1";
paths = (
{
closed = 1;
nodes = (
"0 -48 LINE SMOOTH",
"0 -56.84 OFFCURVE",
"7.16 -64 OFFCURVE",
"16 -64 CURVE SMOOTH",
"96 -64 LINE",
"96 256 LINE",
"32 256 LINE SMOOTH",
"14.33 256 OFFCURVE",
"0 241.67 OFFCURVE",
"0 224 CURVE SMOOTH"
);
},
{
closed = 1;
nodes = (
"336 272 LINE",
"336 312 LINE SMOOTH",
"336 316.42 OFFCURVE",
"332.42 320 OFFCURVE",
"328 320 CURVE SMOOTH",
"312 320 LINE SMOOTH",
"307.58 320 OFFCURVE",
"304 316.42 OFFCURVE",
"304 312 CURVE SMOOTH",
"304 248 LINE SMOOTH",
"304 243.58 OFFCURVE",
"307.58 240 OFFCURVE",
"312 240 CURVE SMOOTH",
"360 240 LINE SMOOTH",
"364.42 240 OFFCURVE",
"368 243.58 OFFCURVE",
"368 248 CURVE SMOOTH",
"368 264 LINE SMOOTH",
"368 268.42 OFFCURVE",
"364.42 272 OFFCURVE",
"360 272 CURVE SMOOTH"
);
},
{
closed = 1;
nodes = (
"337.75 442.63 LINE SMOOTH",
"333.3 445.59 OFFCURVE",
"325.35 448 OFFCURVE",
"320 448 CURVE SMOOTH",
"314.65 448 OFFCURVE",
"306.7 445.59 OFFCURVE",
"302.25 442.63 CURVE SMOOTH",
"142.25 335.96 LINE SMOOTH",
"134.39 330.72 OFFCURVE",
"128 318.79 OFFCURVE",
"128 309.34 CURVE SMOOTH",
"128 -64 LINE",
"256 -64 LINE",
"256 80 LINE SMOOTH",
"256 88.84 OFFCURVE",
"263.16 96 OFFCURVE",
"272 96 CURVE SMOOTH",
"368 96 LINE SMOOTH",
"376.84 96 OFFCURVE",
"384 88.84 OFFCURVE",
"384 80 CURVE SMOOTH",
"384 -64 LINE",
"512 -64 LINE",
"512 309.33 LINE SMOOTH",
"512 320.03 OFFCURVE",
"506.65 330.03 OFFCURVE",
"497.75 335.96 CURVE SMOOTH"
);
},
{
closed = 1;
nodes = (
"275.82 192 OFFCURVE",
"240 227.82 OFFCURVE",
"240 272 CURVE SMOOTH",
"240 316.18 OFFCURVE",
"275.82 352 OFFCURVE",
"320 352 CURVE SMOOTH",
"364.18 352 OFFCURVE",
"400 316.18 OFFCURVE",
"400 272 CURVE SMOOTH",
"400 227.82 OFFCURVE",
"364.18 192 OFFCURVE",
"320 192 CURVE SMOOTH"
);
},
{
closed = 1;
nodes = (
"544 256 LINE",
"544 -64 LINE",
"624 -64 LINE SMOOTH",
"632.84 -64 OFFCURVE",
"640 -56.84 OFFCURVE",
"640 -48 CURVE SMOOTH",
"640 224 LINE SMOOTH",
"640 241.67 OFFCURVE",
"625.67 256 OFFCURVE",
"608 256 CURVE SMOOTH"
);
}
);
width = 640;
}
);
note = school;
unicode = 1F3EB;
},
{
glyphname = mouse;
layers = (
{
layerId = "8CF30A56-F91F-4EB2-A618-934C961D83D1";
paths = (
{
closed = 1;
nodes = (
"0 96 LINE SMOOTH",
"0 7.68 OFFCURVE",
"71.68 -64 OFFCURVE",
"160 -64 CURVE SMOOTH",
"224 -64 LINE SMOOTH",
"312.32 -64 OFFCURVE",
"384 7.68 OFFCURVE",
"384 96 CURVE SMOOTH",
"384 224 LINE",
"0 224 LINE"
);
},
{
closed = 1;
nodes = (
"176 448 LINE",
"160 448 LINE SMOOTH",
"71.68 448 OFFCURVE",
"0 376.32 OFFCURVE",
"0 288 CURVE SMOOTH",
"0 256 LINE",
"176 256 LINE"
);
},
{
closed = 1;
nodes = (
"208 448 LINE",
"208 256 LINE",
"384 256 LINE",
"384 288 LINE SMOOTH",
"384 376.32 OFFCURVE",
"312.32 448 OFFCURVE",
"224 448 CURVE SMOOTH"
);
}
);
width = 384;
}
);
note = mouse;
unicode = 1F401;
},
{
glyphname = cat;
layers = (
{
layerId = "8CF30A56-F91F-4EB2-A618-934C961D83D1";
paths = (
{
closed = 1;
nodes = (
"270.41 256 OFFCURVE",
"183.77 254.02 OFFCURVE",
"128 170.05 CURVE",
"128 256 LINE SMOOTH",
"128 308.94 OFFCURVE",
"84.94 352 OFFCURVE",
"32 352 CURVE SMOOTH",
"14.33 352 OFFCURVE",
"0 337.67 OFFCURVE",
"0 320 CURVE SMOOTH",
"0 302.33 OFFCURVE",
"14.33 288 OFFCURVE",
"32 288 CURVE SMOOTH",
"49.64 288 OFFCURVE",
"64 273.64 OFFCURVE",
"64 256 CURVE SMOOTH",
"64 0 LINE SMOOTH",
"64 -35.3 OFFCURVE",
"92.7 -64 OFFCURVE",
"128 -64 CURVE SMOOTH",
"304 -64 LINE SMOOTH",
"312.84 -64 OFFCURVE",
"320 -56.84 OFFCURVE",
"320 -48 CURVE SMOOTH",
"320 -32 LINE SMOOTH",
"320 -14.33 OFFCURVE",
"305.67 0 OFFCURVE",
"288 0 CURVE SMOOTH",
"256 0 LINE",
"384 96 LINE",
"384 -48 LINE SMOOTH",
"384 -56.84 OFFCURVE",
"391.16 -64 OFFCURVE",
"400 -64 CURVE SMOOTH",
"432 -64 LINE SMOOTH",
"440.84 -64 OFFCURVE",
"448 -56.84 OFFCURVE",
"448 -48 CURVE SMOOTH",
"448 158.14 LINE",
"437.71 155.47 OFFCURVE",
"427.11 153.6 OFFCURVE",
"416 153.6 CURVE SMOOTH",
"354.19 153.6 OFFCURVE",
"302.48 197.65 OFFCURVE",
"290.59 256 CURVE"
);
},
{
closed = 1;
nodes = (
"448 352 LINE",
"384 352 LINE",
"320 416 LINE",
"320 281.6 LINE SMOOTH",
"320 228.58 OFFCURVE",
"362.98 185.6 OFFCURVE",
"416 185.6 CURVE SMOOTH",
"469.02 185.6 OFFCURVE",
"512 228.58 OFFCURVE",
"512 281.6 CURVE SMOOTH",
"512 416 LINE"
);
},
{
closed = 1;
nodes = (
"367.16 272 OFFCURVE",
"360 279.16 OFFCURVE",
"360 288 CURVE SMOOTH",
"360 296.84 OFFCURVE",
"367.16 304 OFFCURVE",
"376 304 CURVE SMOOTH",
"384.84 304 OFFCURVE",
"392 296.84 OFFCURVE",
"392 288 CURVE SMOOTH",
"392 279.16 OFFCURVE",
"384.84 272 OFFCURVE",
"376 272 CURVE SMOOTH"
);
},
{
closed = 1;
nodes = (
"447.16 272 OFFCURVE",
"440 279.16 OFFCURVE",
"440 288 CURVE SMOOTH",
"440 296.84 OFFCURVE",
"447.16 304 OFFCURVE",
"456 304 CURVE SMOOTH",
"464.84 304 OFFCURVE",
"472 296.84 OFFCURVE",
"472 288 CURVE SMOOTH",
"472 279.16 OFFCURVE",
"464.84 272 OFFCURVE",
"456 272 CURVE SMOOTH"
);
}
);
width = 512;
}
);
note = cat;
unicode = 1F408;
},
{
glyphname = dragon;
layers = (
{
layerId = "8CF30A56-F91F-4EB2-A618-934C961D83D1";
paths = (
{
closed = 1;
nodes = (
"192 224.04 LINE",
"100.72 155.35 LINE",
"90.64 145.27 OFFCURVE",
"97.78 128.04 OFFCURVE",
"112.03 128.04 CURVE SMOOTH",
"334.73 128.04 LINE",
"325.29 154.44 OFFCURVE",
"320 182.51 OFFCURVE",
"320 211.42 CURVE SMOOTH",
"320 253.69 LINE",
"200.27 341.29 LINE",
"176.45 357.17 OFFCURVE",
"144.98 355.3 OFFCURVE",
"123.21 336.7 CURVE",
"5.81 220.36 LINE",
"-6.57 210.03 OFFCURVE",
"2.36 189.94 OFFCURVE",
"18.32 192.22 CURVE"
);
},
{
closed = 1;
nodes = (
"474.53 208.43 LINE SMOOTH",
"459.89 215.75 OFFCURVE",
"448 234.98 OFFCURVE",
"448 251.35 CURVE SMOOTH",
"448 288.04 LINE",
"512 288.04 LINE",
"540.09 265.41 LINE",
"546.09 259.41 OFFCURVE",
"554.23 256.04 OFFCURVE",
"562.72 256.04 CURVE SMOOTH",
"593.69 256.04 LINE SMOOTH",
"604.61 256.04 OFFCURVE",
"617.43 263.97 OFFCURVE",
"622.31 273.73 CURVE SMOOTH",
"636.62 302.35 LINE SMOOTH",
"638.48 306.08 OFFCURVE",
"640 312.49 OFFCURVE",
"640 316.66 CURVE SMOOTH",
"640 322.55 OFFCURVE",
"637.13 331.15 OFFCURVE",
"633.6 335.86 CURVE SMOOTH",
"559.07 435.24 LINE SMOOTH",
"553.02 443.3 OFFCURVE",
"543.54 448 OFFCURVE",
"533.47 448 CURVE SMOOTH",
"296.02 448 LINE SMOOTH",
"288.89 448 OFFCURVE",
"285.32 439.43 OFFCURVE",
"290.36 434.39 CURVE",
"352 384.04 LINE",
"292.42 359.2 LINE",
"286.52 356.25 OFFCURVE",
"286.52 347.84 OFFCURVE",
"292.42 344.89 CURVE",
"352 320.04 LINE",
"352 211.42 LINE SMOOTH",
"352 139.34 OFFCURVE",
"388.03 72.03 OFFCURVE",
"448 32.04 CURVE",
"252.41 25.23 OFFCURVE",
"103.44 -8.97 OFFCURVE",
"13.9 -28.87 CURVE SMOOTH",
"5.78 -30.67 OFFCURVE",
"0 -37.88 OFFCURVE",
"0 -46.2 CURVE SMOOTH",
"0 -56 OFFCURVE",
"7.95 -64 OFFCURVE",
"17.76 -64 CURVE SMOOTH",
"516.84 -64 LINE SMOOTH",
"580.13 -64.01 OFFCURVE",
"636.45 -16.44 OFFCURVE",
"639.83 46.76 CURVE SMOOTH",
"642.35 94.04 OFFCURVE",
"617.1 137.16 OFFCURVE",
"575.19 158.12 CURVE SMOOTH"
);
},
{
closed = 1;
nodes = (
"534.83 370.34 LINE",
"532.08 359.43 OFFCURVE",
"522.36 351.45 OFFCURVE",
"510.7 352.08 CURVE SMOOTH",
"497.74 352.79 OFFCURVE",
"484.85 364.61 OFFCURVE",
"489.18 381.75 CURVE"
);
}
);
width = 640;
}
);
note = dragon;
unicode = 1F409;
},
{
glyphname = horse;
layers = (
{
layerId = "8CF30A56-F91F-4EB2-A618-934C961D83D1";
paths = (
{
closed = 1;
nodes = (
"575.92 371.4 LINE SMOOTH",
"575.91 379.53 OFFCURVE",
"572.9 387.27 OFFCURVE",
"567.34 393.2 CURVE SMOOTH",
"563.56 397.23 OFFCURVE",
"558.76 402.32 OFFCURVE",
"553.65 407.7 CURVE",
"564.71 414.54 OFFCURVE",
"573.15 425.19 OFFCURVE",
"575.83 438.36 CURVE SMOOTH",
"576.85 443.32 OFFCURVE",
"572.96 448 OFFCURVE",
"567.9 448 CURVE SMOOTH",
"447.92 448 LINE SMOOTH",
"377.23 448 OFFCURVE",
"319.92 390.69 OFFCURVE",
"319.92 320 CURVE",
"160 320 LINE SMOOTH",
"131.16 320 OFFCURVE",
"105.6 307.02 OFFCURVE",
"88 286.89 CURVE",
"88 288 LINE",
"39.47 288 OFFCURVE",
"0 248.53 OFFCURVE",
"0 200 CURVE SMOOTH",
"0 144 LINE SMOOTH",
"0 135.16 OFFCURVE",
"7.16 128 OFFCURVE",
"16 128 CURVE SMOOTH",
"32 128 LINE SMOOTH",
"40.84 128 OFFCURVE",
"48 135.16 OFFCURVE",
"48 144 CURVE SMOOTH",
"48 200 LINE SMOOTH",
"48 213.22 OFFCURVE",
"54.87 224.39 OFFCURVE",
"64.78 231.68 CURVE",
"64.57 229.1 OFFCURVE",
"64 226.63 OFFCURVE",
"64 224 CURVE SMOOTH",
"64 196.36 OFFCURVE",
"75.84 171.64 OFFCURVE",
"94.54 154.12 CURVE",
"68.82 85.52 LINE SMOOTH",
"66.57 79.52 OFFCURVE",
"64.75 69.46 OFFCURVE",
"64.75 63.06 CURVE SMOOTH",
"64.75 58.71 OFFCURVE",
"65.61 51.75 OFFCURVE",
"66.66 47.53 CURVE SMOOTH",
"91.51 -51.88 LINE SMOOTH",
"93.18 -58.57 OFFCURVE",
"100.12 -64 OFFCURVE",
"107.02 -64 CURVE",
"107.02 -64 LINE",
"172.98 -64 LINE SMOOTH",
"183.39 -64 OFFCURVE",
"191.03 -54.22 OFFCURVE",
"188.5 -44.12 CURVE SMOOTH",
"162.19 61.14 LINE",
"186.03 124.73 LINE",
"320 102.4 LINE",
"320 -48 LINE SMOOTH",
"320 -56.84 OFFCURVE",
"327.16 -64 OFFCURVE",
"336 -64 CURVE SMOOTH",
"400 -64 LINE SMOOTH",
"408.84 -64 OFFCURVE",
"416 -56.84 OFFCURVE",
"416 -48 CURVE SMOOTH",
"416 129.78 LINE",
"435.74 149.97 OFFCURVE",
"448 177.53 OFFCURVE",
"448 208 CURVE SMOOTH",
"448 208.22 OFFCURVE",
"447.93 208.42 OFFCURVE",
"447.92 208.64 CURVE",
"447.92 311.11 LINE",
"463.92 304 LINE",
"482.82 266.3 LINE SMOOTH",
"490.27 251.43 OFFCURVE",
"507.87 244.75 OFFCURVE",
"523.31 250.93 CURVE SMOOTH",
"555.86 263.95 LINE SMOOTH",
"566.97 268.39 OFFCURVE",
"575.98 281.7 OFFCURVE",
"575.98 293.66 CURVE SMOOTH",
"575.98 293.69 LINE"
);
},
{
closed = 1;
nodes = (
"503.08 352 OFFCURVE",
"495.92 359.16 OFFCURVE",
"495.92 368 CURVE SMOOTH",
"495.92 376.84 OFFCURVE",
"503.08 384 OFFCURVE",
"511.92 384 CURVE SMOOTH",
"520.76 384 OFFCURVE",
"527.92 376.84 OFFCURVE",
"527.92 368 CURVE SMOOTH",
"527.92 359.16 OFFCURVE",
"520.76 352 OFFCURVE",
"511.92 352 CURVE SMOOTH"
);
}
);
width = 576;
}
);
note = horse;
unicode = 1F40E;
},
{
glyphname = dog;
layers = (
{
layerId = "8CF30A56-F91F-4EB2-A618-934C961D83D1";
paths = (
{
closed = 1;
nodes = (
"298.06 224 LINE",
"128 224 LINE SMOOTH",
"110.37 224.03 OFFCURVE",
"96.03 238.37 OFFCURVE",
"96 256 CURVE",
"96 273.66 OFFCURVE",
"81.66 288 OFFCURVE",
"64 288 CURVE SMOOTH",
"46.34 288 OFFCURVE",
"32 273.66 OFFCURVE",
"32 256 CURVE SMOOTH",
"32 214.34 OFFCURVE",
"58.84 179.16 OFFCURVE",
"96 165.91 CURVE",
"96 -48 LINE SMOOTH",
"96 -56.83 OFFCURVE",
"103.17 -64 OFFCURVE",
"112 -64 CURVE SMOOTH",
"176 -64 LINE SMOOTH",
"184.83 -64 OFFCURVE",
"192 -56.83 OFFCURVE",
"192 -48 CURVE SMOOTH",
"192 64 LINE",
"352 64 LINE",
"352 -48 LINE SMOOTH",
"352 -56.83 OFFCURVE",
"359.17 -64 OFFCURVE",
"368 -64 CURVE SMOOTH",
"432 -64 LINE SMOOTH",
"440.83 -64 OFFCURVE",
"448 -56.83 OFFCURVE",
"448 -48 CURVE SMOOTH",
"448 170.45 LINE"
);
},
{
closed = 1;
nodes = (
"544 336 LINE SMOOTH",
"544 344.83 OFFCURVE",
"536.83 352 OFFCURVE",
"528 352 CURVE SMOOTH",
"464 352 LINE",
"456.84 366.31 LINE SMOOTH",
"451.97 376.08 OFFCURVE",
"439.13 384 OFFCURVE",
"428.22 384 CURVE SMOOTH",
"374.59 384 LINE",
"347.31 411.31 LINE SMOOTH",
"337.22 421.39 OFFCURVE",
"320 414.25 OFFCURVE",
"320 400 CURVE SMOOTH",
"320 250.13 LINE",
"448 204.42 LINE",
"448 240 LINE",
"480 240 LINE SMOOTH",
"515.33 240 OFFCURVE",
"544 268.67 OFFCURVE",
"544 304 CURVE SMOOTH"
);
},
{
closed = 1;
nodes = (
"432 327.17 OFFCURVE",
"424.83 320 OFFCURVE",
"416 320 CURVE SMOOTH",
"407.17 320 OFFCURVE",
"400 327.17 OFFCURVE",
"400 336 CURVE SMOOTH",
"400 344.83 OFFCURVE",
"407.17 352 OFFCURVE",
"416 352 CURVE SMOOTH",
"424.83 352 OFFCURVE",
"432 344.83 OFFCURVE",
"432 336 CURVE SMOOTH"
);
}
);
width = 576;
}
);
note = dog;
unicode = 1F415;
},
{
glyphname = bug;
layers = (
{
layerId = "8CF30A56-F91F-4EB2-A618-934C961D83D1";
paths = (
{
closed = 1;
nodes = (
"512.49 177.18 OFFCURVE",
"497.97 192 OFFCURVE",
"480 192 CURVE SMOOTH",
"424 192 LINE",
"424 250.75 LINE",
"470.63 297.38 LINE SMOOTH",
"483.13 309.88 OFFCURVE",
"483.13 330.14 OFFCURVE",
"470.63 342.63 CURVE SMOOTH",
"458.13 355.13 OFFCURVE",
"437.87 355.13 OFFCURVE",
"425.37 342.63 CURVE SMOOTH",
"370.74 288 LINE",
"141.25 288 LINE",
"86.62 342.63 LINE SMOOTH",
"74.12 355.13 OFFCURVE",
"53.86 355.13 OFFCURVE",
"41.36 342.63 CURVE SMOOTH",
"28.86 330.13 OFFCURVE",
"28.86 309.87 OFFCURVE",
"41.36 297.38 CURVE SMOOTH",
"87.99 250.75 LINE",
"87.99 192 LINE",
"31.99 192 LINE SMOOTH",
"14.02 192 OFFCURVE",
"-0.49 177.18 OFFCURVE",
"0 159.1 CURVE SMOOTH",
"0.48 141.67 OFFCURVE",
"15.22 128 OFFCURVE",
"32.65 128 CURVE SMOOTH",
"87.98 128 LINE",
"87.98 112 LINE SMOOTH",
"87.98 90.14 OFFCURVE",
"92.86 69.42 OFFCURVE",
"101.58 50.86 CURVE",
"41.35 -9.37 LINE SMOOTH",
"28.85 -21.87 OFFCURVE",
"28.85 -42.13 OFFCURVE",
"41.35 -54.62 CURVE SMOOTH",
"53.85 -67.12 OFFCURVE",
"74.11 -67.12 OFFCURVE",
"86.61 -54.62 CURVE SMOOTH",
"141.35 0.12 LINE",
"166.1 -19.95 OFFCURVE",
"197.64 -31.99 OFFCURVE",
"231.99 -31.99 CURVE",
"231.99 212.01 LINE SMOOTH",
"231.99 218.64 OFFCURVE",
"237.36 224.01 OFFCURVE",
"243.99 224.01 CURVE SMOOTH",
"267.99 224.01 LINE SMOOTH",
"274.62 224.01 OFFCURVE",
"279.99 218.64 OFFCURVE",
"279.99 212.01 CURVE SMOOTH",
"279.99 -31.99 LINE",
"314.34 -31.99 OFFCURVE",
"345.88 -19.95 OFFCURVE",
"370.63 0.12 CURVE",
"425.37 -54.62 LINE SMOOTH",
"437.87 -67.12 OFFCURVE",
"458.13 -67.12 OFFCURVE",
"470.63 -54.62 CURVE SMOOTH",
"483.13 -42.12 OFFCURVE",
"483.13 -21.86 OFFCURVE",
"470.63 -9.37 CURVE SMOOTH",
"410.4 50.86 LINE",
"419.12 69.42 OFFCURVE",
"424 90.14 OFFCURVE",
"424 112 CURVE SMOOTH",
"424 128 LINE",
"479.33 128 LINE SMOOTH",
"496.77 128 OFFCURVE",
"511.5 141.67 OFFCURVE",
"511.98 159.1 CURVE SMOOTH"
);
},
{
closed = 1;
nodes = (
"195.13 448 OFFCURVE",
"144.99 397.86 OFFCURVE",
"144.99 336 CURVE",
"368.99 336 LINE",
"368.99 397.86 OFFCURVE",
"318.85 448 OFFCURVE",
"256.99 448 CURVE SMOOTH"
);
}
);
width = 512;
}
);
note = bug;
unicode = 1F41B;
},
{
glyphname = fish;
layers = (
{
layerId = "8CF30A56-F91F-4EB2-A618-934C961D83D1";
paths = (
{
closed = 1;
nodes = (
"237.13 352 OFFCURVE",
"158.56 297.23 OFFCURVE",
"114.83 250.37 CURVE",
"27.5 316.42 LINE SMOOTH",
"15.37 325.6 OFFCURVE",
"-2.74 315.82 OFFCURVE",
"0.36 301.76 CURVE SMOOTH",
"24.54 192 LINE",
"0.35 82.23 LINE SMOOTH",
"-2.75 68.17 OFFCURVE",
"15.36 58.4 OFFCURVE",
"27.49 67.57 CURVE SMOOTH",
"114.82 133.62 LINE",
"158.55 86.77 OFFCURVE",
"237.13 32 OFFCURVE",
"327.1 32 CURVE SMOOTH",
"464.56 32 OFFCURVE",
"576 160 OFFCURVE",
"576 192 CURVE SMOOTH",
"576 224 OFFCURVE",
"464.56 352 OFFCURVE",
"327.1 352 CURVE SMOOTH"
);
},
{
closed = 1;
nodes = (
"401.28 168 OFFCURVE",
"390.53 178.75 OFFCURVE",
"390.53 192 CURVE SMOOTH",
"390.53 205.26 OFFCURVE",
"401.28 216 OFFCURVE",
"414.53 216 CURVE SMOOTH",
"427.79 216 OFFCURVE",
"438.53 205.26 OFFCURVE",
"438.53 192 CURVE SMOOTH",
"438.53 178.75 OFFCURVE",
"427.78 168 OFFCURVE",
"414.53 168 CURVE SMOOTH"
);
}
);
width = 576;
}
);
note = fish;
unicode = 1F41F;
},
{
glyphname = eye;
layers = (
{
layerId = "8CF30A56-F91F-4EB2-A618-934C961D83D1";
paths = (
{
closed = 1;
nodes = (
"518.29 312.41 OFFCURVE",
"410.93 384 OFFCURVE",
"288 384 CURVE SMOOTH",
"165.07 384 OFFCURVE",
"57.68 312.36 OFFCURVE",
"3.48 206.59 CURVE SMOOTH",
"1.56 202.79 OFFCURVE",
"0 196.25 OFFCURVE",
"0 192 CURVE SMOOTH",
"0 187.74 OFFCURVE",
"1.56 181.2 OFFCURVE",
"3.48 177.41 CURVE SMOOTH",
"57.71 71.6 OFFCURVE",
"165.07 0.01 OFFCURVE",
"288 0.01 CURVE SMOOTH",
"410.93 0.01 OFFCURVE",
"518.32 71.65 OFFCURVE",
"572.52 177.42 CURVE SMOOTH",
"574.44 181.22 OFFCURVE",
"576 187.76 OFFCURVE",
"576 192.01 CURVE SMOOTH",
"576 196.27 OFFCURVE",
"574.44 202.81 OFFCURVE",
"572.52 206.6 CURVE SMOOTH"
);
},
{
closed = 1;
nodes = (
"208.51 48 OFFCURVE",
"144 112.51 OFFCURVE",
"144 192 CURVE SMOOTH",
"144 271.49 OFFCURVE",
"208.51 336 OFFCURVE",
"288 336 CURVE SMOOTH",
"367.49 336 OFFCURVE",
"432 271.49 OFFCURVE",
"432 192 CURVE SMOOTH",
"432 191.93 LINE SMOOTH",
"432 112.48 OFFCURVE",
"367.52 48 OFFCURVE",
"288.07 48 CURVE SMOOTH"
);
},
{
closed = 1;
nodes = (
"288 288 LINE SMOOTH",
"280.87 287.9 OFFCURVE",
"269.53 286.2 OFFCURVE",
"262.69 284.21 CURVE",
"267.83 277.23 OFFCURVE",
"272 264.52 OFFCURVE",
"272 255.85 CURVE SMOOTH",
"272 229.44 OFFCURVE",
"250.56 208 OFFCURVE",
"224.15 208 CURVE SMOOTH",
"215.48 208 OFFCURVE",
"202.77 212.17 OFFCURVE",
"195.79 217.31 CURVE",
"193.94 210.51 OFFCURVE",
"192.45 199.27 OFFCURVE",
"192.45 192.22 CURVE SMOOTH",
"192.45 139.35 OFFCURVE",
"235.36 96.44 OFFCURVE",
"288.23 96.44 CURVE SMOOTH",
"341.1 96.44 OFFCURVE",
"384.01 139.35 OFFCURVE",
"384.01 192.22 CURVE SMOOTH",
"384.01 245.09 OFFCURVE",
"341.1 288 OFFCURVE",
"288.23 288 CURVE SMOOTH"
);
}
);
width = 576;
}
);
note = eye;
unicode = 1F441;
},
{
glyphname = crown;
layers = (
{
layerId = "8CF30A56-F91F-4EB2-A618-934C961D83D1";
paths = (
{
closed = 1;
nodes = (
"112 0 LINE SMOOTH",
"103.2 0 OFFCURVE",
"96 -7.2 OFFCURVE",
"96 -16 CURVE SMOOTH",
"96 -48 LINE SMOOTH",
"96 -56.8 OFFCURVE",
"103.2 -64 OFFCURVE",
"112 -64 CURVE SMOOTH",
"528 -64 LINE SMOOTH",
"536.8 -64 OFFCURVE",
"544 -56.8 OFFCURVE",
"544 -48 CURVE SMOOTH",
"544 -16 LINE SMOOTH",
"544 -7.2 OFFCURVE",
"536.8 0 OFFCURVE",
"528 0 CURVE SMOOTH"
);
},
{
closed = 1;
nodes = (
"565.5 320 OFFCURVE",
"544 298.5 OFFCURVE",
"544 272 CURVE SMOOTH",
"544 264.9 OFFCURVE",
"545.6 258.3 OFFCURVE",
"548.4 252.2 CURVE",
"476 208.8 LINE SMOOTH",
"460.6 199.6 OFFCURVE",
"440.7 204.8 OFFCURVE",
"431.8 220.4 CURVE SMOOTH",
"350.3 363 LINE",
"361 371.8 OFFCURVE",
"368 385 OFFCURVE",
"368 400 CURVE SMOOTH",
"368 426.5 OFFCURVE",
"346.5 448 OFFCURVE",
"320 448 CURVE SMOOTH",
"293.5 448 OFFCURVE",
"272 426.5 OFFCURVE",
"272 400 CURVE SMOOTH",
"272 385 OFFCURVE",
"279 371.8 OFFCURVE",
"289.7 363 CURVE",
"208.2 220.4 LINE SMOOTH",
"199.3 204.8 OFFCURVE",
"179.3 199.6 OFFCURVE",
"164 208.8 CURVE SMOOTH",
"91.7 252.2 LINE",
"94.4 258.2 OFFCURVE",
"96.1 264.9 OFFCURVE",
"96.1 272 CURVE SMOOTH",
"96.1 298.5 OFFCURVE",
"74.6 320 OFFCURVE",
"48.1 320 CURVE SMOOTH",
"21.6 320 OFFCURVE",
"0 298.5 OFFCURVE",
"0 272 CURVE SMOOTH",
"0 245.5 OFFCURVE",
"21.5 224 OFFCURVE",
"48 224 CURVE SMOOTH",
"50.6 224 OFFCURVE",
"53.2 224.4 OFFCURVE",
"55.7 224.8 CURVE",
"128 32 LINE",
"512 32 LINE",
"584.3 224.8 LINE",
"586.8 224.4 OFFCURVE",
"589.4 224 OFFCURVE",
"592 224 CURVE SMOOTH",
"618.5 224 OFFCURVE",
"640 245.5 OFFCURVE",
"640 272 CURVE SMOOTH",
"640 298.5 OFFCURVE",
"618.5 320 OFFCURVE",
"592 320 CURVE SMOOTH"
);
}
);
width = 640;
}
);
note = crown;
unicode = 1F451;
},
{
glyphname = baby;
layers = (
{
layerId = "8CF30A56-F91F-4EB2-A618-934C961D83D1";
paths = (
{
closed = 1;
nodes = (
"236.2 288 OFFCURVE",
"272 323.8 OFFCURVE",
"272 368 CURVE SMOOTH",
"272 412.2 OFFCURVE",
"236.2 448 OFFCURVE",
"192 448 CURVE SMOOTH",
"147.8 448 OFFCURVE",
"112 412.2 OFFCURVE",
"112 368 CURVE SMOOTH",
"112 323.8 OFFCURVE",
"147.8 288 OFFCURVE",
"192 288 CURVE SMOOTH"
);
},
{
closed = 1;
nodes = (
"138.6 39.2 LINE",
"164.2 71.2 LINE",
"102.7 122.4 LINE",
"56.8 65 LINE SMOOTH",
"45.4 50.8 OFFCURVE",
"45.1 30.6 OFFCURVE",
"56 16 CURVE SMOOTH",
"104 -48 LINE SMOOTH",
"111.9 -58.5 OFFCURVE",
"123.9 -64 OFFCURVE",
"136 -64 CURVE SMOOTH",
"144.3 -64 OFFCURVE",
"152.8 -61.4 OFFCURVE",
"160 -56 CURVE SMOOTH",
"177.7 -42.8 OFFCURVE",
"181.2 -17.7 OFFCURVE",
"168 0 CURVE SMOOTH"
);
},
{
closed = 1;
nodes = (
"281.3 122.4 LINE",
"219.8 71.2 LINE",
"245.4 39.2 LINE",
"216 0 LINE SMOOTH",
"202.8 -17.7 OFFCURVE",
"206.3 -42.8 OFFCURVE",
"224 -56 CURVE SMOOTH",
"231.2 -61.4 OFFCURVE",
"239.6 -64 OFFCURVE",
"248 -64 CURVE SMOOTH",
"260.2 -64 OFFCURVE",
"272.2 -58.5 OFFCURVE",
"280 -48 CURVE SMOOTH",
"328 16 LINE SMOOTH",
"338.9 30.6 OFFCURVE",
"338.6 50.8 OFFCURVE",
"327.2 65 CURVE SMOOTH"
);
},
{
closed = 1;
nodes = (
"364 321.1 OFFCURVE",
"339.1 325.4 OFFCURVE",
"321 312.8 CURVE SMOOTH",
"280.4 284.3 LINE SMOOTH",
"227.7 247.3 OFFCURVE",
"156.2 247.3 OFFCURVE",
"103.6 284.3 CURVE SMOOTH",
"63 312.7 LINE SMOOTH",
"44.9 325.4 OFFCURVE",
"20 321 OFFCURVE",
"7.3 303 CURVE SMOOTH",
"-5.4 284.9 OFFCURVE",
"-1 260 OFFCURVE",
"17 247.3 CURVE SMOOTH",
"57.6 218.8 LINE SMOOTH",
"74.6 206.9 OFFCURVE",
"93 197.9 OFFCURVE",
"112 190.9 CURVE",
"112 160 LINE",
"272 160 LINE",
"272 190.8 LINE",
"291 197.8 OFFCURVE",
"309.4 206.8 OFFCURVE",
"326.4 218.7 CURVE SMOOTH",
"367 247.2 LINE SMOOTH",
"385.1 260 OFFCURVE",
"389.4 284.9 OFFCURVE",
"376.7 303 CURVE SMOOTH"
);
}
);
width = 384;
}
);
note = baby;
unicode = 1F476;
},
{
glyphname = ghost;
layers = (
{
layerId = "8CF30A56-F91F-4EB2-A618-934C961D83D1";
paths = (
{
closed = 1;
nodes = (
"81.01 444.76 OFFCURVE",
"0 353.08 OFFCURVE",
"0 247.95 CURVE SMOOTH",
"0 -15.97 LINE SMOOTH",
"0 -30.23 OFFCURVE",
"17.23 -37.36 OFFCURVE",
"27.31 -27.28 CURVE",
"52.23 -8.75 LINE SMOOTH",
"58.89 -3.8 OFFCURVE",
"68.23 -4.76 OFFCURVE",
"73.74 -10.96 CURVE SMOOTH",
"116.69 -59.31 LINE",
"122.94 -65.56 OFFCURVE",
"133.07 -65.56 OFFCURVE",
"139.32 -59.31 CURVE",
"180.04 -13.46 LINE SMOOTH",
"186.41 -6.29 OFFCURVE",
"197.6 -6.29 OFFCURVE",
"203.96 -13.46 CURVE SMOOTH",
"244.68 -59.31 LINE",
"250.93 -65.56 OFFCURVE",
"261.06 -65.56 OFFCURVE",
"267.31 -59.31 CURVE",
"310.26 -10.96 LINE SMOOTH",
"315.77 -4.76 OFFCURVE",
"325.11 -3.79 OFFCURVE",
"331.77 -8.75 CURVE SMOOTH",
"356.69 -27.28 LINE",
"366.77 -37.36 OFFCURVE",
"384 -30.22 OFFCURVE",
"384 -15.97 CURVE SMOOTH",
"384 256 LINE SMOOTH",
"384 364 OFFCURVE",
"294.83 451.17 OFFCURVE",
"186.1 447.91 CURVE SMOOTH"
);
},
{
closed = 1;
nodes = (
"110.33 224 OFFCURVE",
"96 238.33 OFFCURVE",
"96 256 CURVE SMOOTH",
"96 273.67 OFFCURVE",
"110.33 288 OFFCURVE",
"128 288 CURVE SMOOTH",
"145.67 288 OFFCURVE",
"160 273.67 OFFCURVE",
"160 256 CURVE SMOOTH",
"160 238.33 OFFCURVE",
"145.67 224 OFFCURVE",
"128 224 CURVE SMOOTH"
);
},
{
closed = 1;
nodes = (
"238.33 224 OFFCURVE",
"224 238.33 OFFCURVE",
"224 256 CURVE SMOOTH",
"224 273.67 OFFCURVE",
"238.33 288 OFFCURVE",
"256 288 CURVE SMOOTH",
"273.67 288 OFFCURVE",
"288 273.67 OFFCURVE",
"288 256 CURVE SMOOTH",
"288 238.33 OFFCURVE",
"273.67 224 OFFCURVE",
"256 224 CURVE SMOOTH"
);
}
);
width = 384;
}
);
note = ghost;
unicode = 1F47B;
},
{
glyphname = skull;
layers = (
{
layerId = "8CF30A56-F91F-4EB2-A618-934C961D83D1";
paths = (
{
closed = 1;
nodes = (
"114.6 448 OFFCURVE",
"0 347.7 OFFCURVE",
"0 224 CURVE SMOOTH",
"0 153.9 OFFCURVE",
"36.9 91.4 OFFCURVE",
"94.5 50.3 CURVE SMOOTH",
"104.1 43.4 OFFCURVE",
"109.7 32.2 OFFCURVE",
"108 20.4 CURVE SMOOTH",
"98.6 -45.8 LINE SMOOTH",
"97.2 -55.4 OFFCURVE",
"104.6 -64 OFFCURVE",
"114.3 -64 CURVE SMOOTH",
"192 -64 LINE",
"192 -8 LINE SMOOTH",
"192 -3.6 OFFCURVE",
"195.6 0 OFFCURVE",
"200 0 CURVE SMOOTH",
"216 0 LINE SMOOTH",
"220.4 0 OFFCURVE",
"224 -3.6 OFFCURVE",
"224 -8 CURVE SMOOTH",
"224 -64 LINE",
"288 -64 LINE",
"288 -8 LINE SMOOTH",
"288 -3.6 OFFCURVE",
"291.6 0 OFFCURVE",
"296 0 CURVE SMOOTH",
"312 0 LINE SMOOTH",
"316.4 0 OFFCURVE",
"320 -3.6 OFFCURVE",
"320 -8 CURVE SMOOTH",
"320 -64 LINE",
"397.7 -64 LINE SMOOTH",
"407.4 -64 OFFCURVE",
"414.8 -55.4 OFFCURVE",
"413.4 -45.8 CURVE SMOOTH",
"404 20.4 LINE SMOOTH",
"402.3 32.1 OFFCURVE",
"407.8 43.4 OFFCURVE",
"417.5 50.3 CURVE SMOOTH",
"475.1 91.4 OFFCURVE",
"512 153.9 OFFCURVE",
"512 224 CURVE SMOOTH",
"512 347.7 OFFCURVE",
"397.4 448 OFFCURVE",
"256 448 CURVE SMOOTH"
);
},
{
closed = 1;
nodes = (
"124.7 128 OFFCURVE",
"96 156.7 OFFCURVE",
"96 192 CURVE SMOOTH",
"96 227.3 OFFCURVE",
"124.7 256 OFFCURVE",
"160 256 CURVE SMOOTH",
"195.3 256 OFFCURVE",
"224 227.3 OFFCURVE",
"224 192 CURVE SMOOTH",
"224 156.7 OFFCURVE",
"195.3 128 OFFCURVE",
"160 128 CURVE SMOOTH"
);
},
{
closed = 1;
nodes = (
"316.7 128 OFFCURVE",
"288 156.7 OFFCURVE",
"288 192 CURVE SMOOTH",
"288 227.3 OFFCURVE",
"316.7 256 OFFCURVE",
"352 256 CURVE SMOOTH",
"387.3 256 OFFCURVE",
"416 227.3 OFFCURVE",
"416 192 CURVE SMOOTH",
"416 156.7 OFFCURVE",
"387.3 128 OFFCURVE",
"352 128 CURVE SMOOTH"
);
}
);
width = 512;
}
);
note = skull;
unicode = 1F480;
},
{
glyphname = syringe;
layers = (
{
layerId = "8CF30A56-F91F-4EB2-A618-934C961D83D1";
paths = (
{
closed = 1;
nodes = (
"201.5 273.2 LINE",
"257.2 217.4 LINE SMOOTH",
"260.3 214.3 OFFCURVE",
"260.3 209.2 OFFCURVE",
"257.2 206.1 CURVE SMOOTH",
"245.9 194.8 LINE SMOOTH",
"242.8 191.7 OFFCURVE",
"237.7 191.7 OFFCURVE",
"234.6 194.8 CURVE SMOOTH",
"178.9 250.6 LINE",
"133.6 205.3 LINE",
"189.4 149.5 LINE SMOOTH",
"192.5 146.4 OFFCURVE",
"192.5 141.3 OFFCURVE",
"189.4 138.2 CURVE SMOOTH",
"178.1 126.9 LINE SMOOTH",
"175 123.8 OFFCURVE",
"169.9 123.8 OFFCURVE",
"166.8 126.9 CURVE SMOOTH",
"111 182.8 LINE",
"84.6 156.4 LINE SMOOTH",
"67.3 139.1 OFFCURVE",
"59 115.3 OFFCURVE",
"61.6 91 CURVE SMOOTH",
"68.7 27.4 LINE",
"2.3 -39 LINE SMOOTH",
"-0.8 -42.1 OFFCURVE",
"-0.8 -47.2 OFFCURVE",
"2.3 -50.3 CURVE SMOOTH",
"13.6 -61.6 LINE SMOOTH",
"16.7 -64.7 OFFCURVE",
"21.8 -64.7 OFFCURVE",
"24.9 -61.6 CURVE SMOOTH",
"91.2 4.7 LINE",
"154.8 -2.4 LINE SMOOTH",
"178.7 -5 OFFCURVE",
"202.7 3 OFFCURVE",
"220.2 20.6 CURVE SMOOTH",
"402.1 202.5 LINE",
"266.4 338.2 LINE"
);
},
{
closed = 1;
nodes = (
"430.5 445.7 LINE SMOOTH",
"427.4 448.8 OFFCURVE",
"422.3 448.8 OFFCURVE",
"419.2 445.7 CURVE SMOOTH",
"407.9 434.4 LINE SMOOTH",
"404.8 431.3 OFFCURVE",
"404.8 426.2 OFFCURVE",
"407.9 423.1 CURVE SMOOTH",
"436.2 394.8 LINE",
"390.9 349.5 LINE",
"334.3 406.1 LINE",
"317.3 423.1 LINE SMOOTH",
"314.2 426.2 OFFCURVE",
"309.1 426.2 OFFCURVE",
"306 423.1 CURVE SMOOTH",
"272.1 389.2 LINE SMOOTH",
"269 386.1 OFFCURVE",
"269 381 OFFCURVE",
"272.1 377.9 CURVE SMOOTH",
"289.1 360.9 LINE",
"424.8 225 LINE",
"441.8 208 LINE SMOOTH",
"444.9 204.9 OFFCURVE",
"450 204.9 OFFCURVE",
"453.1 208 CURVE SMOOTH",
"487 242 LINE SMOOTH",
"490.1 245.1 OFFCURVE",
"490.1 250.2 OFFCURVE",
"487 253.3 CURVE SMOOTH",
"413.5 326.8 LINE",
"458.8 372.1 LINE",
"487.1 343.8 LINE SMOOTH",
"490.2 340.7 OFFCURVE",
"495.3 340.7 OFFCURVE",
"498.4 343.8 CURVE SMOOTH",
"509.7 355.1 LINE SMOOTH",
"512.8 358.3 OFFCURVE",
"512.8 363.3 OFFCURVE",
"509.7 366.5 CURVE SMOOTH"
);
}
);
width = 512;
}
);
note = syringe;
unicode = 1F489;
},
{
glyphname = kiss;
layers = (
{
layerId = "8CF30A56-F91F-4EB2-A618-934C961D83D1";
paths = (
{
closed = 1;
nodes = (
"111 440 OFFCURVE",
"0 329 OFFCURVE",
"0 192 CURVE SMOOTH",
"0 55 OFFCURVE",
"111 -56 OFFCURVE",
"248 -56 CURVE SMOOTH",
"385 -56 OFFCURVE",
"496 55 OFFCURVE",
"496 192 CURVE SMOOTH",
"496 329 OFFCURVE",
"385 440 OFFCURVE",
"248 440 CURVE SMOOTH"
);
},
{
closed = 1;
nodes = (
"150.3 208 OFFCURVE",
"136 222.3 OFFCURVE",
"136 240 CURVE SMOOTH",
"136 257.7 OFFCURVE",
"150.3 272 OFFCURVE",
"168 272 CURVE SMOOTH",
"185.7 272 OFFCURVE",
"200 257.7 OFFCURVE",
"200 240 CURVE SMOOTH",
"200 222.3 OFFCURVE",
"185.7 208 OFFCURVE",
"168 208 CURVE SMOOTH"
);
},
{
closed = 1;
nodes = (
"304 32.8 OFFCURVE",
"275.3 10.5 OFFCURVE",
"232.5 8 CURVE",
"224 7.2 OFFCURVE",
"220.4 19.8 OFFCURVE",
"228.9 23.4 CURVE SMOOTH",
"245.9 30.6 LINE SMOOTH",
"258.9 36.1 OFFCURVE",
"266.7 44.1 OFFCURVE",
"266.7 52.1 CURVE SMOOTH",
"266.7 60.1 OFFCURVE",
"258.9 68.1 OFFCURVE",
"245.9 73.6 CURVE SMOOTH",
"228.9 80.8 LINE SMOOTH",
"222.9 83.3 OFFCURVE",
"222.8 93 OFFCURVE",
"228.9 95.6 CURVE SMOOTH",
"245.9 102.8 LINE SMOOTH",
"258.9 108.3 OFFCURVE",
"266.7 116.3 OFFCURVE",
"266.7 124.3 CURVE SMOOTH",
"266.7 132.3 OFFCURVE",
"258.9 140.3 OFFCURVE",
"245.9 145.8 CURVE SMOOTH",
"228.9 153 LINE SMOOTH",
"220.3 156.6 OFFCURVE",
"224.1 169.5 OFFCURVE",
"232.5 168.4 CURVE",
"275.3 165.9 OFFCURVE",
"304 143.6 OFFCURVE",
"304 124.4 CURVE SMOOTH",
"304 111.4 OFFCURVE",
"290.6 97.1 OFFCURVE",
"268.8 88.4 CURVE",
"290.6 79.3 OFFCURVE",
"304 65 OFFCURVE",
"304 52 CURVE SMOOTH"
);
},
{
closed = 1;
nodes = (
"310.3 208 OFFCURVE",
"296 222.3 OFFCURVE",
"296 240 CURVE SMOOTH",
"296 257.7 OFFCURVE",
"310.3 272 OFFCURVE",
"328 272 CURVE SMOOTH",
"345.7 272 OFFCURVE",
"360 257.7 OFFCURVE",
"360 240 CURVE SMOOTH",
"360 222.3 OFFCURVE",
"345.7 208 OFFCURVE",
"328 208 CURVE SMOOTH"
);
}
);
width = 496;
}
);
note = kiss;
unicode = 1F48F;
},
{
glyphname = bomb;
layers = (
{
layerId = "8CF30A56-F91F-4EB2-A618-934C961D83D1";
paths = (
{
closed = 1;
nodes = (
"440.5 359.5 LINE",
"423.4 376.5 LINE",
"371.4 324.5 LINE",
"344.9 351 LINE SMOOTH",
"335.6 360.4 OFFCURVE",
"320.4 360.4 OFFCURVE",
"311 351 CURVE SMOOTH",
"293.6 333.6 LINE",
"267.5 345.4 OFFCURVE",
"238.5 352 OFFCURVE",
"208 352 CURVE SMOOTH",
"93.1 352 OFFCURVE",
"0 258.9 OFFCURVE",
"0 144 CURVE SMOOTH",
"0 29.1 OFFCURVE",
"93.1 -63.9 OFFCURVE",
"208 -63.9 CURVE SMOOTH",
"322.9 -63.9 OFFCURVE",
"416 29.2 OFFCURVE",
"416 144.1 CURVE SMOOTH",
"416 174.6 OFFCURVE",
"409.4 203.6 OFFCURVE",
"397.6 229.7 CURVE",
"415 247.1 LINE SMOOTH",
"424.4 256.4 OFFCURVE",
"424.4 271.6 OFFCURVE",
"415 281 CURVE SMOOTH",
"388.5 307.5 LINE"
);
},
{
closed = 1;
nodes = (
"476 388 LINE SMOOTH",
"469.4 388 OFFCURVE",
"464 382.6 OFFCURVE",
"464 376 CURVE SMOOTH",
"464 369.4 OFFCURVE",
"469.4 364 OFFCURVE",
"476 364 CURVE SMOOTH",
"500 364 LINE SMOOTH",
"506.6 364 OFFCURVE",
"512 369.4 OFFCURVE",
"512 376 CURVE SMOOTH",
"512 382.6 OFFCURVE",
"506.6 388 OFFCURVE",
"500 388 CURVE SMOOTH"
);
},
{
closed = 1;
nodes = (
"433.4 448 OFFCURVE",
"428 442.6 OFFCURVE",
"428 436 CURVE SMOOTH",
"428 412 LINE SMOOTH",
"428 405.4 OFFCURVE",
"433.4 400 OFFCURVE",
"440 400 CURVE SMOOTH",
"446.6 400 OFFCURVE",
"452 405.4 OFFCURVE",
"452 412 CURVE SMOOTH",
"452 436 LINE SMOOTH",
"452 442.6 OFFCURVE",
"446.6 448 OFFCURVE",
"440 448 CURVE SMOOTH"
);
},
{
closed = 1;
nodes = (
"490.9 410 LINE SMOOTH",
"495.6 414.7 OFFCURVE",
"495.6 422.3 OFFCURVE",
"490.9 427 CURVE SMOOTH",
"486.2 431.7 OFFCURVE",
"478.6 431.7 OFFCURVE",
"473.9 427 CURVE SMOOTH",
"456.9 410 LINE SMOOTH",
"452.2 405.3 OFFCURVE",
"452.2 397.7 OFFCURVE",
"456.9 393 CURVE SMOOTH",
"461.7 388.3 OFFCURVE",
"469.3 388.3 OFFCURVE",
"473.9 393 CURVE SMOOTH"
);
},
{
closed = 1;
nodes = (
"406.1 393 LINE SMOOTH",
"410.8 388.3 OFFCURVE",
"418.4 388.3 OFFCURVE",
"423.1 393 CURVE SMOOTH",
"427.8 397.7 OFFCURVE",
"427.8 405.3 OFFCURVE",
"423.1 410 CURVE SMOOTH",
"406.1 427 LINE SMOOTH",
"401.4 431.7 OFFCURVE",
"393.8 431.7 OFFCURVE",
"389.1 427 CURVE SMOOTH",
"384.4 422.3 OFFCURVE",
"384.4 414.7 OFFCURVE",
"389.1 410 CURVE SMOOTH"
);
},
{
closed = 1;
nodes = (
"473.9 359 LINE SMOOTH",
"469.2 363.7 OFFCURVE",
"461.6 363.7 OFFCURVE",
"456.9 359 CURVE SMOOTH",
"452.2 354.3 OFFCURVE",
"452.2 346.7 OFFCURVE",
"456.9 342 CURVE SMOOTH",
"473.9 325 LINE SMOOTH",
"478.6 320.3 OFFCURVE",
"486.2 320.3 OFFCURVE",
"490.9 325 CURVE SMOOTH",
"495.6 329.7 OFFCURVE",
"495.6 337.3 OFFCURVE",
"490.9 342 CURVE SMOOTH"
);
},
{
closed = 1;
nodes = (
"112 167.2 OFFCURVE",
"104.8 160 OFFCURVE",
"96 160 CURVE SMOOTH",
"87.2 160 OFFCURVE",
"80 167.2 OFFCURVE",
"80 176 CURVE SMOOTH",
"80 228.9 OFFCURVE",
"123.1 272 OFFCURVE",
"176 272 CURVE SMOOTH",
"184.8 272 OFFCURVE",
"192 264.8 OFFCURVE",
"192 256 CURVE SMOOTH",
"192 247.2 OFFCURVE",
"184.8 240 OFFCURVE",
"176 240 CURVE SMOOTH",
"140.7 240 OFFCURVE",
"112 211.3 OFFCURVE",
"112 176 CURVE SMOOTH"
);
}
);
width = 512;
}
);
note = bomb;
unicode = 1F4A3;
},
{
glyphname = briefcase;
layers = (
{
layerId = "8CF30A56-F91F-4EB2-A618-934C961D83D1";
paths = (
{
closed = 1;
nodes = (
"320 112 LINE SMOOTH",
"320 103.16 OFFCURVE",
"312.84 96 OFFCURVE",
"304 96 CURVE SMOOTH",
"208 96 LINE SMOOTH",
"199.16 96 OFFCURVE",
"192 103.16 OFFCURVE",
"192 112 CURVE SMOOTH",
"192 160 LINE",
"0 160 LINE",
"0 16 LINE SMOOTH",
"0 -9.6 OFFCURVE",
"22.4 -32 OFFCURVE",
"48 -32 CURVE SMOOTH",
"464 -32 LINE SMOOTH",
"489.6 -32 OFFCURVE",
"512 -9.6 OFFCURVE",
"512 16 CURVE SMOOTH",
"512 160 LINE",
"320 160 LINE"
);
},
{
closed = 1;
nodes = (
"384 320 LINE",
"384 368 LINE SMOOTH",
"384 393.6 OFFCURVE",
"361.6 416 OFFCURVE",
"336 416 CURVE SMOOTH",
"176 416 LINE SMOOTH",
"150.4 416 OFFCURVE",
"128 393.6 OFFCURVE",
"128 368 CURVE SMOOTH",
"128 320 LINE",
"48 320 LINE SMOOTH",
"22.4 320 OFFCURVE",
"0 297.6 OFFCURVE",
"0 272 CURVE SMOOTH",
"0 192 LINE",
"512 192 LINE",
"512 272 LINE SMOOTH",
"512 297.6 OFFCURVE",
"489.6 320 OFFCURVE",
"464 320 CURVE SMOOTH"
);
},
{
closed = 1;
nodes = (
"320 320 LINE",
"192 320 LINE",
"192 352 LINE",
"320 352 LINE"
);
}
);
width = 512;
}
);
note = briefcase;
unicode = 1F4BC;
},
{
glyphname = calendar;
layers = (
{
layerId = "8CF30A56-F91F-4EB2-A618-934C961D83D1";
paths = (
{
closed = 1;
nodes = (
"12 256 LINE SMOOTH",
"5.4 256 OFFCURVE",
"0 250.6 OFFCURVE",
"0 244 CURVE SMOOTH",
"0 -16 LINE SMOOTH",
"0 -42.5 OFFCURVE",
"21.5 -64 OFFCURVE",
"48 -64 CURVE SMOOTH",
"400 -64 LINE SMOOTH",
"426.5 -64 OFFCURVE",
"448 -42.5 OFFCURVE",
"448 -16 CURVE SMOOTH",
"448 244 LINE SMOOTH",
"448 250.6 OFFCURVE",
"442.6 256 OFFCURVE",
"436 256 CURVE SMOOTH"
);
},
{
closed = 1;
nodes = (
"448 336 LINE SMOOTH",
"448 362.5 OFFCURVE",
"426.5 384 OFFCURVE",
"400 384 CURVE SMOOTH",
"352 384 LINE",
"352 436 LINE SMOOTH",
"352 442.6 OFFCURVE",
"346.6 448 OFFCURVE",
"340 448 CURVE SMOOTH",
"300 448 LINE SMOOTH",
"293.4 448 OFFCURVE",
"288 442.6 OFFCURVE",
"288 436 CURVE SMOOTH",
"288 384 LINE",
"160 384 LINE",
"160 436 LINE SMOOTH",
"160 442.6 OFFCURVE",
"154.6 448 OFFCURVE",
"148 448 CURVE SMOOTH",
"108 448 LINE SMOOTH",
"101.4 448 OFFCURVE",
"96 442.6 OFFCURVE",
"96 436 CURVE SMOOTH",
"96 384 LINE",
"48 384 LINE SMOOTH",
"21.5 384 OFFCURVE",
"0 362.5 OFFCURVE",
"0 336 CURVE SMOOTH",
"0 300 LINE SMOOTH",
"0 293.4 OFFCURVE",
"5.4 288 OFFCURVE",
"12 288 CURVE SMOOTH",
"436 288 LINE SMOOTH",
"442.6 288 OFFCURVE",
"448 293.4 OFFCURVE",
"448 300 CURVE SMOOTH"
);
}
);
width = 448;
}
);
note = calendar;
unicode = 1F4C5;
},
{
glyphname = clipboard;
layers = (
{
layerId = "8CF30A56-F91F-4EB2-A618-934C961D83D1";
paths = (
{
closed = 1;
nodes = (
"384 336 LINE SMOOTH",
"384 362.51 OFFCURVE",
"362.51 384 OFFCURVE",
"336 384 CURVE SMOOTH",
"256 384 LINE",
"256 419.29 OFFCURVE",
"227.29 448 OFFCURVE",
"192 448 CURVE SMOOTH",
"156.71 448 OFFCURVE",
"128 419.29 OFFCURVE",
"128 384 CURVE",
"48 384 LINE SMOOTH",
"21.49 384 OFFCURVE",
"0 362.51 OFFCURVE",
"0 336 CURVE SMOOTH",
"0 -16 LINE SMOOTH",
"0 -42.51 OFFCURVE",
"21.49 -64 OFFCURVE",
"48 -64 CURVE SMOOTH",
"336 -64 LINE SMOOTH",
"362.51 -64 OFFCURVE",
"384 -42.51 OFFCURVE",
"384 -16 CURVE SMOOTH"
);
},
{
closed = 1;
nodes = (
"205.25 408 OFFCURVE",
"216 397.25 OFFCURVE",
"216 384 CURVE SMOOTH",
"216 370.75 OFFCURVE",
"205.25 360 OFFCURVE",
"192 360 CURVE SMOOTH",
"178.75 360 OFFCURVE",
"168 370.75 OFFCURVE",
"168 384 CURVE SMOOTH",
"168 397.25 OFFCURVE",
"178.75 408 OFFCURVE",
"192 408 CURVE SMOOTH"
);
},
{
closed = 1;
nodes = (
"288 294 LINE SMOOTH",
"288 290.69 OFFCURVE",
"285.31 288 OFFCURVE",
"282 288 CURVE SMOOTH",
"102 288 LINE SMOOTH",
"98.69 288 OFFCURVE",
"96 290.69 OFFCURVE",
"96 294 CURVE SMOOTH",
"96 314 LINE SMOOTH",
"96 317.31 OFFCURVE",
"98.69 320 OFFCURVE",
"102 320 CURVE SMOOTH",
"282 320 LINE SMOOTH",
"285.31 320 OFFCURVE",
"288 317.31 OFFCURVE",
"288 314 CURVE SMOOTH"
);
}
);
width = 384;
}
);
note = clipboard;
unicode = 1F4CB;
},
{
glyphname = paperclip;
layers = (
{
layerId = "8CF30A56-F91F-4EB2-A618-934C961D83D1";
paths = (
{
closed = 1;
nodes = (
"102.08 -78.84 OFFCURVE",
"198.44 -79.56 OFFCURVE",
"258.02 -18.63 CURVE SMOOTH",
"430.08 157.37 LINE SMOOTH",
"436.26 163.69 OFFCURVE",
"436.14 173.82 OFFCURVE",
"429.82 180 CURVE SMOOTH",
"406.94 202.36 LINE SMOOTH",
"400.62 208.54 OFFCURVE",
"390.49 208.42 OFFCURVE",
"384.31 202.1 CURVE SMOOTH",
"212.25 26.1 LINE SMOOTH",
"178.18 -8.75 OFFCURVE",
"123.2 -8.71 OFFCURVE",
"89.19 26.39 CURVE SMOOTH",
"55.08 61.58 OFFCURVE",
"55.62 119.14 OFFCURVE",
"90.38 154.7 CURVE SMOOTH",
"300.14 369.26 LINE SMOOTH",
"319.34 388.9 OFFCURVE",
"350.1 388.89 OFFCURVE",
"369.29 369.26 CURVE SMOOTH",
"388.91 349.19 OFFCURVE",
"388.91 316.52 OFFCURVE",
"369.3 296.46 CURVE SMOOTH",
"186.45 109.61 LINE SMOOTH",
"182.01 105.06 OFFCURVE",
"175.13 105.14 OFFCURVE",
"170.76 109.78 CURVE SMOOTH",
"166.17 114.64 OFFCURVE",
"166.48 123.03 OFFCURVE",
"171.41 128.07 CURVE SMOOTH",
"315.14 274.89 LINE SMOOTH",
"321.32 281.2 OFFCURVE",
"321.21 291.33 OFFCURVE",
"314.9 297.52 CURVE SMOOTH",
"292.04 319.9 LINE SMOOTH",
"285.73 326.08 OFFCURVE",
"275.6 325.97 OFFCURVE",
"269.41 319.66 CURVE SMOOTH",
"125.67 172.83 LINE SMOOTH",
"96.85 143.35 OFFCURVE",
"95.94 95.85 OFFCURVE",
"124.22 65.88 CURVE SMOOTH",
"153.57 34.77 OFFCURVE",
"202.35 34.34 OFFCURVE",
"232.2 64.88 CURVE SMOOTH",
"415.05 251.73 LINE SMOOTH",
"458.99 296.68 OFFCURVE",
"458.94 369.11 OFFCURVE",
"415.05 414.01 CURVE SMOOTH",
"370.73 459.35 OFFCURVE",
"298.69 459.34 OFFCURVE",
"254.38 414.01 CURVE SMOOTH",
"44.62 199.45 LINE SMOOTH",
"-14.11 139.38 OFFCURVE",
"-15.2 42.16 OFFCURVE",
"43.23 -18.13 CURVE SMOOTH"
);
}
);
width = 448;
}
);
note = paperclip;
unicode = 1F4CE;
},
{
glyphname = scroll;
layers = (
{
layerId = "8CF30A56-F91F-4EB2-A618-934C961D83D1";
paths = (
{
closed = 1;
nodes = (
"21.53 448 OFFCURVE",
"0 426.47 OFFCURVE",
"0 400 CURVE SMOOTH",
"0 336 LINE SMOOTH",
"0 327.16 OFFCURVE",
"7.16 320 OFFCURVE",
"16 320 CURVE SMOOTH",
"96 320 LINE",
"96 400 LINE SMOOTH",
"96 426.47 OFFCURVE",
"74.47 448 OFFCURVE",
"48 448 CURVE SMOOTH"
);
},
{
closed = 1;
nodes = (
"256 96 LINE",
"544 96 LINE",
"544 352 LINE SMOOTH",
"544 404.94 OFFCURVE",
"500.94 448 OFFCURVE",
"448 448 CURVE SMOOTH",
"111.59 448 LINE",
"121.74 434.59 OFFCURVE",
"128 418.08 OFFCURVE",
"128 400 CURVE SMOOTH",
"128 32 LINE SMOOTH",
"128 -6.87 OFFCURVE",
"162.65 -37.65 OFFCURVE",
"202.75 -31.12 CURVE SMOOTH",
"234.22 -26 OFFCURVE",
"256 3.54 OFFCURVE",
"256 35.43 CURVE SMOOTH"
);
},
{
closed = 1;
nodes = (
"288 64 LINE",
"288 32 LINE SMOOTH",
"288 -20.93 OFFCURVE",
"244.94 -64 OFFCURVE",
"192 -64 CURVE",
"528 -64 LINE SMOOTH",
"589.86 -64 OFFCURVE",
"640 -13.86 OFFCURVE",
"640 48 CURVE SMOOTH",
"640 56.84 OFFCURVE",
"632.84 64 OFFCURVE",
"624 64 CURVE SMOOTH"
);
}
);
width = 640;
}
);
note = scroll;
unicode = 1F4DC;
},
{
glyphname = pager;
layers = (
{
layerId = "8CF30A56-F91F-4EB2-A618-934C961D83D1";
paths = (
{
closed = 1;
nodes = (
"64 384 LINE SMOOTH",
"28.67 384 OFFCURVE",
"0 355.33 OFFCURVE",
"0 320 CURVE SMOOTH",
"0 64 LINE SMOOTH",
"0 28.67 OFFCURVE",
"28.67 0 OFFCURVE",
"64 0 CURVE SMOOTH",
"448 0 LINE SMOOTH",
"483.33 0 OFFCURVE",
"512 28.67 OFFCURVE",
"512 64 CURVE SMOOTH",
"512 320 LINE SMOOTH",
"512 355.33 OFFCURVE",
"483.33 384 OFFCURVE",
"448 384 CURVE SMOOTH"
);
},
{
closed = 1;
nodes = (
"160 80 LINE",
"80 80 LINE SMOOTH",
"71.17 80 OFFCURVE",
"64 87.17 OFFCURVE",
"64 96 CURVE SMOOTH",
"64 112 LINE SMOOTH",
"64 120.83 OFFCURVE",
"71.17 128 OFFCURVE",
"80 128 CURVE SMOOTH",
"160 128 LINE"
);
},
{
closed = 1;
nodes = (
"288 96 LINE SMOOTH",
"288 87.17 OFFCURVE",
"280.83 80 OFFCURVE",
"272 80 CURVE SMOOTH",
"192 80 LINE",
"192 128 LINE",
"272 128 LINE SMOOTH",
"280.83 128 OFFCURVE",
"288 120.83 OFFCURVE",
"288 112 CURVE SMOOTH"
);
},
{
closed = 1;
nodes = (
"448 224 LINE SMOOTH",
"448 206.34 OFFCURVE",
"433.66 192 OFFCURVE",
"416 192 CURVE SMOOTH",
"96 192 LINE SMOOTH",
"78.34 192 OFFCURVE",
"64 206.34 OFFCURVE",
"64 224 CURVE SMOOTH",
"64 288 LINE SMOOTH",
"64 305.66 OFFCURVE",
"78.34 320 OFFCURVE",
"96 320 CURVE SMOOTH",
"416 320 LINE SMOOTH",
"433.66 320 OFFCURVE",
"448 305.66 OFFCURVE",
"448 288 CURVE SMOOTH"
);
}
);
width = 512;
}
);
note = pager;
unicode = 1F4DF;
},
{
glyphname = newspaper;
layers = (
{
layerId = "8CF30A56-F91F-4EB2-A618-934C961D83D1";
paths = (
{
closed = 1;
nodes = (
"88 384 LINE SMOOTH",
"74.75 384 OFFCURVE",
"64 373.25 OFFCURVE",
"64 360 CURVE SMOOTH",
"64 352 LINE",
"24 352 LINE SMOOTH",
"10.75 352 OFFCURVE",
"0 341.25 OFFCURVE",
"0 328 CURVE SMOOTH",
"0 56 LINE SMOOTH",
"0 25.07 OFFCURVE",
"25.07 0 OFFCURVE",
"56 0 CURVE SMOOTH",
"528 0 LINE SMOOTH",
"554.51 0 OFFCURVE",
"576 21.49 OFFCURVE",
"576 48 CURVE SMOOTH",
"576 360 LINE SMOOTH",
"576 373.25 OFFCURVE",
"565.25 384 OFFCURVE",
"552 384 CURVE SMOOTH"
);
},
{
closed = 1;
nodes = (
"51.58 48 OFFCURVE",
"48 51.58 OFFCURVE",
"48 56 CURVE SMOOTH",
"48 304 LINE",
"64 304 LINE",
"64 56 LINE SMOOTH",
"64 51.58 OFFCURVE",
"60.42 48 OFFCURVE",
"56 48 CURVE SMOOTH"
);
},
{
closed = 1;
nodes = (
"140 64 LINE SMOOTH",
"133.37 64 OFFCURVE",
"128 69.37 OFFCURVE",
"128 76 CURVE SMOOTH",
"128 84 LINE SMOOTH",
"128 90.63 OFFCURVE",
"133.37 96 OFFCURVE",
"140 96 CURVE SMOOTH",
"292 96 LINE SMOOTH",
"298.63 96 OFFCURVE",
"304 90.63 OFFCURVE",
"304 84 CURVE SMOOTH",
"304 76 LINE SMOOTH",
"304 69.37 OFFCURVE",
"298.63 64 OFFCURVE",
"292 64 CURVE SMOOTH"
);
},
{
closed = 1;
nodes = (
"348 64 LINE SMOOTH",
"341.37 64 OFFCURVE",
"336 69.37 OFFCURVE",
"336 76 CURVE SMOOTH",
"336 84 LINE SMOOTH",
"336 90.63 OFFCURVE",
"341.37 96 OFFCURVE",
"348 96 CURVE SMOOTH",
"500 96 LINE SMOOTH",
"506.63 96 OFFCURVE",
"512 90.63 OFFCURVE",
"512 84 CURVE SMOOTH",
"512 76 LINE SMOOTH",
"512 69.37 OFFCURVE",
"506.63 64 OFFCURVE",
"500 64 CURVE SMOOTH"
);
},
{
closed = 1;
nodes = (
"140 160 LINE SMOOTH",
"133.37 160 OFFCURVE",
"128 165.37 OFFCURVE",
"128 172 CURVE SMOOTH",
"128 180 LINE SMOOTH",
"128 186.63 OFFCURVE",
"133.37 192 OFFCURVE",
"140 192 CURVE SMOOTH",
"292 192 LINE SMOOTH",
"298.63 192 OFFCURVE",
"304 186.63 OFFCURVE",
"304 180 CURVE SMOOTH",
"304 172 LINE SMOOTH",
"304 165.37 OFFCURVE",
"298.63 160 OFFCURVE",
"292 160 CURVE SMOOTH"
);
},
{
closed = 1;
nodes = (
"348 160 LINE SMOOTH",
"341.37 160 OFFCURVE",
"336 165.37 OFFCURVE",
"336 172 CURVE SMOOTH",
"336 180 LINE SMOOTH",
"336 186.63 OFFCURVE",
"341.37 192 OFFCURVE",
"348 192 CURVE SMOOTH",
"500 192 LINE SMOOTH",
"506.63 192 OFFCURVE",
"512 186.63 OFFCURVE",
"512 180 CURVE SMOOTH",
"512 172 LINE SMOOTH",
"512 165.37 OFFCURVE",
"506.63 160 OFFCURVE",
"500 160 CURVE SMOOTH"
);
},
{
closed = 1;
nodes = (
"140 256 LINE SMOOTH",
"133.37 256 OFFCURVE",
"128 261.37 OFFCURVE",
"128 268 CURVE SMOOTH",
"128 308 LINE SMOOTH",
"128 314.63 OFFCURVE",
"133.37 320 OFFCURVE",
"140 320 CURVE SMOOTH",
"500 320 LINE SMOOTH",
"506.63 320 OFFCURVE",
"512 314.63 OFFCURVE",
"512 308 CURVE SMOOTH",
"512 268 LINE SMOOTH",
"512 261.37 OFFCURVE",
"506.63 256 OFFCURVE",
"500 256 CURVE SMOOTH"
);
}
);
width = 576;
}
);
note = newspaper;
unicode = 1F4F0;
},
{
glyphname = camera;
layers = (
{
layerId = "8CF30A56-F91F-4EB2-A618-934C961D83D1";
paths = (
{
closed = 1;
nodes = (
"512 304 LINE SMOOTH",
"512 330.5 OFFCURVE",
"490.5 352 OFFCURVE",
"464 352 CURVE SMOOTH",
"376 352 LINE",
"363.6 384.9 LINE SMOOTH",
"356.6 403.6 OFFCURVE",
"338.7 416 OFFCURVE",
"318.7 416 CURVE SMOOTH",
"193.2 416 LINE SMOOTH",
"173.2 416 OFFCURVE",
"155.3 403.6 OFFCURVE",
"148.3 384.9 CURVE SMOOTH",
"136 352 LINE",
"48 352 LINE SMOOTH",
"21.5 352 OFFCURVE",
"0 330.5 OFFCURVE",
"0 304 CURVE SMOOTH",
"0 16 LINE SMOOTH",
"0 -10.5 OFFCURVE",
"21.5 -32 OFFCURVE",
"48 -32 CURVE SMOOTH",
"464 -32 LINE SMOOTH",
"490.5 -32 OFFCURVE",
"512 -10.5 OFFCURVE",
"512 16 CURVE SMOOTH"
);
},
{
closed = 1;
nodes = (
"376 93.8 OFFCURVE",
"322.2 40 OFFCURVE",
"256 40 CURVE SMOOTH",
"189.8 40 OFFCURVE",
"136 93.8 OFFCURVE",
"136 160 CURVE SMOOTH",
"136 226.2 OFFCURVE",
"189.8 280 OFFCURVE",
"256 280 CURVE SMOOTH",
"322.2 280 OFFCURVE",
"376 226.2 OFFCURVE",
"376 160 CURVE SMOOTH"
);
},
{
closed = 1;
nodes = (
"344 208.5 OFFCURVE",
"304.5 248 OFFCURVE",
"256 248 CURVE SMOOTH",
"207.5 248 OFFCURVE",
"168 208.5 OFFCURVE",
"168 160 CURVE SMOOTH",
"168 111.5 OFFCURVE",
"207.5 72 OFFCURVE",
"256 72 CURVE SMOOTH",
"304.5 72 OFFCURVE",
"344 111.5 OFFCURVE",
"344 160 CURVE SMOOTH"
);
}
);
width = 512;
}
);
note = camera;
unicode = 1F4F7;
},
{
glyphname = key;
layers = (
{
layerId = "8CF30A56-F91F-4EB2-A618-934C961D83D1";
paths = (
{
closed = 1;
nodes = (
"512 369.49 OFFCURVE",
"433.49 448 OFFCURVE",
"336 448 CURVE SMOOTH",
"238.8 448 OFFCURVE",
"160 369.2 OFFCURVE",
"160 272 CURVE SMOOTH",
"160 252.73 OFFCURVE",
"163.11 234.19 OFFCURVE",
"168.83 216.83 CURVE",
"7.03 55.03 LINE SMOOTH",
"2.53 50.53 OFFCURVE",
"0 44.42 OFFCURVE",
"0 38.06 CURVE SMOOTH",
"0 -40 LINE SMOOTH",
"0 -53.25 OFFCURVE",
"10.75 -64 OFFCURVE",
"24 -64 CURVE SMOOTH",
"136 -64 LINE SMOOTH",
"149.25 -64 OFFCURVE",
"160 -53.25 OFFCURVE",
"160 -40 CURVE SMOOTH",
"160 0 LINE",
"200 0 LINE SMOOTH",
"213.25 0 OFFCURVE",
"224 10.75 OFFCURVE",
"224 24 CURVE SMOOTH",
"224 64 LINE",
"261.22 64 LINE",
"261.22 64 LINE",
"267.17 64 OFFCURVE",
"275.21 67.61 OFFCURVE",
"279.16 72.05 CURVE SMOOTH",
"303.17 99.06 LINE",
"313.81 97.05 OFFCURVE",
"324.78 95.99 OFFCURVE",
"336 95.99 CURVE SMOOTH",
"433.2 95.99 OFFCURVE",
"512 174.79 OFFCURVE",
"512 271.99 CURVE SMOOTH"
);
},
{
closed = 1;
nodes = (
"336 346.5 OFFCURVE",
"357.49 367.99 OFFCURVE",
"384 367.99 CURVE SMOOTH",
"410.51 367.99 OFFCURVE",
"432 346.5 OFFCURVE",
"432 319.99 CURVE SMOOTH",
"432 293.48 OFFCURVE",
"410.51 271.99 OFFCURVE",
"384 271.99 CURVE SMOOTH",
"357.49 271.99 OFFCURVE",
"336 293.48 OFFCURVE",
"336 319.99 CURVE SMOOTH"
);
}
);
width = 512;
}
);
note = key;
unicode = 1F511;
},
{
glyphname = lock;
layers = (
{
layerId = "8CF30A56-F91F-4EB2-A618-934C961D83D1";
paths = (
{
closed = 1;
nodes = (
"376 224 LINE",
"376 296 LINE SMOOTH",
"376 379.8 OFFCURVE",
"307.8 448 OFFCURVE",
"224 448 CURVE SMOOTH",
"140.2 448 OFFCURVE",
"72 379.8 OFFCURVE",
"72 296 CURVE SMOOTH",
"72 224 LINE",
"48 224 LINE SMOOTH",
"21.5 224 OFFCURVE",
"0 202.5 OFFCURVE",
"0 176 CURVE SMOOTH",
"0 -16 LINE SMOOTH",
"0 -42.5 OFFCURVE",
"21.5 -64 OFFCURVE",
"48 -64 CURVE SMOOTH",
"400 -64 LINE SMOOTH",
"426.5 -64 OFFCURVE",
"448 -42.5 OFFCURVE",
"448 -16 CURVE SMOOTH",
"448 176 LINE SMOOTH",
"448 202.5 OFFCURVE",
"426.5 224 OFFCURVE",
"400 224 CURVE SMOOTH"
);
},
{
closed = 1;
nodes = (
"296 224 LINE",
"152 224 LINE",
"152 296 LINE SMOOTH",
"152 335.7 OFFCURVE",
"184.3 368 OFFCURVE",
"224 368 CURVE SMOOTH",
"263.7 368 OFFCURVE",
"296 335.7 OFFCURVE",
"296 296 CURVE SMOOTH"
);
}
);
width = 448;
}
);
note = lock;
unicode = 1F512;
},
{
glyphname = bell;
layers = (
{
layerId = "8CF30A56-F91F-4EB2-A618-934C961D83D1";
paths = (
{
closed = 1;
nodes = (
"259.32 -64 OFFCURVE",
"287.97 -35.35 OFFCURVE",
"287.97 0 CURVE",
"160.03 0 LINE",
"160.03 -35.35 OFFCURVE",
"188.68 -64 OFFCURVE",
"224 -64 CURVE SMOOTH"
);
},
{
closed = 1;
nodes = (
"420.07 106.47 OFFCURVE",
"383.92 137.7 OFFCURVE",
"383.92 240 CURVE SMOOTH",
"383.92 317.7 OFFCURVE",
"329.44 379.9 OFFCURVE",
"255.98 395.16 CURVE",
"255.98 416 LINE SMOOTH",
"255.98 433.67 OFFCURVE",
"241.66 448 OFFCURVE",
"224 448 CURVE SMOOTH",
"206.34 448 OFFCURVE",
"192.02 433.67 OFFCURVE",
"192.02 416 CURVE SMOOTH",
"192.02 395.16 LINE",
"118.56 379.9 OFFCURVE",
"64.08 317.7 OFFCURVE",
"64.08 240 CURVE SMOOTH",
"64.08 137.7 OFFCURVE",
"27.93 106.47 OFFCURVE",
"8.61 85.71 CURVE SMOOTH",
"2.61 79.26 OFFCURVE",
"-0.05 71.55 OFFCURVE",
"0 64 CURVE SMOOTH",
"0.11 47.6 OFFCURVE",
"12.98 32 OFFCURVE",
"32.1 32 CURVE SMOOTH",
"415.9 32 LINE SMOOTH",
"435.02 32 OFFCURVE",
"447.9 47.6 OFFCURVE",
"448 64 CURVE SMOOTH",
"448.05 71.55 OFFCURVE",
"445.39 79.27 OFFCURVE",
"439.39 85.71 CURVE SMOOTH"
);
}
);
width = 448;
}
);
note = bell;
unicode = 1F514;
},
{
glyphname = bookmark;
layers = (
{
layerId = "8CF30A56-F91F-4EB2-A618-934C961D83D1";
paths = (
{
closed = 1;
nodes = (
"0 -64 LINE",
"192 48 LINE",
"384 -64 LINE",
"384 400 LINE SMOOTH",
"384 426.51 OFFCURVE",
"362.51 448 OFFCURVE",
"336 448 CURVE SMOOTH",
"48 448 LINE SMOOTH",
"21.49 448 OFFCURVE",
"0 426.51 OFFCURVE",
"0 400 CURVE SMOOTH"
);
}
);
width = 384;
}
);
note = bookmark;
unicode = 1F516;
},
{
glyphname = fire;
layers = (
{
layerId = "8CF30A56-F91F-4EB2-A618-934C961D83D1";
paths = (
{
closed = 1;
nodes = (
"216 447.94 OFFCURVE",
"185.35 456.91 OFFCURVE",
"171.85 437.18 CURVE SMOOTH",
"48 256.15 OFFCURVE",
"224 248 OFFCURVE",
"224 160 CURVE SMOOTH",
"224 124.37 OFFCURVE",
"194.89 95.54 OFFCURVE",
"159.15 96.01 CURVE SMOOTH",
"123.98 96.46 OFFCURVE",
"96 125.78 OFFCURVE",
"96 160.95 CURVE SMOOTH",
"96 246.46 LINE SMOOTH",
"96 268.16 OFFCURVE",
"69.53 278.69 OFFCURVE",
"54.57 262.96 CURVE SMOOTH",
"27.8 234.84 OFFCURVE",
"0 186.67 OFFCURVE",
"0 128 CURVE SMOOTH",
"0 22.13 OFFCURVE",
"86.13 -64 OFFCURVE",
"192 -64 CURVE SMOOTH",
"297.87 -64 OFFCURVE",
"384 22.13 OFFCURVE",
"384 128 CURVE SMOOTH",
"384 298.29 OFFCURVE",
"216 321 OFFCURVE",
"216 424.14 CURVE SMOOTH"
);
}
);
width = 384;
}
);
note = fire;
unicode = 1F525;
},
{
glyphname = wrench;
layers = (
{
layerId = "8CF30A56-F91F-4EB2-A618-934C961D83D1";
paths = (
{
closed = 1;
nodes = (
"505.49 347.93 OFFCURVE",
"494.19 350.99 OFFCURVE",
"487.61 344.41 CURVE SMOOTH",
"413.25 270.05 LINE",
"345.37 281.36 LINE",
"334.06 349.24 LINE",
"408.42 423.6 LINE SMOOTH",
"415.04 430.22 OFFCURVE",
"411.85 441.5 OFFCURVE",
"402.76 443.76 CURVE SMOOTH",
"355.38 455.5 OFFCURVE",
"303.21 442.85 OFFCURVE",
"266.18 405.83 CURVE SMOOTH",
"226.54 366.19 OFFCURVE",
"215.63 308.73 OFFCURVE",
"232.13 258.63 CURVE",
"18.74 45.24 LINE SMOOTH",
"-6.25 20.25 OFFCURVE",
"-6.25 -20.27 OFFCURVE",
"18.74 -45.26 CURVE SMOOTH",
"43.73 -70.25 OFFCURVE",
"84.25 -70.25 OFFCURVE",
"109.24 -45.26 CURVE SMOOTH",
"322.45 167.95 LINE",
"372.57 151.24 OFFCURVE",
"429.92 162.27 OFFCURVE",
"469.82 202.17 CURVE SMOOTH",
"506.89 239.24 OFFCURVE",
"519.52 291.49 OFFCURVE",
"507.73 338.9 CURVE SMOOTH"
);
},
{
closed = 1;
nodes = (
"50.75 -24 OFFCURVE",
"40 -13.25 OFFCURVE",
"40 0 CURVE SMOOTH",
"40 13.26 OFFCURVE",
"50.75 24 OFFCURVE",
"64 24 CURVE SMOOTH",
"77.25 24 OFFCURVE",
"88 13.26 OFFCURVE",
"88 0 CURVE SMOOTH",
"88 -13.25 OFFCURVE",
"77.25 -24 OFFCURVE",
"64 -24 CURVE SMOOTH"
);
}
);
width = 512;
}
);
note = wrench;
unicode = 1F527;
},
{
glyphname = hammer;
layers = (
{
layerId = "8CF30A56-F91F-4EB2-A618-934C961D83D1";
paths = (
{
closed = 1;
nodes = (
"548.68 276.69 LINE SMOOTH",
"542.43 282.94 OFFCURVE",
"532.3 282.94 OFFCURVE",
"526.05 276.69 CURVE SMOOTH",
"514.74 265.38 LINE",
"485.84 294.28 LINE",
"491.47 315.59 OFFCURVE",
"486.2 339.18 OFFCURVE",
"469.49 355.89 CURVE SMOOTH",
"424.24 401.14 LINE SMOOTH",
"361.76 463.62 OFFCURVE",
"260.45 463.62 OFFCURVE",
"197.96 401.14 CURVE",
"288.47 355.89 LINE",
"288.47 337.14 LINE SMOOTH",
"288.47 320.17 OFFCURVE",
"295.21 303.89 OFFCURVE",
"307.22 291.89 CURVE SMOOTH",
"356.36 242.75 LINE SMOOTH",
"373.07 226.04 OFFCURVE",
"396.66 220.77 OFFCURVE",
"417.97 226.4 CURVE",
"446.87 197.5 LINE",
"435.56 186.19 LINE SMOOTH",
"429.31 179.94 OFFCURVE",
"429.31 169.81 OFFCURVE",
"435.56 163.56 CURVE SMOOTH",
"458.19 140.93 LINE SMOOTH",
"464.44 134.68 OFFCURVE",
"474.57 134.68 OFFCURVE",
"480.82 140.93 CURVE SMOOTH",
"571.33 231.44 LINE SMOOTH",
"577.56 237.68 OFFCURVE",
"577.56 247.81 OFFCURVE",
"571.31 254.06 CURVE SMOOTH"
);
},
{
closed = 1;
nodes = (
"284.59 269.26 LINE SMOOTH",
"280.89 272.96 OFFCURVE",
"277.75 277.05 OFFCURVE",
"274.74 281.21 CURVE",
"19.64 43.04 LINE SMOOTH",
"-5.93 19.16 OFFCURVE",
"-6.62 -21.15 OFFCURVE",
"18.11 -45.89 CURVE SMOOTH",
"42.84 -70.63 OFFCURVE",
"83.16 -69.94 OFFCURVE",
"107.04 -44.36 CURVE SMOOTH",
"345.17 210.71 LINE",
"341.21 213.62 OFFCURVE",
"337.27 216.58 OFFCURVE",
"333.73 220.12 CURVE SMOOTH"
);
}
);
width = 576;
}
);
note = hammer;
unicode = 1F528;
},
{
glyphname = microscope;
layers = (
{
layerId = "8CF30A56-F91F-4EB2-A618-934C961D83D1";
paths = (
{
closed = 1;
nodes = (
"172 128 LINE",
"172 112 LINE SMOOTH",
"172 103.16 OFFCURVE",
"179.16 96 OFFCURVE",
"188 96 CURVE SMOOTH",
"228 96 LINE SMOOTH",
"236.84 96 OFFCURVE",
"244 103.16 OFFCURVE",
"244 112 CURVE SMOOTH",
"244 128 LINE",
"256 128 LINE SMOOTH",
"273.67 128 OFFCURVE",
"288 142.33 OFFCURVE",
"288 160 CURVE SMOOTH",
"288 384 LINE SMOOTH",
"288 401.67 OFFCURVE",
"273.67 416 OFFCURVE",
"256 416 CURVE",
"256 432 LINE SMOOTH",
"256 440.84 OFFCURVE",
"248.84 448 OFFCURVE",
"240 448 CURVE SMOOTH",
"176 448 LINE SMOOTH",
"167.16 448 OFFCURVE",
"160 440.84 OFFCURVE",
"160 432 CURVE SMOOTH",
"160 416 LINE",
"142.33 416 OFFCURVE",
"128 401.67 OFFCURVE",
"128 384 CURVE SMOOTH",
"128 160 LINE SMOOTH",
"128 142.33 OFFCURVE",
"142.33 128 OFFCURVE",
"160 128 CURVE SMOOTH"
);
},
{
closed = 1;
nodes = (
"462.71 0 LINE",
"493.24 34.01 OFFCURVE",
"512 78.8 OFFCURVE",
"512 128 CURVE SMOOTH",
"512 233.88 OFFCURVE",
"425.88 320 OFFCURVE",
"320 320 CURVE",
"320 256 LINE",
"390.58 256 OFFCURVE",
"448 198.58 OFFCURVE",
"448 128 CURVE SMOOTH",
"448 57.42 OFFCURVE",
"390.58 0 OFFCURVE",
"320 0 CURVE SMOOTH",
"48 0 LINE SMOOTH",
"21.49 0 OFFCURVE",
"0 -21.49 OFFCURVE",
"0 -48 CURVE SMOOTH",
"0 -56.84 OFFCURVE",
"7.16 -64 OFFCURVE",
"16 -64 CURVE SMOOTH",
"496 -64 LINE SMOOTH",
"504.84 -64 OFFCURVE",
"512 -56.84 OFFCURVE",
"512 -48 CURVE SMOOTH",
"512 -21.49 OFFCURVE",
"490.51 0 OFFCURVE",
"464 0 CURVE SMOOTH"
);
},
{
closed = 1;
nodes = (
"312 32 LINE SMOOTH",
"316.42 32 OFFCURVE",
"320 35.58 OFFCURVE",
"320 40 CURVE SMOOTH",
"320 56 LINE SMOOTH",
"320 60.42 OFFCURVE",
"316.42 64 OFFCURVE",
"312 64 CURVE SMOOTH",
"104 64 LINE SMOOTH",
"99.58 64 OFFCURVE",
"96 60.42 OFFCURVE",
"96 56 CURVE SMOOTH",
"96 40 LINE SMOOTH",
"96 35.58 OFFCURVE",
"99.58 32 OFFCURVE",
"104 32 CURVE SMOOTH"
);
}
);
width = 512;
}
);
note = microscope;
unicode = 1F52C;
},
{
glyphname = bullhorn;
layers = (
{
layerId = "8CF30A56-F91F-4EB2-A618-934C961D83D1";
paths = (
{
closed = 1;
nodes = (
"576 231.63 OFFCURVE",
"563.05 252.04 OFFCURVE",
"544 263.12 CURVE",
"544 415.99 LINE SMOOTH",
"544 424.74 OFFCURVE",
"537.02 448 OFFCURVE",
"512 448 CURVE SMOOTH",
"504.88 448 OFFCURVE",
"497.81 445.62 OFFCURVE",
"492.02 440.98 CURVE SMOOTH",
"406.99 372.95 LINE SMOOTH",
"364.28 338.81 OFFCURVE",
"310.66 320 OFFCURVE",
"256 320 CURVE SMOOTH",
"64 320 LINE SMOOTH",
"28.65 320 OFFCURVE",
"0 291.35 OFFCURVE",
"0 256 CURVE SMOOTH",
"0 160 LINE SMOOTH",
"0 124.65 OFFCURVE",
"28.65 96 OFFCURVE",
"64 96 CURVE SMOOTH",
"97.7 96 LINE",
"96.31 85.52 OFFCURVE",
"95.52 74.86 OFFCURVE",
"95.52 64 CURVE SMOOTH",
"95.52 24.23 OFFCURVE",
"104.78 -13.35 OFFCURVE",
"121.08 -46.94 CURVE SMOOTH",
"126.27 -57.63 OFFCURVE",
"137.6 -64 OFFCURVE",
"149.48 -64 CURVE SMOOTH",
"223.76 -64 LINE SMOOTH",
"249.81 -64 OFFCURVE",
"265.45 -34.16 OFFCURVE",
"249.66 -13.44 CURVE SMOOTH",
"233.26 8.08 OFFCURVE",
"223.51 34.92 OFFCURVE",
"223.51 64 CURVE SMOOTH",
"223.51 75.11 OFFCURVE",
"225.13 85.79 OFFCURVE",
"227.92 96 CURVE",
"256 96 LINE SMOOTH",
"310.66 96 OFFCURVE",
"364.28 77.19 OFFCURVE",
"406.98 43.05 CURVE SMOOTH",
"492.01 -24.98 LINE SMOOTH",
"496.85 -28.85 OFFCURVE",
"505.8 -31.99 OFFCURVE",
"511.99 -32 CURVE SMOOTH",
"536.91 -32 OFFCURVE",
"543.99 -9.22 OFFCURVE",
"543.99 0 CURVE SMOOTH",
"543.99 152.87 LINE",
"563.05 163.96 OFFCURVE",
"576 184.37 OFFCURVE",
"576 208 CURVE SMOOTH"
);
},
{
closed = 1;
nodes = (
"480 66.58 LINE",
"446.95 93.02 LINE SMOOTH",
"392.95 136.22 OFFCURVE",
"325.12 160 OFFCURVE",
"256 160 CURVE",
"256 256 LINE",
"325.12 256 OFFCURVE",
"392.95 279.78 OFFCURVE",
"446.95 322.98 CURVE SMOOTH",
"480 349.42 LINE"
);
}
);
width = 576;
}
);
note = bullhorn;
unicode = 1F56B;
},
{
glyphname = book;
layers = (
{
layerId = "8CF30A56-F91F-4EB2-A618-934C961D83D1";
paths = (
{
closed = 1;
nodes = (
"448 424 LINE SMOOTH",
"448 437.3 OFFCURVE",
"437.3 448 OFFCURVE",
"424 448 CURVE SMOOTH",
"96 448 LINE SMOOTH",
"43 448 OFFCURVE",
"0 405 OFFCURVE",
"0 352 CURVE SMOOTH",
"0 32 LINE SMOOTH",
"0 -21 OFFCURVE",
"43 -64 OFFCURVE",
"96 -64 CURVE SMOOTH",
"424 -64 LINE SMOOTH",
"437.3 -64 OFFCURVE",
"448 -53.3 OFFCURVE",
"448 -40 CURVE SMOOTH",
"448 -24 LINE SMOOTH",
"448 -16.5 OFFCURVE",
"444.5 -9.7 OFFCURVE",
"439.1 -5.3 CURVE",
"434.9 10.1 OFFCURVE",
"434.9 54 OFFCURVE",
"439.1 69.4 CURVE",
"444.5 73.7 OFFCURVE",
"448 80.5 OFFCURVE",
"448 88 CURVE SMOOTH"
);
},
{
closed = 1;
nodes = (
"128 314 LINE SMOOTH",
"128 317.3 OFFCURVE",
"130.7 320 OFFCURVE",
"134 320 CURVE SMOOTH",
"346 320 LINE SMOOTH",
"349.3 320 OFFCURVE",
"352 317.3 OFFCURVE",
"352 314 CURVE SMOOTH",
"352 294 LINE SMOOTH",
"352 290.7 OFFCURVE",
"349.3 288 OFFCURVE",
"346 288 CURVE SMOOTH",
"134 288 LINE SMOOTH",
"130.7 288 OFFCURVE",
"128 290.7 OFFCURVE",
"128 294 CURVE SMOOTH"
);
},
{
closed = 1;
nodes = (
"128 250 LINE SMOOTH",
"128 253.3 OFFCURVE",
"130.7 256 OFFCURVE",
"134 256 CURVE SMOOTH",
"346 256 LINE SMOOTH",
"349.3 256 OFFCURVE",
"352 253.3 OFFCURVE",
"352 250 CURVE SMOOTH",
"352 230 LINE SMOOTH",
"352 226.7 OFFCURVE",
"349.3 224 OFFCURVE",
"346 224 CURVE SMOOTH",
"134 224 LINE SMOOTH",
"130.7 224 OFFCURVE",
"128 226.7 OFFCURVE",
"128 230 CURVE SMOOTH"
);
},
{
closed = 1;
nodes = (
"96 0 LINE SMOOTH",
"78.3 0 OFFCURVE",
"64 14.3 OFFCURVE",
"64 32 CURVE SMOOTH",
"64 49.6 OFFCURVE",
"78.4 64 OFFCURVE",
"96 64 CURVE SMOOTH",
"381.4 64 LINE",
"379.5 46.9 OFFCURVE",
"379.5 17.1 OFFCURVE",
"381.4 0 CURVE"
);
}
);
width = 448;
}
);
note = book;
unicode = 1F56E;
},
{
glyphname = spider;
layers = (
{
layerId = "8CF30A56-F91F-4EB2-A618-934C961D83D1";
paths = (
{
closed = 1;
nodes = (
"151.17 280.65 LINE",
"177.1 272 LINE",
"181.77 272 LINE",
"186.99 298.12 LINE SMOOTH",
"187.71 301.7 OFFCURVE",
"188.79 305.7 OFFCURVE",
"190.2 309.91 CURVE",
"169.91 350.49 LINE",
"193.71 421.88 LINE SMOOTH",
"196.5 430.26 OFFCURVE",
"191.98 439.32 OFFCURVE",
"183.59 442.12 CURVE SMOOTH",
"168.42 447.18 LINE SMOOTH",
"160.04 449.98 OFFCURVE",
"150.97 445.45 OFFCURVE",
"148.18 437.06 CURVE SMOOTH",
"122.29 359.38 LINE SMOOTH",
"121.38 356.66 OFFCURVE",
"120.65 352.12 OFFCURVE",
"120.65 349.26 CURVE SMOOTH",
"120.65 345.09 OFFCURVE",
"122.16 338.68 OFFCURVE",
"124.02 334.95 CURVE SMOOTH"
);
},
{
closed = 1;
nodes = (
"520.56 177.74 LINE SMOOTH",
"515.32 185.6 OFFCURVE",
"503.39 191.99 OFFCURVE",
"493.94 191.99 CURVE SMOOTH",
"416 191.99 LINE",
"484.99 216.35 LINE SMOOTH",
"490.74 218.27 OFFCURVE",
"498.14 223.92 OFFCURVE",
"501.5 228.96 CURVE SMOOTH",
"555.1 309.37 LINE SMOOTH",
"560 316.72 OFFCURVE",
"558.01 326.66 OFFCURVE",
"550.66 331.56 CURVE SMOOTH",
"537.35 340.44 LINE SMOOTH",
"530 345.34 OFFCURVE",
"520.06 343.35 OFFCURVE",
"515.16 336 CURVE SMOOTH",
"464.6 260.17 LINE",
"404.1 240 LINE",
"368 240 LINE",
"357.63 291.85 LINE SMOOTH",
"355.44 302.82 OFFCURVE",
"340.26 352 OFFCURVE",
"288 352 CURVE SMOOTH",
"235.74 352 OFFCURVE",
"220.56 302.82 OFFCURVE",
"218.37 291.85 CURVE SMOOTH",
"208 240 LINE",
"171.9 240 LINE",
"111.41 260.17 LINE",
"60.84 336 LINE SMOOTH",
"55.94 343.35 OFFCURVE",
"46.01 345.34 OFFCURVE",
"38.65 340.44 CURVE SMOOTH",
"25.34 331.56 LINE SMOOTH",
"17.99 326.66 OFFCURVE",
"16 316.73 OFFCURVE",
"20.9 309.37 CURVE SMOOTH",
"74.5 228.96 LINE SMOOTH",
"77.86 223.92 OFFCURVE",
"85.26 218.27 OFFCURVE",
"91.01 216.35 CURVE SMOOTH",
"160 192 LINE",
"82.06 192 LINE SMOOTH",
"72.61 192 OFFCURVE",
"60.68 185.61 OFFCURVE",
"55.43 177.75 CURVE SMOOTH",
"2.69 98.62 LINE SMOOTH",
"-2.21 91.27 OFFCURVE",
"-0.23 81.33 OFFCURVE",
"7.13 76.43 CURVE SMOOTH",
"20.44 67.55 LINE SMOOTH",
"27.79 62.65 OFFCURVE",
"37.73 64.64 OFFCURVE",
"42.63 71.99 CURVE SMOOTH",
"90.63 143.99 LINE",
"137.69 143.99 LINE",
"76.86 46.66 LINE SMOOTH",
"74.18 42.37 OFFCURVE",
"72 34.77 OFFCURVE",
"72 29.71 CURVE",
"72 29.7 LINE",
"72 -48 LINE SMOOTH",
"72 -56.84 OFFCURVE",
"79.16 -64 OFFCURVE",
"88 -64 CURVE SMOOTH",
"104 -64 LINE SMOOTH",
"112.84 -64 OFFCURVE",
"120 -56.84 OFFCURVE",
"120 -48 CURVE SMOOTH",
"120 25.11 LINE",
"194.08 143.64 LINE",
"193.07 129.59 OFFCURVE",
"192 115.53 OFFCURVE",
"192 101.43 CURVE SMOOTH",
"192 48.36 OFFCURVE",
"232.76 0 OFFCURVE",
"288 0 CURVE SMOOTH",
"343.24 0 OFFCURVE",
"384 48.36 OFFCURVE",
"384 101.43 CURVE SMOOTH",
"384 115.53 OFFCURVE",
"382.92 129.59 OFFCURVE",
"381.92 143.64 CURVE",
"456 25.11 LINE",
"456 -48 LINE SMOOTH",
"456 -56.84 OFFCURVE",
"463.16 -64 OFFCURVE",
"472 -64 CURVE SMOOTH",
"488 -64 LINE SMOOTH",
"496.84 -64 OFFCURVE",
"504 -56.84 OFFCURVE",
"504 -48 CURVE SMOOTH",
"504 29.71 LINE SMOOTH",
"504 35.71 OFFCURVE",
"502.31 41.59 OFFCURVE",
"499.14 46.67 CURVE SMOOTH",
"438.31 144 LINE",
"485.37 144 LINE",
"533.37 72 LINE SMOOTH",
"538.27 64.65 OFFCURVE",
"548.21 62.66 OFFCURVE",
"555.56 67.56 CURVE SMOOTH",
"568.87 76.44 LINE SMOOTH",
"576.23 81.34 OFFCURVE",
"578.21 91.27 OFFCURVE",
"573.31 98.62 CURVE SMOOTH"
);
},
{
closed = 1;
nodes = (
"406.09 350.49 LINE",
"385.8 309.91 LINE",
"387.21 305.7 OFFCURVE",
"388.29 301.7 OFFCURVE",
"389.01 298.12 CURVE SMOOTH",
"394.23 272 LINE",
"398.9 272 LINE",
"424.83 280.65 LINE",
"451.98 334.95 LINE SMOOTH",
"453.84 338.68 OFFCURVE",
"455.36 345.09 OFFCURVE",
"455.36 349.25 CURVE SMOOTH",
"455.36 352.12 OFFCURVE",
"454.62 356.66 OFFCURVE",
"453.71 359.38 CURVE SMOOTH",
"427.82 437.06 LINE SMOOTH",
"425.03 445.44 OFFCURVE",
"415.96 449.98 OFFCURVE",
"407.58 447.18 CURVE SMOOTH",
"392.41 442.12 LINE SMOOTH",
"384.03 439.32 OFFCURVE",
"379.5 430.26 OFFCURVE",
"382.29 421.88 CURVE SMOOTH"
);
}
);
width = 576;
}
);
note = spider;
unicode = 1F577;
},
{
glyphname = folder;
layers = (
{
layerId = "8CF30A56-F91F-4EB2-A618-934C961D83D1";
paths = (
{
closed = 1;
nodes = (
"272 320 LINE",
"208 384 LINE",
"48 384 LINE SMOOTH",
"21.49 384 OFFCURVE",
"0 362.51 OFFCURVE",
"0 336 CURVE SMOOTH",
"0 48 LINE SMOOTH",
"0 21.49 OFFCURVE",
"21.49 0 OFFCURVE",
"48 0 CURVE SMOOTH",
"464 0 LINE SMOOTH",
"490.51 0 OFFCURVE",
"512 21.49 OFFCURVE",
"512 48 CURVE SMOOTH",
"512 272 LINE SMOOTH",
"512 298.51 OFFCURVE",
"490.51 320 OFFCURVE",
"464 320 CURVE SMOOTH"
);
}
);
width = 512;
}
);
note = folder;
unicode = 1F5C0;
},
{
glyphname = rocket;
layers = (
{
layerId = "8CF30A56-F91F-4EB2-A618-934C961D83D1";
paths = (
{
closed = 1;
nodes = (
"503.93 434.44 OFFCURVE",
"498.46 439.91 OFFCURVE",
"492.91 441.1 CURVE SMOOTH",
"460.71 448.01 OFFCURVE",
"435.5 448.01 OFFCURVE",
"410.4 448.01 CURVE SMOOTH",
"307.17 448.01 OFFCURVE",
"245.26 392.81 OFFCURVE",
"199.05 320.01 CURVE",
"94.84 320.01 LINE SMOOTH",
"78.49 319.99 OFFCURVE",
"59.28 308.14 OFFCURVE",
"51.95 293.53 CURVE SMOOTH",
"2.51 194.72 LINE",
"1.23 191.9 OFFCURVE",
"0.11 187.11 OFFCURVE",
"-0.01 184.02 CURVE",
"-0.01 170.77 OFFCURVE",
"10.75 160.02 OFFCURVE",
"24 160.02 CURVE SMOOTH",
"127.81 160.02 LINE",
"105.34 137.55 LINE SMOOTH",
"93.97 126.19 OFFCURVE",
"92.34 105.29 OFFCURVE",
"105.34 92.3 CURVE SMOOTH",
"156.24 41.39 LINE SMOOTH",
"167.4 30.2 OFFCURVE",
"188.4 28.23 OFFCURVE",
"201.52 41.39 CURVE SMOOTH",
"223.99 63.86 LINE",
"223.99 -39.98 LINE SMOOTH",
"223.99 -53.23 OFFCURVE",
"234.75 -63.98 OFFCURVE",
"248 -63.98 CURVE",
"251.09 -63.87 OFFCURVE",
"255.89 -62.74 OFFCURVE",
"258.71 -61.46 CURVE",
"357.44 -12.07 LINE SMOOTH",
"372.07 -4.77 OFFCURVE",
"383.95 14.43 OFFCURVE",
"383.95 30.79 CURVE SMOOTH",
"383.95 135.23 LINE",
"456.55 181.54 OFFCURVE",
"511.99 243.64 OFFCURVE",
"511.99 346.32 CURVE SMOOTH",
"512.08 371.52 OFFCURVE",
"512.08 396.73 OFFCURVE",
"505.13 428.93 CURVE SMOOTH"
);
},
{
closed = 1;
nodes = (
"361.98 280.02 OFFCURVE",
"344.06 297.95 OFFCURVE",
"344.06 320.02 CURVE SMOOTH",
"344.06 342.1 OFFCURVE",
"361.98 360.02 OFFCURVE",
"384.06 360.02 CURVE SMOOTH",
"406.14 360.02 OFFCURVE",
"424.06 342.1 OFFCURVE",
"424.06 320.02 CURVE SMOOTH",
"424.05 297.95 OFFCURVE",
"406.12 280.03 OFFCURVE",
"384.05 280.02 CURVE SMOOTH"
);
}
);
width = 512;
}
);
note = rocket;
unicode = 1F680;
},
{
glyphname = helicopter;
layers = (
{
layerId = "8CF30A56-F91F-4EB2-A618-934C961D83D1";
paths = (
{
closed = 1;
nodes = (
"576 64 LINE SMOOTH",
"593.67 64 OFFCURVE",
"608 78.33 OFFCURVE",
"608 96 CURVE SMOOTH",
"608 219.71 OFFCURVE",
"507.71 320 OFFCURVE",
"384 320 CURVE",
"384 384 LINE",
"560 384 LINE SMOOTH",
"568.84 384 OFFCURVE",
"576 391.16 OFFCURVE",
"576 400 CURVE SMOOTH",
"576 432 LINE SMOOTH",
"576 440.84 OFFCURVE",
"568.84 448 OFFCURVE",
"560 448 CURVE SMOOTH",
"144 448 LINE SMOOTH",
"135.16 448 OFFCURVE",
"128 440.84 OFFCURVE",
"128 432 CURVE SMOOTH",
"128 400 LINE SMOOTH",
"128 391.16 OFFCURVE",
"135.16 384 OFFCURVE",
"144 384 CURVE SMOOTH",
"320 384 LINE",
"320 320 LINE",
"112 320 LINE",
"68.8 377.6 LINE SMOOTH",
"65.78 381.63 OFFCURVE",
"61.03 384 OFFCURVE",
"56 384 CURVE SMOOTH",
"16.01 384 LINE SMOOTH",
"5.6 384 OFFCURVE",
"-2.04 374.22 OFFCURVE",
"0.49 364.12 CURVE",
"32 256 LINE",
"192 192 LINE",
"278.4 76.8 LINE SMOOTH",
"283.7 69.73 OFFCURVE",
"295.16 64 OFFCURVE",
"304 64 CURVE SMOOTH"
);
},
{
closed = 1;
nodes = (
"416 252.49 LINE",
"478.55 239.7 OFFCURVE",
"528.03 190.56 OFFCURVE",
"540.79 128 CURVE",
"416 128 LINE"
);
},
{
closed = 1;
nodes = (
"613.22 11.39 LINE SMOOTH",
"606.97 17.65 OFFCURVE",
"596.98 17.49 OFFCURVE",
"590.58 11.38 CURVE SMOOTH",
"583.49 4.61 OFFCURVE",
"576.74 0.13 OFFCURVE",
"565.94 0.13 CURVE SMOOTH",
"240 0.13 LINE SMOOTH",
"231.16 0.13 OFFCURVE",
"224 -7.05 OFFCURVE",
"224 -15.9 CURVE SMOOTH",
"224 -47.96 LINE SMOOTH",
"224 -56.81 OFFCURVE",
"231.16 -63.99 OFFCURVE",
"240 -63.99 CURVE SMOOTH",
"565.94 -63.99 LINE SMOOTH",
"580.82 -63.99 OFFCURVE",
"601.24 -63.52 OFFCURVE",
"634.39 -34.47 CURVE SMOOTH",
"641.41 -28.33 OFFCURVE",
"641.96 -17.42 OFFCURVE",
"635.37 -10.81 CURVE SMOOTH"
);
}
);
width = 640;
}
);
note = helicopter;
unicode = 1F681;
},
{
glyphname = train;
layers = (
{
layerId = "8CF30A56-F91F-4EB2-A618-934C961D83D1";
paths = (
{
closed = 1;
nodes = (
"448 352 LINE SMOOTH",
"448 405.02 OFFCURVE",
"385 448 OFFCURVE",
"320 448 CURVE SMOOTH",
"128 448 LINE SMOOTH",
"64 448 OFFCURVE",
"0 405.02 OFFCURVE",
"0 352 CURVE SMOOTH",
"0 96 LINE SMOOTH",
"0 44.05 OFFCURVE",
"61.82 0 OFFCURVE",
"130.02 0 CURVE",
"67.04 -49.72 LINE SMOOTH",
"61.11 -54.41 OFFCURVE",
"64.42 -64 OFFCURVE",
"72 -64 CURVE SMOOTH",
"376 -64 LINE SMOOTH",
"383.56 -64 OFFCURVE",
"386.91 -54.42 OFFCURVE",
"380.96 -49.72 CURVE SMOOTH",
"317.98 0 LINE",
"386.38 0 OFFCURVE",
"448 44.18 OFFCURVE",
"448 96 CURVE SMOOTH"
);
},
{
closed = 1;
nodes = (
"400 216 LINE SMOOTH",
"400 202.75 OFFCURVE",
"389.25 192 OFFCURVE",
"376 192 CURVE SMOOTH",
"72 192 LINE SMOOTH",
"58.75 192 OFFCURVE",
"48 202.75 OFFCURVE",
"48 216 CURVE SMOOTH",
"48 328 LINE SMOOTH",
"48 341.25 OFFCURVE",
"58.75 352 OFFCURVE",
"72 352 CURVE SMOOTH",
"376 352 LINE SMOOTH",
"389.25 352 OFFCURVE",
"400 341.25 OFFCURVE",
"400 328 CURVE SMOOTH"
);
},
{
closed = 1;
nodes = (
"254.93 152 OFFCURVE",
"280 126.93 OFFCURVE",
"280 96 CURVE SMOOTH",
"280 65.07 OFFCURVE",
"254.93 40 OFFCURVE",
"224 40 CURVE SMOOTH",
"193.07 40 OFFCURVE",
"168 65.07 OFFCURVE",
"168 96 CURVE SMOOTH",
"168 126.93 OFFCURVE",
"193.07 152 OFFCURVE",
"224 152 CURVE SMOOTH"
);
}
);
width = 448;
}
);
note = train;
unicode = 1F686;
},
{
glyphname = tram;
layers = (
{
layerId = "8CF30A56-F91F-4EB2-A618-934C961D83D1";
paths = (
{
closed = 1;
nodes = (
"305.7 384 OFFCURVE",
"320 398.3 OFFCURVE",
"320 416 CURVE SMOOTH",
"320 433.7 OFFCURVE",
"305.7 448 OFFCURVE",
"288 448 CURVE SMOOTH",
"270.3 448 OFFCURVE",
"256 433.7 OFFCURVE",
"256 416 CURVE SMOOTH",
"256 398.3 OFFCURVE",
"270.3 384 OFFCURVE",
"288 384 CURVE SMOOTH"
);
},
{
closed = 1;
nodes = (
"509.2 404.7 OFFCURVE",
"500.5 409.7 OFFCURVE",
"491.9 407.4 CURVE SMOOTH",
"11.9 279.4 LINE SMOOTH",
"3.4 277.1 OFFCURVE",
"-1.7 268.4 OFFCURVE",
"0.6 259.8 CURVE SMOOTH",
"2.5 252.7 OFFCURVE",
"8.9 248 OFFCURVE",
"16 248 CURVE SMOOTH",
"17.4 248 OFFCURVE",
"18.8 248.2 OFFCURVE",
"20.1 248.5 CURVE SMOOTH",
"240 307.2 LINE",
"240 224 LINE",
"64 224 LINE SMOOTH",
"46.3 224 OFFCURVE",
"32 209.7 OFFCURVE",
"32 192 CURVE SMOOTH",
"32 -32 LINE SMOOTH",
"32 -49.7 OFFCURVE",
"46.3 -64 OFFCURVE",
"64 -64 CURVE SMOOTH",
"448 -64 LINE SMOOTH",
"465.7 -64 OFFCURVE",
"480 -49.7 OFFCURVE",
"480 -32 CURVE SMOOTH",
"480 192 LINE SMOOTH",
"480 209.7 OFFCURVE",
"465.7 224 OFFCURVE",
"448 224 CURVE SMOOTH",
"272 224 LINE",
"272 315.7 LINE",
"500.1 376.5 LINE SMOOTH",
"508.7 378.8 OFFCURVE",
"513.7 387.6 OFFCURVE",
"511.5 396.1 CURVE SMOOTH"
);
},
{
closed = 1;
nodes = (
"176 64 LINE",
"80 64 LINE",
"80 160 LINE",
"176 160 LINE"
);
},
{
closed = 1;
nodes = (
"336 160 LINE",
"432 160 LINE",
"432 64 LINE",
"336 64 LINE"
);
},
{
closed = 1;
nodes = (
"304 160 LINE",
"304 64 LINE",
"208 64 LINE",
"208 160 LINE"
);
},
{
closed = 1;
nodes = (
"209.7 352 OFFCURVE",
"224 366.3 OFFCURVE",
"224 384 CURVE SMOOTH",
"224 401.7 OFFCURVE",
"209.7 416 OFFCURVE",
"192 416 CURVE SMOOTH",
"174.3 416 OFFCURVE",
"160 401.7 OFFCURVE",
"160 384 CURVE SMOOTH",
"160 366.3 OFFCURVE",
"174.3 352 OFFCURVE",
"192 352 CURVE SMOOTH"
);
}
);
width = 512;
}
);
note = tram;
unicode = 1F68A;
},
{
glyphname = bus;
layers = (
{
layerId = "8CF30A56-F91F-4EB2-A618-934C961D83D1";
paths = (
{
closed = 1;
nodes = (
"480 320 LINE",
"480 368 LINE SMOOTH",
"480 412.8 OFFCURVE",
"380.8 448 OFFCURVE",
"256 448 CURVE SMOOTH",
"131.2 448 OFFCURVE",
"32 412.8 OFFCURVE",
"32 368 CURVE SMOOTH",
"32 320 LINE",
"24 320 LINE SMOOTH",
"10.75 320 OFFCURVE",
"0 309.26 OFFCURVE",
"0 296 CURVE SMOOTH",
"0 216 LINE SMOOTH",
"0 202.75 OFFCURVE",
"10.75 192 OFFCURVE",
"24 192 CURVE SMOOTH",
"32 192 LINE",
"32 32 LINE SMOOTH",
"32 14.33 OFFCURVE",
"46.33 0 OFFCURVE",
"64 0 CURVE",
"64 -32 LINE SMOOTH",
"64 -49.67 OFFCURVE",
"78.33 -64 OFFCURVE",
"96 -64 CURVE SMOOTH",
"128 -64 LINE SMOOTH",
"145.67 -64 OFFCURVE",
"160 -49.67 OFFCURVE",
"160 -32 CURVE SMOOTH",
"160 0 LINE",
"352 0 LINE",
"352 -32 LINE SMOOTH",
"352 -49.67 OFFCURVE",
"366.33 -64 OFFCURVE",
"384 -64 CURVE SMOOTH",
"416 -64 LINE SMOOTH",
"433.67 -64 OFFCURVE",
"448 -49.67 OFFCURVE",
"448 -32 CURVE SMOOTH",
"448 0 LINE",
"454.4 0 LINE SMOOTH",
"470.4 0 OFFCURVE",
"480 12.8 OFFCURVE",
"480 25.6 CURVE SMOOTH",
"480 192 LINE",
"488 192 LINE SMOOTH",
"501.25 192 OFFCURVE",
"512 202.75 OFFCURVE",
"512 216 CURVE SMOOTH",
"512 296 LINE SMOOTH",
"512 309.26 OFFCURVE",
"501.25 320 OFFCURVE",
"488 320 CURVE SMOOTH"
);
},
{
closed = 1;
nodes = (
"94.33 48 OFFCURVE",
"80 62.33 OFFCURVE",
"80 80 CURVE SMOOTH",
"80 97.67 OFFCURVE",
"94.33 112 OFFCURVE",
"112 112 CURVE SMOOTH",
"129.67 112 OFFCURVE",
"144 97.67 OFFCURVE",
"144 80 CURVE SMOOTH",
"144 62.33 OFFCURVE",
"129.67 48 OFFCURVE",
"112 48 CURVE SMOOTH"
);
},
{
closed = 1;
nodes = (
"128 160 LINE SMOOTH",
"110.33 160 OFFCURVE",
"96 174.33 OFFCURVE",
"96 192 CURVE SMOOTH",
"96 320 LINE SMOOTH",
"96 337.67 OFFCURVE",
"110.33 352 OFFCURVE",
"128 352 CURVE SMOOTH",
"384 352 LINE SMOOTH",
"401.67 352 OFFCURVE",
"416 337.67 OFFCURVE",
"416 320 CURVE SMOOTH",
"416 192 LINE SMOOTH",
"416 174.33 OFFCURVE",
"401.67 160 OFFCURVE",
"384 160 CURVE SMOOTH"
);
},
{
closed = 1;
nodes = (
"382.33 48 OFFCURVE",
"368 62.33 OFFCURVE",
"368 80 CURVE SMOOTH",
"368 97.67 OFFCURVE",
"382.33 112 OFFCURVE",
"400 112 CURVE SMOOTH",
"417.67 112 OFFCURVE",
"432 97.67 OFFCURVE",
"432 80 CURVE SMOOTH",
"432 62.33 OFFCURVE",
"417.67 48 OFFCURVE",
"400 48 CURVE SMOOTH"
);
}
);
width = 512;
}
);
note = bus;
unicode = 1F68C;
},
{
glyphname = ambulance;
layers = (
{
layerId = "8CF30A56-F91F-4EB2-A618-934C961D83D1";
paths = (
{
closed = 1;
nodes = (
"608 96 LINE",
"608 204.1 LINE SMOOTH",
"608 216.8 OFFCURVE",
"602.9 229 OFFCURVE",
"593.9 238 CURVE SMOOTH",
"494 337.9 LINE SMOOTH",
"485 346.9 OFFCURVE",
"472.8 352 OFFCURVE",
"460.1 352 CURVE SMOOTH",
"416 352 LINE",
"416 400 LINE SMOOTH",
"416 426.5 OFFCURVE",
"394.5 448 OFFCURVE",
"368 448 CURVE SMOOTH",
"48 448 LINE SMOOTH",
"21.5 448 OFFCURVE",
"0 426.5 OFFCURVE",
"0 400 CURVE SMOOTH",
"0 80 LINE SMOOTH",
"0 53.5 OFFCURVE",
"21.5 32 OFFCURVE",
"48 32 CURVE SMOOTH",
"64 32 LINE",
"64 -21 OFFCURVE",
"107 -64 OFFCURVE",
"160 -64 CURVE SMOOTH",
"213 -64 OFFCURVE",
"256 -21 OFFCURVE",
"256 32 CURVE",
"384 32 LINE",
"384 -21 OFFCURVE",
"427 -64 OFFCURVE",
"480 -64 CURVE SMOOTH",
"533 -64 OFFCURVE",
"576 -21 OFFCURVE",
"576 32 CURVE",
"624 32 LINE SMOOTH",
"632.8 32 OFFCURVE",
"640 39.2 OFFCURVE",
"640 48 CURVE SMOOTH",
"640 80 LINE SMOOTH",
"640 88.8 OFFCURVE",
"632.8 96 OFFCURVE",
"624 96 CURVE SMOOTH"
);
},
{
closed = 1;
nodes = (
"133.5 -16 OFFCURVE",
"112 5.5 OFFCURVE",
"112 32 CURVE SMOOTH",
"112 58.5 OFFCURVE",
"133.5 80 OFFCURVE",
"160 80 CURVE SMOOTH",
"186.5 80 OFFCURVE",
"208 58.5 OFFCURVE",
"208 32 CURVE SMOOTH",
"208 5.5 OFFCURVE",
"186.5 -16 OFFCURVE",
"160 -16 CURVE SMOOTH"
);
},
{
closed = 1;
nodes = (
"304 232 LINE SMOOTH",
"304 227.6 OFFCURVE",
"300.4 224 OFFCURVE",
"296 224 CURVE SMOOTH",
"240 224 LINE",
"240 168 LINE SMOOTH",
"240 163.6 OFFCURVE",
"236.4 160 OFFCURVE",
"232 160 CURVE SMOOTH",
"184 160 LINE SMOOTH",
"179.6 160 OFFCURVE",
"176 163.6 OFFCURVE",
"176 168 CURVE SMOOTH",
"176 224 LINE",
"120 224 LINE SMOOTH",
"115.6 224 OFFCURVE",
"112 227.6 OFFCURVE",
"112 232 CURVE SMOOTH",
"112 280 LINE SMOOTH",
"112 284.4 OFFCURVE",
"115.6 288 OFFCURVE",
"120 288 CURVE SMOOTH",
"176 288 LINE",
"176 344 LINE SMOOTH",
"176 348.4 OFFCURVE",
"179.6 352 OFFCURVE",
"184 352 CURVE SMOOTH",
"232 352 LINE SMOOTH",
"236.4 352 OFFCURVE",
"240 348.4 OFFCURVE",
"240 344 CURVE SMOOTH",
"240 288 LINE",
"296 288 LINE SMOOTH",
"300.4 288 OFFCURVE",
"304 284.4 OFFCURVE",
"304 280 CURVE SMOOTH"
);
},
{
closed = 1;
nodes = (
"453.5 -16 OFFCURVE",
"432 5.5 OFFCURVE",
"432 32 CURVE SMOOTH",
"432 58.5 OFFCURVE",
"453.5 80 OFFCURVE",
"480 80 CURVE SMOOTH",
"506.5 80 OFFCURVE",
"528 58.5 OFFCURVE",
"528 32 CURVE SMOOTH",
"528 5.5 OFFCURVE",
"506.5 -16 OFFCURVE",
"480 -16 CURVE SMOOTH"
);
},
{
closed = 1;
nodes = (
"560 192 LINE",
"416 192 LINE",
"416 304 LINE",
"460.1 304 LINE",
"560 204.1 LINE"
);
}
);
width = 640;
}
);
note = ambulance;
unicode = 1F691;
},
{
glyphname = taxi;
layers = (
{
layerId = "8CF30A56-F91F-4EB2-A618-934C961D83D1";
paths = (
{
closed = 1;
nodes = (
"440 291.2 LINE SMOOTH",
"430.4 326.4 OFFCURVE",
"398.4 352 OFFCURVE",
"363.2 352 CURVE SMOOTH",
"352 352 LINE",
"352 384 LINE SMOOTH",
"352 401.67 OFFCURVE",
"337.67 416 OFFCURVE",
"320 416 CURVE SMOOTH",
"192 416 LINE SMOOTH",
"174.33 416 OFFCURVE",
"160 401.67 OFFCURVE",
"160 384 CURVE SMOOTH",
"160 352 LINE",
"148.8 352 LINE SMOOTH",
"113.6 352 OFFCURVE",
"81.6 326.4 OFFCURVE",
"72 291.2 CURVE SMOOTH",
"50 206.36 LINE",
"21.41 199.96 OFFCURVE",
"0 174.53 OFFCURVE",
"0 144 CURVE SMOOTH",
"0 96 LINE SMOOTH",
"0 72.37 OFFCURVE",
"12.95 51.96 OFFCURVE",
"32 40.88 CURVE",
"32 0 LINE SMOOTH",
"32 -17.67 OFFCURVE",
"46.33 -32 OFFCURVE",
"64 -32 CURVE SMOOTH",
"96 -32 LINE SMOOTH",
"113.67 -32 OFFCURVE",
"128 -17.67 OFFCURVE",
"128 0 CURVE SMOOTH",
"128 32 LINE",
"384 32 LINE",
"384 0 LINE SMOOTH",
"384 -17.67 OFFCURVE",
"398.33 -32 OFFCURVE",
"416 -32 CURVE SMOOTH",
"448 -32 LINE SMOOTH",
"465.67 -32 OFFCURVE",
"480 -17.67 OFFCURVE",
"480 0 CURVE SMOOTH",
"480 40.88 LINE",
"499.05 51.97 OFFCURVE",
"512 72.38 OFFCURVE",
"512 96 CURVE SMOOTH",
"512 144 LINE SMOOTH",
"512 174.53 OFFCURVE",
"490.59 199.96 OFFCURVE",
"462 206.36 CURVE"
);
},
{
closed = 1;
nodes = (
"78.33 96 OFFCURVE",
"64 110.33 OFFCURVE",
"64 128 CURVE SMOOTH",
"64 145.67 OFFCURVE",
"78.33 160 OFFCURVE",
"96 160 CURVE SMOOTH",
"113.67 160 OFFCURVE",
"128 145.67 OFFCURVE",
"128 128 CURVE SMOOTH",
"128 110.33 OFFCURVE",
"113.67 96 OFFCURVE",
"96 96 CURVE SMOOTH"
);
},
{
closed = 1;
nodes = (
"116.55 208 LINE",
"133.75 274.36 LINE SMOOTH",
"135.98 282.52 OFFCURVE",
"143.34 288 OFFCURVE",
"148.81 288 CURVE SMOOTH",
"363.21 288 LINE SMOOTH",
"368.68 288 OFFCURVE",
"376.04 282.52 OFFCURVE",
"378.06 275.14 CURVE SMOOTH",
"395.45 208 LINE"
);
},
{
closed = 1;
nodes = (
"398.33 96 OFFCURVE",
"384 110.33 OFFCURVE",
"384 128 CURVE SMOOTH",
"384 145.67 OFFCURVE",
"398.33 160 OFFCURVE",
"416 160 CURVE SMOOTH",
"433.67 160 OFFCURVE",
"448 145.67 OFFCURVE",
"448 128 CURVE SMOOTH",
"448 110.33 OFFCURVE",
"433.67 96 OFFCURVE",
"416 96 CURVE SMOOTH"
);
}
);
width = 512;
}
);
note = taxi;
unicode = 1F695;
},
{
glyphname = tractor;
layers = (
{
layerId = "8CF30A56-F91F-4EB2-A618-934C961D83D1";
paths = (
{
closed = 1;
nodes = (
"479.4 112 OFFCURVE",
"440 72.6 OFFCURVE",
"440 24 CURVE SMOOTH",
"440 -24.6 OFFCURVE",
"479.4 -64 OFFCURVE",
"528 -64 CURVE SMOOTH",
"576.6 -64 OFFCURVE",
"616 -24.6 OFFCURVE",
"616 24 CURVE SMOOTH",
"616 72.6 OFFCURVE",
"576.6 112 OFFCURVE",
"528 112 CURVE SMOOTH"
);
},
{
closed = 1;
nodes = (
"514.77 0 OFFCURVE",
"504 10.77 OFFCURVE",
"504 24 CURVE SMOOTH",
"504 37.23 OFFCURVE",
"514.77 48 OFFCURVE",
"528 48 CURVE SMOOTH",
"541.23 48 OFFCURVE",
"552 37.23 OFFCURVE",
"552 24 CURVE SMOOTH",
"552 10.77 OFFCURVE",
"541.23 0 OFFCURVE",
"528 0 CURVE SMOOTH"
);
},
{
closed = 1;
nodes = (
"544 288 LINE",
"544 328.2 LINE SMOOTH",
"544 342.32 OFFCURVE",
"548.7 355.96 OFFCURVE",
"557.15 367.04 CURVE SMOOTH",
"561.57 372.84 OFFCURVE",
"560.7 381.1 OFFCURVE",
"555.83 386.53 CURVE SMOOTH",
"534.2 410.7 LINE SMOOTH",
"527.54 418.15 OFFCURVE",
"515.88 417.62 OFFCURVE",
"509.5 409.92 CURVE SMOOTH",
"490.58 387.1 OFFCURVE",
"480 358.19 OFFCURVE",
"480 328.2 CURVE SMOOTH",
"480 288 LINE",
"377.67 288 LINE",
"321.58 418.86 LINE SMOOTH",
"314.73 434.94 OFFCURVE",
"294.98 448 OFFCURVE",
"277.5 448 CURVE SMOOTH",
"277.45 448 LINE",
"144 448 LINE SMOOTH",
"117.53 448 OFFCURVE",
"96 426.47 OFFCURVE",
"96 400 CURVE SMOOTH",
"96 253.48 LINE",
"87.37 260.21 OFFCURVE",
"75.04 259.94 OFFCURVE",
"67.11 252.01 CURVE SMOOTH",
"36 220.9 LINE SMOOTH",
"27.41 212.31 OFFCURVE",
"27.41 198.38 OFFCURVE",
"36 189.79 CURVE SMOOTH",
"41.06 184.73 LINE",
"36.07 175.47 OFFCURVE",
"32.1 165.91 OFFCURVE",
"29.15 156.01 CURVE",
"22 156.01 LINE SMOOTH",
"9.85 156.01 OFFCURVE",
"0 146.16 OFFCURVE",
"0 134.01 CURVE SMOOTH",
"0 90.01 LINE SMOOTH",
"0 77.86 OFFCURVE",
"9.85 68.01 OFFCURVE",
"22 68.01 CURVE SMOOTH",
"29.14 68.01 LINE",
"32.1 58.1 OFFCURVE",
"36.06 48.55 OFFCURVE",
"41.05 39.28 CURVE",
"35.99 34.22 LINE SMOOTH",
"27.4 25.63 OFFCURVE",
"27.4 11.7 OFFCURVE",
"35.99 3.11 CURVE SMOOTH",
"67.1 -28 LINE SMOOTH",
"75.69 -36.59 OFFCURVE",
"89.62 -36.59 OFFCURVE",
"98.21 -28 CURVE SMOOTH",
"103.27 -22.94 LINE",
"112.53 -27.93 OFFCURVE",
"122.09 -31.9 OFFCURVE",
"131.99 -34.85 CURVE",
"131.99 -42 LINE SMOOTH",
"131.99 -54.15 OFFCURVE",
"141.84 -64 OFFCURVE",
"153.99 -64 CURVE SMOOTH",
"197.99 -64 LINE SMOOTH",
"210.14 -64 OFFCURVE",
"219.99 -54.15 OFFCURVE",
"219.99 -42 CURVE SMOOTH",
"219.99 -34.86 LINE",
"229.89 -31.91 OFFCURVE",
"239.45 -27.94 OFFCURVE",
"248.71 -22.95 CURVE",
"253.77 -28.01 LINE SMOOTH",
"262.36 -36.6 OFFCURVE",
"276.29 -36.6 OFFCURVE",
"284.88 -28.01 CURVE SMOOTH",
"315.99 3.1 LINE SMOOTH",
"324.58 11.69 OFFCURVE",
"324.58 25.62 OFFCURVE",
"315.99 34.21 CURVE SMOOTH",
"310.93 39.27 LINE",
"315.92 48.53 OFFCURVE",
"319.89 58.09 OFFCURVE",
"322.84 67.99 CURVE",
"330 67.99 LINE SMOOTH",
"342.15 67.99 OFFCURVE",
"352 77.84 OFFCURVE",
"352 89.99 CURVE SMOOTH",
"352 95.99 LINE",
"432.54 95.99 LINE",
"454.45 124.98 OFFCURVE",
"488.86 143.99 OFFCURVE",
"528 143.99 CURVE SMOOTH",
"546.64 143.99 OFFCURVE",
"564.07 139.38 OFFCURVE",
"579.8 131.79 CURVE",
"630.62 182.61 LINE SMOOTH",
"636.62 188.61 OFFCURVE",
"639.99 196.75 OFFCURVE",
"639.99 205.24 CURVE SMOOTH",
"639.99 256 LINE SMOOTH",
"640 273.67 OFFCURVE",
"625.67 288 OFFCURVE",
"608 288 CURVE SMOOTH"
);
},
{
closed = 1;
nodes = (
"131.82 32 OFFCURVE",
"96 67.82 OFFCURVE",
"96 112 CURVE SMOOTH",
"96 156.18 OFFCURVE",
"131.82 192 OFFCURVE",
"176 192 CURVE SMOOTH",
"220.18 192 OFFCURVE",
"256 156.18 OFFCURVE",
"256 112 CURVE SMOOTH",
"256 67.82 OFFCURVE",
"220.18 32 OFFCURVE",
"176 32 CURVE SMOOTH"
);
},
{
closed = 1;
nodes = (
"198 288 LINE",
"160 288 LINE",
"160 384 LINE",
"266.89 384 LINE",
"308.04 288 LINE"
);
}
);
width = 640;
}
);
note = tractor;
unicode = 1F69C;
},
{
glyphname = ship;
layers = (
{
layerId = "8CF30A56-F91F-4EB2-A618-934C961D83D1";
paths = (
{
closed = 1;
nodes = (
"566.63 145.37 LINE SMOOTH",
"583.53 162.27 OFFCURVE",
"576.57 191.14 OFFCURVE",
"553.79 198.46 CURVE SMOOTH",
"512 211.89 LINE",
"512 351.99 LINE SMOOTH",
"512 369.66 OFFCURVE",
"497.67 383.99 OFFCURVE",
"480 383.99 CURVE SMOOTH",
"416 383.99 LINE",
"416 423.99 LINE SMOOTH",
"416 437.24 OFFCURVE",
"405.25 447.99 OFFCURVE",
"392 447.99 CURVE SMOOTH",
"248 447.99 LINE SMOOTH",
"234.75 447.99 OFFCURVE",
"224 437.24 OFFCURVE",
"224 423.99 CURVE SMOOTH",
"224 383.99 LINE",
"160 383.99 LINE SMOOTH",
"142.33 383.99 OFFCURVE",
"128 369.66 OFFCURVE",
"128 351.99 CURVE SMOOTH",
"128 211.89 LINE",
"86.21 198.46 LINE SMOOTH",
"63.46 191.15 OFFCURVE",
"56.46 162.29 OFFCURVE",
"73.37 145.37 CURVE SMOOTH",
"143.38 75.36 LINE",
"125.82 31.71 OFFCURVE",
"85.58 0 OFFCURVE",
"24 0 CURVE SMOOTH",
"10.75 0 OFFCURVE",
"0 -10.75 OFFCURVE",
"0 -24 CURVE SMOOTH",
"0 -40 LINE SMOOTH",
"0 -53.25 OFFCURVE",
"10.75 -64 OFFCURVE",
"24 -64 CURVE SMOOTH",
"85.02 -64 OFFCURVE",
"131.5 -43.39 OFFCURVE",
"167.26 -4.6 CURVE",
"181.68 -39.43 OFFCURVE",
"216.02 -64 OFFCURVE",
"256 -64 CURVE SMOOTH",
"384 -64 LINE SMOOTH",
"423.98 -64 OFFCURVE",
"458.32 -39.43 OFFCURVE",
"472.74 -4.6 CURVE",
"508.49 -43.38 OFFCURVE",
"554.97 -64 OFFCURVE",
"616 -64 CURVE SMOOTH",
"629.25 -64 OFFCURVE",
"640 -53.25 OFFCURVE",
"640 -40 CURVE SMOOTH",
"640 -24 LINE SMOOTH",
"640 -10.75 OFFCURVE",
"629.25 0 OFFCURVE",
"616 0 CURVE SMOOTH",
"555.18 0 OFFCURVE",
"514.46 31 OFFCURVE",
"496.62 75.36 CURVE"
);
},
{
closed = 1;
nodes = (
"192 320 LINE",
"448 320 LINE",
"448 232.47 LINE",
"329.79 270.47 LINE SMOOTH",
"327.15 271.32 OFFCURVE",
"322.77 272.01 OFFCURVE",
"320 272.01 CURVE SMOOTH",
"317.23 272.01 OFFCURVE",
"312.84 271.32 OFFCURVE",
"310.21 270.47 CURVE SMOOTH",
"192 232.47 LINE"
);
}
);
width = 640;
}
);
note = ship;
unicode = 1F6A2;
},
{
glyphname = bicycle;
lastChange = "2020-11-05 10:04:31 +0000";
layers = (
{
layerId = "8CF30A56-F91F-4EB2-A618-934C961D83D1";
paths = (
{
closed = 1;
nodes = (
"496 256 OFFCURVE",
"480 253 OFFCURVE",
"466 248 CURVE",
"388 373 LINE SMOOTH",
"385 379 OFFCURVE",
"375 384 OFFCURVE",
"368 384 CURVE SMOOTH",
"368 384 LINE",
"304 384 LINE SMOOTH",
"295 384 OFFCURVE",
"288 377 OFFCURVE",
"288 368 CURVE SMOOTH",
"288 352 LINE SMOOTH",
"288 343 OFFCURVE",
"295 336 OFFCURVE",
"304 336 CURVE SMOOTH",
"355 336 LINE",
"370 312 LINE",
"256 312 LINE",
"256 328 LINE SMOOTH",
"256 337 OFFCURVE",
"249 344 OFFCURVE",
"240 344 CURVE SMOOTH",
"153 344 LINE SMOOTH",
"139 344 OFFCURVE",
"128 333 OFFCURVE",
"128 320 CURVE SMOOTH",
"128 307 OFFCURVE",
"139 296 OFFCURVE",
"152 296 CURVE SMOOTH",
"201 296 LINE",
"171 248 LINE",
"158 253 OFFCURVE",
"143 256 OFFCURVE",
"128 256 CURVE SMOOTH",
"58 256 OFFCURVE",
"0 199 OFFCURVE",
"0 129 CURVE SMOOTH",
"0 58 OFFCURVE",
"57 0 OFFCURVE",
"128 0 CURVE SMOOTH",
"188 0 OFFCURVE",
"238 41 OFFCURVE",
"252 96 CURVE",
"304 96 LINE SMOOTH",
"311 96 OFFCURVE",
"321 101 OFFCURVE",
"324 107 CURVE SMOOTH",
"410 246 LINE",
"425 222 LINE",
"400 199 OFFCURVE",
"384 165 OFFCURVE",
"384 128 CURVE SMOOTH",
"384 59 OFFCURVE",
"442 1 OFFCURVE",
"511 0 CURVE SMOOTH",
"581 -1 OFFCURVE",
"639 56 OFFCURVE",
"640 126 CURVE SMOOTH",
"641 197 OFFCURVE",
"583 256 OFFCURVE",
"513 256 CURVE SMOOTH"
);
},
{
closed = 1;
nodes = (
"187 182 LINE",
"196 172 OFFCURVE",
"203 159 OFFCURVE",
"206 144 CURVE",
"163 144 LINE"
);
},
{
closed = 1;
nodes = (
"84 48 OFFCURVE",
"48 84 OFFCURVE",
"48 128 CURVE SMOOTH",
"48 172 OFFCURVE",
"84 208 OFFCURVE",
"128 208 CURVE SMOOTH",
"134 208 OFFCURVE",
"140 207 OFFCURVE",
"145 206 CURVE",
"100 133 LINE SMOOTH",
"90 117 OFFCURVE",
"101 96 OFFCURVE",
"120 96 CURVE SMOOTH",
"201 96 LINE",
"189 68 OFFCURVE",
"161 48 OFFCURVE",
"128 48 CURVE SMOOTH"
);
},
{
closed = 1;
nodes = (
"291 144 LINE",
"255 144 LINE",
"251 176 OFFCURVE",
"235 204 OFFCURVE",
"213 224 CURVE",
"237 264 LINE",
"365 264 LINE"
);
},
{
closed = 1;
nodes = (
"467 50 OFFCURVE",
"434 84 OFFCURVE",
"432 125 CURVE SMOOTH",
"431 146 OFFCURVE",
"439 165 OFFCURVE",
"451 180 CURVE",
"496 109 LINE SMOOTH",
"501 101 OFFCURVE",
"510 99 OFFCURVE",
"518 103 CURVE SMOOTH",
"531 112 LINE SMOOTH",
"539 116 OFFCURVE",
"541 126 OFFCURVE",
"537 134 CURVE SMOOTH",
"492 205 LINE",
"498 207 OFFCURVE",
"506 208 OFFCURVE",
"512 208 CURVE SMOOTH",
"512 208 LINE SMOOTH",
"556 208 OFFCURVE",
"592 172 OFFCURVE",
"592 128 CURVE SMOOTH",
"592 82 OFFCURVE",
"554 46 OFFCURVE",
"508 48 CURVE SMOOTH"
);
}
);
width = 640;
}
);
note = bicycle;
unicode = 1F6B2;
},
